<svg xmlns="http://www.w3.org/2000/svg" width="193" height="214" viewBox="0 0 193 214">
  <defs>
    <linearGradient id="operations_portrait_dark-a" x1="60.881%" x2="30.576%" y1="74.624%" y2="-20.832%">
      <stop offset="0%" stop-color="#15DABA"/>
      <stop offset="20.5%" stop-color="#13DEB4"/>
      <stop offset="49.01%" stop-color="#0DE8A2"/>
      <stop offset="82.08%" stop-color="#04F884"/>
      <stop offset="93.75%" stop-color="#00FF78"/>
    </linearGradient>
    <linearGradient id="operations_portrait_dark-b" x1="55.835%" x2="45.052%" y1="67.554%" y2="-5.163%">
      <stop offset="0%" stop-color="#15DABA"/>
      <stop offset="37.62%" stop-color="#10D4BD"/>
      <stop offset="89.85%" stop-color="#01C2C4"/>
      <stop offset="93.75%" stop-color="#00C0C5"/>
    </linearGradient>
  </defs>
  <g fill="none" fill-rule="evenodd">
    <g transform="translate(33)">
      <path fill="#15DABA" fill-rule="nonzero" d="M15.7234568,22.2814815 C-7.19012346,49.0271605 -4.0691358,89.2444444 22.6765432,112.118519 C49.4222222,134.992593 89.6395062,131.911111 112.51358,105.165432 C135.42716,78.4197531 132.306173,38.2024691 105.560494,15.3283951 C78.8148148,-7.54567901 38.637037,-4.46419753 15.7234568,22.2814815 Z M41.5604938,44.4049383 C52.2271605,31.9604938 70.9925926,30.4987654 83.437037,41.1654321 C95.8814815,51.8320988 97.3432099,70.5975309 86.6765432,83.0419753 C76.0098765,95.4864198 57.2444444,96.9481481 44.8,86.2814815 C32.3555556,75.6148148 30.8938272,56.8888889 41.5604938,44.4049383 Z"/>
      <path fill="url(#operations_portrait_dark-a)" fill-rule="nonzero" d="M15.7234568,22.2419753 C8.7308642,30.4197531 4.14814815,39.8617284 1.93580247,49.6592593 C1.97530864,49.5802469 2.05432099,49.5407407 2.09382716,49.4617284 C22.4395062,25.6790123 61.0765432,23.2296296 82.2518519,40.1777778 L82.0148148,39.9802469 C82.0148148,39.9802469 82.4098765,40.2962963 82.6469136,40.4938272 C82.5283951,40.3753086 82.3703704,40.2962963 82.2518519,40.1777778 L82.5283951,40.4148148 C82.8444444,40.6518519 83.1604938,40.8888889 83.437037,41.1654321 C95.8814815,51.8320988 97.3432099,70.5975309 86.6765432,83.0419753 C77.8666667,93.3530864 63.5259259,96.1185185 51.7530864,90.745679 C51.6740741,90.7061728 51.5555556,90.6666667 51.4765432,90.6271605 C51.2395062,90.508642 50.962963,90.3901235 50.7259259,90.2716049 C50.4493827,90.1530864 50.2123457,89.9950617 49.9358025,89.837037 C49.8567901,89.7975309 49.7382716,89.7185185 49.6592593,89.6790123 C49.145679,89.4024691 48.6320988,89.0864198 48.1185185,88.7703704 L28.9975309,116.898765 C31.2493827,118.4 33.5802469,119.74321 35.9506173,120.888889 C36.0296296,120.928395 36.1481481,120.967901 36.2271605,121.046914 C36.5037037,121.204938 36.8197531,121.323457 37.0962963,121.441975 C37.3333333,121.560494 37.5703704,121.679012 37.8074074,121.758025 C37.9259259,121.797531 38.0444444,121.876543 38.162963,121.916049 C63.2493827,133.05679 93.6691358,127.051852 112.434568,105.125926 C135.348148,78.3802469 132.22716,38.162963 105.481481,15.2493827 C104.651852,14.5382716 103.782716,13.8271605 102.91358,13.1555556 L102.874074,13.1950617 C93.3135802,5.84691358 82.2123457,1.58024691 70.9135802,0.355555556 C70.8345679,0.355555556 70.7160494,0.355555556 70.637037,0.316049383 C70.2814815,0.27654321 69.9654321,0.237037037 69.6098765,0.237037037 C69.254321,0.197530864 68.8987654,0.158024691 68.5432099,0.158024691 C68.4641975,0.158024691 68.3851852,0.158024691 68.3061728,0.158024691 C48.9876543,-1.14567901 29.3135802,6.4 15.7234568,22.2419753 Z M84.345679,41.7580247 C84.5037037,41.8765432 84.6617284,42.0345679 84.8592593,42.1530864 C84.7012346,42.0345679 84.5037037,41.8765432 84.345679,41.7580247 Z M83.1604938,40.8098765 C83.3975309,40.9679012 83.5950617,41.1654321 83.8320988,41.3234568 C83.5950617,41.1654321 83.3975309,41.0074074 83.1604938,40.8098765 Z M104.138272,14.2617284 C104.177778,14.2617284 104.177778,14.2617284 104.138272,14.2617284 C104.177778,14.2617284 104.177778,14.2617284 104.138272,14.2617284 Z"/>
      <path fill="url(#operations_portrait_dark-b)" fill-rule="nonzero" d="M83.5160494,41.2049383 C71.0320988,30.4987654 52.2666667,31.9604938 41.6,44.4049383 C30.9333333,56.8493827 32.3950617,75.6148148 44.8790123,86.3209877 C46.0246914,87.308642 47.2493827,88.217284 48.5135802,89.0074074 C48.3950617,88.9283951 48.3160494,88.8888889 48.1975309,88.8098765 L29.037037,116.938272 L22.7160494,112.158025 C4.10864198,96.237037 -3.04197531,71.9407407 1.97530864,49.6592593 C2.01481481,49.6197531 2.05432099,49.5407407 2.13333333,49.5012346 C22.4790123,25.7185185 61.1555556,23.308642 82.3703704,40.2567901 L82.6469136,40.4938272 C82.9234568,40.7308642 83.2,40.9679012 83.5160494,41.2049383"/>
    </g>
    <g fill="#353068" fill-rule="nonzero" transform="translate(0 151.245)">
      <polygon points="71.603 13.962 66.443 6.326 66.443 .151 64.743 .151 64.743 6.326 59.584 13.962 61.501 13.962 65.594 7.806 69.685 13.962" transform="matrix(1 0 0 -1 0 14.112)"/>
      <path d="M78.69899,12.4225461 C77.3809384,12.4225461 76.2150912,11.916266 75.2002626,10.9033113 C74.185434,9.89035657 73.6782173,8.60788563 73.6782173,7.0558985 C73.6782173,5.50391136 74.185434,4.22144042 75.2002626,3.20848569 C76.2150912,2.19553095 77.3809384,1.68964549 78.69899,1.68964549 C80.0957137,1.68964549 81.2848857,2.1923741 82.2669014,3.19862053 C83.2485217,4.20526156 83.7395296,5.49088935 83.7395296,7.0558985 C83.7395296,8.62130225 83.2485217,9.90693004 82.2669014,10.9135711 C81.2848857,11.9198175 80.0957137,12.4225461 78.69899,12.4225461 M78.69899,14.0996235 C80.5175376,14.0996235 82.1249756,13.4291871 83.5220945,12.0871306 C84.9184228,10.7454687 85.6173777,9.06839135 85.6173777,7.0558985 C85.6173777,5.04380025 84.9184228,3.36672287 83.5220945,2.02466636 C82.1249756,0.683004462 80.5175376,0.0125681172 78.69899,0.0125681172 C76.9199761,0.0125681172 75.3220262,0.686161313 73.9055358,2.03492613 C72.48865,3.38290174 71.7806024,5.05642766 71.7806024,7.0558985 C71.7806024,9.05536934 72.48865,10.7288953 73.9055358,12.0772655 C75.3220262,13.4256357 76.9199761,14.0996235 78.69899,14.0996235" transform="matrix(1 0 0 -1 0 14.112)"/>
      <path d="M94.7101157,12.4225461 C93.392064,12.4225461 92.2262168,11.916266 91.2113882,10.9033113 C90.1965596,9.89035657 89.6893429,8.60788563 89.6893429,7.0558985 C89.6893429,5.50391136 90.1965596,4.22144042 91.2113882,3.20848569 C92.2262168,2.19553095 93.392064,1.68964549 94.7101157,1.68964549 C96.1068393,1.68964549 97.2960113,2.1923741 98.278027,3.19862053 C99.2596474,4.20526156 99.7506552,5.49088935 99.7506552,7.0558985 C99.7506552,8.62130225 99.2596474,9.90693004 98.278027,10.9135711 C97.2960113,11.9198175 96.1068393,12.4225461 94.7101157,12.4225461 M94.7101157,14.0996235 C96.5286633,14.0996235 98.1361012,13.4291871 99.5332202,12.0871306 C100.929548,10.7454687 101.628503,9.06839135 101.628503,7.0558985 C101.628503,5.04380025 100.929548,3.36672287 99.5332202,2.02466636 C98.1361012,0.683004462 96.5286633,0.0125681172 94.7101157,0.0125681172 C92.9311017,0.0125681172 91.3331518,0.686161313 89.9166614,2.03492613 C88.4997756,3.38290174 87.791728,5.05642766 87.791728,7.0558985 C87.791728,9.05536934 88.4997756,10.7288953 89.9166614,12.0772655 C91.3331518,13.4256357 92.9311017,14.0996235 94.7101157,14.0996235" transform="matrix(1 0 0 -1 0 14.112)"/>
      <path d="M108.961915,1.65010593 C111.109778,1.65010593 112.183907,2.51153179 112.183907,4.23477812 C112.183907,5.01096899 111.910334,5.64194469 111.363584,6.12928365 C110.816438,6.61543878 110.016277,6.85891096 108.961915,6.85891096 L105.779457,6.85891096 L105.779457,1.65010593 L108.961915,1.65010593 Z M105.779457,8.35841544 L108.764247,8.35841544 C109.620941,8.35841544 110.249921,8.52296632 110.651978,8.85167349 C111.054035,9.18038066 111.254866,9.70007734 111.254866,10.4103689 C111.254866,11.7784695 110.42466,12.4623224 108.764247,12.4623224 L105.779457,12.4623224 L105.779457,8.35841544 Z M111.037431,7.72704513 C111.986239,7.39794336 112.697844,6.92441563 113.172248,6.30646194 C113.647047,5.68811365 113.883854,4.97782205 113.883854,4.17558716 C113.883854,2.88640791 113.449379,1.8931835 112.579243,1.19670313 C111.709503,0.499038939 110.464194,0.150601451 108.843314,0.150601451 L104.039976,0.150601451 L104.039976,13.9618269 L108.764247,13.9618269 C110.094949,13.9618269 111.126777,13.6560069 111.857754,13.0443669 C112.589127,12.4327269 112.955208,11.5677496 112.955208,10.4498296 C112.955208,9.08172905 112.315554,8.17413423 111.037431,7.72704513 Z" transform="matrix(1 0 0 -1 0 14.112)"/>
      <polygon points="117.955 .151 116.196 .151 116.196 13.962 117.955 13.962" transform="matrix(1 0 0 -1 0 14.113)"/>
      <path d="M127.107225,14.0996235 C128.833264,14.0996235 130.322496,13.5278387 131.574527,12.3830855 L130.507514,11.1203448 C129.597844,11.988479 128.471136,12.4225461 127.126992,12.4225461 C125.795894,12.4225461 124.616605,11.9060063 123.589126,10.8737158 C122.560856,9.84103076 122.046919,8.56842499 122.046919,7.0558985 C122.046919,5.5429774 122.560856,4.27076623 123.589126,3.23847578 C124.616605,2.20539611 125.795894,1.68964549 127.126992,1.68964549 C128.444648,1.68964549 129.578078,2.13002628 130.526885,3.01118247 L131.594689,1.74844185 C130.329217,0.591061161 128.833264,0.0125681172 127.107225,0.0125681172 C125.315165,0.0125681172 123.710494,0.683004462 122.294004,2.02466636 C120.877118,3.36672287 120.16907,5.03669733 120.16907,7.03656278 C120.16907,8.37783007 120.508269,9.59795319 121.187062,10.6961429 C121.865459,11.7943326 122.732037,12.6364228 123.786794,13.2216241 C124.840761,13.8068255 125.947308,14.0996235 127.107225,14.0996235" transform="matrix(1 0 0 -1 0 14.112)"/>
      <path d="M15.1050129,50.2578853 C13.7205447,51.5861305 12.1498731,52.2506478 10.3933933,52.2506478 C8.63651819,52.2506478 7.0654512,51.5861305 5.68137834,50.2578853 C4.29730548,48.9288508 3.60507138,47.055654 3.60507138,44.6382949 C3.60507138,42.2465853 4.29730548,40.3864105 5.68137834,39.0581652 C7.0654512,37.7295253 8.63651819,37.0654027 10.3933933,37.0654027 C12.1498731,37.0654027 13.7205447,37.7295253 15.1050129,39.0581652 C16.4886905,40.3864105 17.1813199,42.2465853 17.1813199,44.6382949 C17.1813199,47.055654 16.4886905,48.9288508 15.1050129,50.2578853 M6.91957205,54.6021076 C8.09055857,55.0531427 9.24849899,55.2796468 10.3933933,55.2796468 C11.537497,55.2796468 12.6954374,55.0531427 13.8668192,54.6021076 C15.0382011,54.1498886 16.1293296,53.5058909 17.1409956,52.6689306 C18.1526615,51.8319704 18.9844494,50.709315 19.6367545,49.3009646 C20.2886643,47.8926142 20.6152122,46.3378649 20.6152122,44.6382949 C20.6152122,42.9375412 20.2886643,41.3831864 19.6367545,39.974836 C18.9844494,38.5664856 18.1526615,37.4505386 17.1409956,36.6273896 C16.1293296,35.8034513 15.0382011,35.1657673 13.8668192,34.7139429 C12.6954374,34.2629078 11.537497,34.0367983 10.3933933,34.0367983 C9.24849899,34.0367983 8.09055857,34.2629078 6.91957205,34.7139429 C5.74779486,35.1657673 4.65627096,35.8034513 3.6453957,36.6273896 C2.63333442,37.4505386 1.8019419,38.5664856 1.14963678,39.974836 C0.497331664,41.3831864 0.171574441,42.9375412 0.171574441,44.6382949 C0.171574441,46.3378649 0.497331664,47.8926142 1.14963678,49.3009646 C1.8019419,50.709315 2.63333442,51.8319704 3.6453957,52.6689306 C4.65627096,53.5058909 5.74779486,54.1498886 6.91957205,54.6021076" transform="matrix(1 0 0 -1 0 89.316)"/>
      <path d="M29.06031,46.2727943 C30.4040586,44.970593 31.9549634,44.319887 33.7122339,44.319887 C35.469109,44.319887 37.046106,44.9974262 38.4436203,46.3521102 C39.8411346,47.7075833 40.5396941,49.5807801 40.5396941,51.9717005 C40.5396941,54.3634101 39.8411346,56.229504 38.4436203,57.5715605 C37.046106,58.9128278 35.469109,59.5840534 33.7122339,59.5840534 C31.9549634,59.5840534 30.4040586,58.9400557 29.06031,57.651271 C27.7161662,56.3620918 27.0436989,54.4691647 27.0436989,51.9717005 C27.0436989,49.4738417 27.7161662,47.5742063 29.06031,46.2727943 M34.1514526,62.5735918 C36.6270494,62.5735918 38.8828391,61.6300878 40.9192171,59.743869 C42.9555951,57.8564664 43.9739817,55.2662697 43.9739817,51.9717005 C43.9739817,48.6499035 42.9619204,46.0466848 40.9393792,44.1600714 C38.9160474,42.273458 36.6531416,41.3307432 34.1514526,41.3307432 C32.5799903,41.3307432 31.1567792,41.7289011 29.8786565,42.5264007 C28.6013244,43.3231111 27.7090501,44.319887 27.2038101,45.5155445 L27.2038101,34.0368377 L23.7695225,34.0368377 L23.7695225,62.3340657 L27.2038101,62.3340657 L27.2038101,58.5083562 C27.6829579,59.7036191 28.5610001,60.6802701 29.8391228,61.4375198 C31.1164548,62.1947696 32.5542935,62.5735918 34.1514526,62.5735918" transform="matrix(1 0 0 -1 0 96.61)"/>
      <path d="M61.6821285,50.6565561 C60.3644722,51.7456699 58.9068667,52.2906214 57.3097076,52.2906214 C55.7125484,52.2906214 54.2683844,51.7456699 52.9772156,50.6565561 C51.6860468,49.5666532 50.9341169,47.9992764 50.7214259,45.9536366 L63.9778472,45.9536366 C63.7647609,47.9992764 62.9997849,49.5666532 61.6821285,50.6565561 M57.3097076,55.2797652 C58.4806941,55.2797652 59.6457505,55.0536557 60.8032956,54.602226 C61.9616314,54.1504016 63.0456439,53.5064039 64.0577052,52.6694436 C65.0689758,51.8320887 65.8877175,50.7224554 66.5135351,49.3413329 C67.138562,47.9594211 67.4516685,46.4318996 67.4516685,44.7579791 C67.4516685,44.2797161 67.4117395,43.8413083 67.3318815,43.4427558 L50.6814969,43.4427558 C50.8941879,41.3963268 51.6860468,39.815928 53.0574689,38.699981 C54.4277049,37.5840339 55.9651683,37.0260604 57.6690684,37.0260604 C59.8252333,37.0260604 61.6220374,37.7430603 63.0594807,39.178244 L65.6548644,37.6238892 C63.6046496,35.2325742 60.9432447,34.0369166 57.6690684,34.0369166 C56.471199,34.0369166 55.2662135,34.2630261 54.0556934,34.7144559 C52.8439872,35.1658857 51.7196504,35.8035697 50.6814969,36.6275079 C49.6433434,37.450657 48.7981141,38.566604 48.1462043,39.975349 C47.4935039,41.3833048 47.1677466,42.9376595 47.1677466,44.6384133 C47.1677466,46.8963514 47.7129156,48.8630699 48.8048348,50.5369904 C49.8963587,52.2105163 51.1938529,53.4195905 52.6977127,54.1638182 C54.2015725,54.9072567 55.7390359,55.2797652 57.3097076,55.2797652" transform="matrix(1 0 0 -1 0 89.317)"/>
      <path d="M82.4646882,55.0006601 C83.0236939,55.0006601 83.543166,54.9604102 84.0219184,54.8806997 L84.0219184,51.7325295 C83.6491161,51.7854068 83.116598,51.81224 82.4247592,51.81224 C80.4287055,51.7854068 78.7248055,51.1208895 77.3142451,49.8190829 C75.9024987,48.5168816 75.0513394,46.7233954 74.7587904,44.4386241 L74.7587904,34.0766535 L71.3245028,34.0766535 L71.3245028,54.8009892 L74.7587904,54.8009892 L74.7587904,48.4245437 C74.9979689,50.2574907 75.8028739,51.81224 77.174296,53.0872134 C78.5449274,54.3629761 80.3089186,55.0006601 82.4646882,55.0006601" transform="matrix(1 0 0 -1 0 89.077)"/>
      <path d="M96.0810238,52.2907793 C94.3241487,52.2907793 92.7467563,51.6195537 91.349242,50.2778918 C89.9517277,48.9362299 89.2531682,47.070136 89.2531682,44.6784264 C89.2531682,42.2871114 89.9517277,40.4139146 91.349242,39.0588361 C92.7467563,37.7037575 94.3241487,37.0262183 96.0810238,37.0262183 C97.8639911,37.0262183 99.4212214,37.6773189 100.752714,38.9795202 C102.083417,40.2805376 102.749163,42.1805676 102.749163,44.6784264 C102.749163,47.175496 102.083417,49.0688177 100.752714,50.3579969 C99.4212214,51.6463869 97.8639911,52.2907793 96.0810238,52.2907793 M95.641805,55.2799231 C97.2650564,55.2799231 98.7092204,54.9011009 99.974297,54.1438511 C101.238188,53.3866014 102.1103,52.410345 102.589448,51.2146875 L102.589448,55.0407916 L106.02334,55.0407916 L106.02334,34.3160612 L102.589448,34.3160612 L102.589448,38.2222704 C102.083417,37.0262183 101.197863,36.029837 99.9339727,35.232732 C98.6696868,34.435627 97.2389642,34.0370745 95.641805,34.0370745 C93.1393254,34.0370745 90.8764197,34.9801839 88.8538784,36.8667973 C86.8305466,38.7530161 85.819276,41.3566294 85.819276,44.6784264 C85.819276,46.3787856 86.124871,47.926432 86.7376425,49.3217604 C87.3496233,50.7166942 88.1351568,51.8326412 89.0934523,52.6696015 C90.0517478,53.5065617 91.0962267,54.1505594 92.2280749,54.6023838 C93.3587371,55.0538136 94.4969107,55.2799231 95.641805,55.2799231" transform="matrix(1 0 0 -1 0 89.317)"/>
      <path d="M116.964394,33.6779826 C117.815949,33.6779826 118.734315,33.8772589 119.719494,34.276206 L119.719494,31.4062333 C118.761198,30.9279703 117.563329,30.6888388 116.125886,30.6888388 C114.821275,30.6888388 113.790238,31.0210975 113.031587,31.6852201 C112.272937,32.3493427 111.893414,33.5584169 111.893414,35.3124425 L111.893414,48.8229779 L109.138314,48.8229779 L109.138314,51.6527006 L111.893414,51.6527006 L111.893414,55.2400678 L115.326911,55.2400678 L115.326911,51.6527006 L119.679565,51.6527006 L119.679565,48.8229779 L115.326911,48.8229779 L115.326911,35.5914293 C115.326911,34.3156666 115.872475,33.6779826 116.964394,33.6779826" transform="matrix(1 0 0 -1 0 85.929)"/>
      <path d="M126.905761,27.1019452 L123.392011,27.1019452 L123.392011,47.8266755 L126.905761,47.8266755 L126.905761,27.1019452 Z M126.905761,52.0513321 L123.392011,52.0513321 L123.392011,55.0010152 L126.905761,55.0010152 L126.905761,52.0513321 Z" transform="matrix(1 0 0 -1 0 82.103)"/>
      <path d="M145.712746,50.2578853 C144.328278,51.5861305 142.757606,52.2506478 141.001126,52.2506478 C139.244251,52.2506478 137.673184,51.5861305 136.289111,50.2578853 C134.905038,48.9288508 134.212804,47.055654 134.212804,44.6382949 C134.212804,42.2465853 134.905038,40.3864105 136.289111,39.0581652 C137.673184,37.7295253 139.244251,37.0654027 141.001126,37.0654027 C142.757606,37.0654027 144.328278,37.7295253 145.712746,39.0581652 C147.096423,40.3864105 147.789053,42.2465853 147.789053,44.6382949 C147.789053,47.055654 147.096423,48.9288508 145.712746,50.2578853 M137.527305,54.6021076 C138.698292,55.0531427 139.856232,55.2796468 141.001126,55.2796468 C142.14523,55.2796468 143.30317,55.0531427 144.474552,54.6021076 C145.645934,54.1498886 146.737063,53.5058909 147.748729,52.6689306 C148.760394,51.8319704 149.592182,50.709315 150.244487,49.3009646 C150.896397,47.8926142 151.222945,46.3378649 151.222945,44.6382949 C151.222945,42.9375412 150.896397,41.3831864 150.244487,39.974836 C149.592182,38.5664856 148.760394,37.4505386 147.748729,36.6273896 C146.737063,35.8034513 145.645934,35.1657673 144.474552,34.7139429 C143.30317,34.2629078 142.14523,34.0367983 141.001126,34.0367983 C139.856232,34.0367983 138.698292,34.2629078 137.527305,34.7139429 C136.355528,35.1657673 135.264004,35.8034513 134.253129,36.6273896 C133.241067,37.4505386 132.409675,38.5664856 131.75737,39.974836 C131.105065,41.3831864 130.779307,42.9375412 130.779307,44.6382949 C130.779307,46.3378649 131.105065,47.8926142 131.75737,49.3009646 C132.409675,50.709315 133.241067,51.8319704 134.253129,52.6689306 C135.264004,53.5058909 136.355528,54.1498886 137.527305,54.6021076" transform="matrix(1 0 0 -1 0 89.316)"/>
      <path d="M166.076051,55.0006601 C168.312074,55.0006601 170.195062,54.2690597 171.725804,52.8082267 C173.256152,51.346999 174.021918,49.115105 174.021918,46.1129392 L174.021918,34.0766535 L170.588026,34.0766535 L170.588026,45.9933734 C170.588026,48.0386186 170.115204,49.5602211 169.17035,50.5566023 C168.225495,51.5529836 166.967535,52.0509769 165.397259,52.0509769 C163.693359,52.0509769 162.209266,51.4397316 160.94498,50.21803 C159.680298,48.9955393 158.914927,47.6929434 158.649261,46.3118208 L158.649261,34.0766535 L155.214973,34.0766535 L155.214973,54.8009892 L158.649261,54.8009892 L158.649261,50.0187538 C158.88844,51.028157 159.693345,52.1109571 161.064767,53.2667594 C162.435398,54.4225616 164.105694,55.0006601 166.076051,55.0006601" transform="matrix(1 0 0 -1 0 89.077)"/>
      <path d="M189.154567,49.978938 C188.222759,51.573148 186.865174,52.370253 185.081811,52.370253 C184.150003,52.370253 183.385027,52.1244132 182.786092,51.6327336 C182.187157,51.1406593 181.887492,50.5369115 181.887492,49.819517 C181.887492,49.1814383 182.093858,48.6368815 182.506589,48.1854517 C182.919321,47.7332327 183.644368,47.3216582 184.682521,46.9495443 L186.878615,46.1528339 C188.901156,45.4614834 190.425573,44.6912116 191.450681,43.8408348 C192.474998,42.9904579 192.987749,41.7289011 192.987749,40.0549806 C192.987749,38.1948058 192.189565,36.7268698 190.592405,35.6507781 C188.995246,34.5746863 187.211488,34.0368377 185.241922,34.0368377 C183.378306,34.0368377 181.687848,34.5281227 180.170546,35.511482 C178.65364,36.494052 177.668067,37.8092753 177.216197,39.4571518 L180.170546,40.2941121 C180.51607,39.283525 181.175096,38.4805009 182.147229,37.8826721 C183.11857,37.2848433 184.163444,36.9857317 185.281456,36.9857317 C186.346097,36.9857317 187.298067,37.2647184 188.136575,37.8226919 C188.975084,38.3806654 189.394141,39.1244986 189.394141,40.0549806 C189.394141,41.489375 188.316454,42.5658614 186.160289,43.2828613 L183.764155,44.1600714 C181.847959,44.8506327 180.463491,45.6280073 179.611541,46.4914062 C178.759591,47.3548051 178.334209,48.4506272 178.334209,49.7796617 C178.334209,51.3734771 178.985723,52.6887004 180.290333,53.7249369 C181.594548,54.761568 183.178661,55.2796863 185.042277,55.2796863 C188.422008,55.2796863 190.818143,53.7782088 192.229098,50.776043 L189.154567,49.978938 Z" transform="matrix(1 0 0 -1 0 89.317)"/>
    </g>
  </g>
</svg>
