<svg version="1.1"  xmlns="http://www.w3.org/2000/svg" xmlns:xlink="http://www.w3.org/1999/xlink" 
	 viewBox="0 0 23 22"  xml:space="preserve">
<g id="Page-1" stroke="none" stroke-width="1" fill="none" fill-rule="evenodd">
        <g id="Home" transform="translate(-177.000000, -794.000000)" fill="#000000" fill-rule="nonzero">
            <g id="Bars/Tab-Bar/5-Items" transform="translate(0.000000, 794.000000)">
                <g id="Item-3" transform="translate(163.500000, 0.000000)">
                    <g id="dot-chart.1" transform="translate(14.000000, 0.000000)">
                        <g id="Group">
                            <path d="M2.29166667,22 C2.03866667,22 1.83333333,21.7946667 1.83333333,21.5416667 L1.83333333,0.458333333 C1.83333333,0.205333333 2.03866667,0 2.29166667,0 C2.54466667,0 2.75,0.205333333 2.75,0.458333333 L2.75,21.5416667 C2.75,21.7946667 2.54466667,22 2.29166667,22 Z" id="Shape"></path>
                            <path d="M21.5416667,20.1666667 L0.458333333,20.1666667 C0.205333333,20.1666667 0,19.9613333 0,19.7083333 C0,19.4553333 0.205333333,19.25 0.458333333,19.25 L21.5416667,19.25 C21.7946667,19.25 22,19.4553333 22,19.7083333 C22,19.9613333 21.7946667,20.1666667 21.5416667,20.1666667 Z" id="Shape"></path>
                            <path d="M6.875,15.5833333 C5.61183333,15.5833333 4.58333333,14.5548333 4.58333333,13.2916667 C4.58333333,12.0285 5.61183333,11 6.875,11 C8.13816667,11 9.16666667,12.0285 9.16666667,13.2916667 C9.16666667,14.5548333 8.13816667,15.5833333 6.875,15.5833333 Z" id="Shape"></path>
                            <path d="M12.375,10.0833333 C11.1118333,10.0833333 10.0833333,9.05483333 10.0833333,7.79166667 C10.0833333,6.5285 11.1118333,5.5 12.375,5.5 C13.6381667,5.5 14.6666667,6.5285 14.6666667,7.79166667 C14.6666667,9.05483333 13.6381667,10.0833333 12.375,10.0833333 Z" id="Shape"></path>
                            <path d="M18.7916667,6.41666667 C17.5285,6.41666667 16.5,5.38816667 16.5,4.125 C16.5,2.86183333 17.5285,1.83333333 18.7916667,1.83333333 C20.0548333,1.83333333 21.0833333,2.86183333 21.0833333,4.125 C21.0833333,5.38816667 20.0548333,6.41666667 18.7916667,6.41666667 Z" id="Shape"></path>
                        </g>
                        <path d="M6.875,18.3333333 C6.622,18.3333333 6.41666667,18.128 6.41666667,17.875 L6.41666667,16.9583333 C6.41666667,16.7053333 6.622,16.5 6.875,16.5 C7.128,16.5 7.33333333,16.7053333 7.33333333,16.9583333 L7.33333333,17.875 C7.33333333,18.128 7.128,18.3333333 6.875,18.3333333 Z" id="Shape"></path>
                        <path d="M12.375,18.3333333 C12.122,18.3333333 11.9166667,18.128 11.9166667,17.875 L11.9166667,11.4583333 C11.9166667,11.2053333 12.122,11 12.375,11 C12.628,11 12.8333333,11.2053333 12.8333333,11.4583333 L12.8333333,17.875 C12.8333333,18.128 12.628,18.3333333 12.375,18.3333333 Z" id="Shape"></path>
                        <path d="M18.7916667,18.3333333 C18.5386667,18.3333333 18.3333333,18.128 18.3333333,17.875 L18.3333333,7.79166667 C18.3333333,7.53866667 18.5386667,7.33333333 18.7916667,7.33333333 C19.0446667,7.33333333 19.25,7.53866667 19.25,7.79166667 L19.25,17.875 C19.25,18.128 19.0446667,18.3333333 18.7916667,18.3333333 Z" id="Shape"></path>
                        <path d="M8.25,12.375 C8.13266667,12.375 8.01533333,12.3300833 7.9255,12.2411667 C7.74675,12.0624167 7.74675,11.7718333 7.9255,11.5930833 L10.6755,8.84308333 C10.85425,8.66433333 11.1448333,8.66433333 11.3235833,8.84308333 C11.5023333,9.02183333 11.5023333,9.31241667 11.3235833,9.49116667 L8.57358333,12.2411667 C8.48466667,12.3300833 8.36733333,12.375 8.25,12.375 Z" id="Shape"></path>
                        <path d="M14.2083333,7.33333333 C14.0598333,7.33333333 13.915,7.26183333 13.8260833,7.12891667 C13.6858333,6.91808333 13.7426667,6.63391667 13.9535,6.49366667 L16.7035,4.66033333 C16.9143333,4.51916667 17.1994167,4.57691667 17.33875,4.78775 C17.479,4.99858333 17.4221667,5.28275 17.2113333,5.423 L14.4613333,7.25633333 C14.3843333,7.30858333 14.2963333,7.33333333 14.2083333,7.33333333 Z" id="Shape"></path>
                    </g>
                </g>
            </g>
        </g>
    </g>
</svg>