<svg  viewBox="0 0 22 20" version="1.1" xmlns="http://www.w3.org/2000/svg" xmlns:xlink="http://www.w3.org/1999/xlink">
  <g id="Page-1" stroke="none" stroke-width="1" fill="none" fill-rule="evenodd">
        <g id="Home" transform="translate(-27.000000, -866.000000)" fill="#000000" fill-rule="nonzero">
            <g id="Bars/Tab-Bar/5-Items" transform="translate(0.000000, 855.000000)">
                <g id="Item-1" transform="translate(14.000000, 5.000000)">
                    <g id="Active-Icon" transform="translate(11.000000, 0.000000)">
                        <g id="house.1" transform="translate(2.000000, 6.000000)">
                            <path d="M20.9583846,9.22 L12.012,0.409166667 C11.4679231,-0.1275 10.516,-0.128333333 9.97023077,0.409166667 L0.961230769,9.28166667 C0.840230769,9.40083333 0.803846154,9.58 0.869846154,9.73583333 C0.935,9.89166667 1.08984615,9.99333333 1.26076923,9.99333333 L2.53,9.99333333 L2.53,19.5766667 C2.53,19.8066667 2.71953846,19.9933333 2.95307692,19.9933333 L8.03,19.9933333 C8.26353846,19.9933333 8.45307692,19.8066667 8.45307692,19.5766667 L8.45307692,12.4933333 L13.53,12.4933333 L13.53,19.5766667 C13.53,19.8066667 13.7195385,19.9933333 13.9530769,19.9933333 L19.03,19.9933333 C19.2635385,19.9933333 19.4530769,19.8066667 19.4530769,19.5766667 L19.4530769,9.9925 L20.7307692,9.9925 C20.9803846,9.99 21.1631538,9.80916667 21.1623077,9.57583333 C21.1614615,9.425 21.0802308,9.29333333 20.9583846,9.22 Z" id="Shape"></path>
                        </g>
                    </g>
                </g>
            </g>
        </g>
    </g>
</svg>