<svg version="1.1" xmlns="http://www.w3.org/2000/svg" xmlns:xlink="http://www.w3.org/1999/xlink" 
	 viewBox="0 0 18 23" xml:space="preserve">
<g id="Page-1" stroke="none" stroke-width="1" fill="none" fill-rule="evenodd">
        <g id="Home" transform="translate(-104.000000, -864.000000)" fill="#000000" fill-rule="nonzero">
            <g id="Bars/Tab-Bar/5-Items" transform="translate(0.000000, 855.000000)">
                <g id="Item-2" transform="translate(89.000000, 8.000000)">
                    <g id="global-network" transform="translate(15.000000, 1.000000)">
                        <path d="M15.75,21.0833333 L10.875,21.0833333 L10.875,20.7 C10.875,20.4884 10.707,20.3166667 10.5,20.3166667 L10.125,20.3166667 L10.125,19.9333333 C10.125,19.7217333 9.957,19.55 9.75,19.55 L9.375,19.55 L9.375,17.9975 C13.956,17.7943333 17.625,13.9318667 17.625,9.2 C17.625,4.33856667 13.75575,0.383333333 9,0.383333333 C8.85075,0.383333333 8.7045,0.398666667 8.55675,0.406333333 C8.52075,0.394833333 8.48475,0.383333333 8.445,0.383333333 C8.38875,0.383333333 8.337,0.3979 8.289,0.420133333 C3.8655,0.7912 0.375,4.58313333 0.375,9.2 C0.375,13.9318667 4.04325,17.7943333 8.625,17.9975 L8.625,19.55 L8.25,19.55 C8.043,19.55 7.875,19.7217333 7.875,19.9333333 L7.875,20.3166667 L7.5,20.3166667 C7.293,20.3166667 7.125,20.4884 7.125,20.7 L7.125,21.0833333 L2.25,21.0833333 C2.043,21.0833333 1.875,21.2550667 1.875,21.4666667 C1.875,21.6782667 2.043,21.85 2.25,21.85 L7.125,21.85 L7.125,22.2333333 C7.125,22.4449333 7.293,22.6166667 7.5,22.6166667 L10.5,22.6166667 C10.707,22.6166667 10.875,22.4449333 10.875,22.2333333 L10.875,21.85 L15.75,21.85 C15.957,21.85 16.125,21.6782667 16.125,21.4666667 C16.125,21.2550667 15.957,21.0833333 15.75,21.0833333 Z M11.2755,16.9042333 C11.40675,16.7049 11.532,16.4695333 11.6085,16.2111667 C11.724,15.8217 11.78475,14.5022667 11.59575,14.0369 C11.4075,13.5730667 10.87875,13.2855667 10.3185,12.9804333 C9.96525,12.788 9.37425,12.4667667 9.366,12.3257 C9.393,12.2544 9.55875,12.0589 9.65775,11.9423667 C9.91875,11.6349333 10.12425,11.3919 10.12425,11.1166667 C10.12425,10.557 9.82875,10.0540667 9.3915,9.58256667 C9.92625,9.92986667 10.455,10.2043333 10.731,10.3208667 C11.07675,10.4673 11.547,10.4090333 12.04425,10.3477 C12.38925,10.3047667 12.819,10.2518667 12.975,10.3185667 C13.03425,10.3515333 13.1715,10.5225 13.2525,10.6237 C13.39275,10.7985 13.524,10.9625667 13.677,11.0591667 C13.99125,11.2577333 14.3805,11.2523667 14.76,11.2462333 C15.01575,11.2424 15.37125,11.2370333 15.44475,11.3413 C15.64875,11.6311 15.5715,12.8025667 15.38175,13.7210333 C15.36975,13.7793 15.37425,13.8352667 15.387,13.8897 C14.388,15.3095667 12.95175,16.3859667 11.2755,16.9042333 Z M5.17875,3.22536667 C5.076,3.08046667 4.9185,2.967 4.76625,2.85813333 C4.68075,2.7968 4.542,2.69713333 4.497,2.63963333 C4.49625,2.62966667 4.49025,2.622 4.48875,2.61203333 C5.505,1.88293333 6.696,1.3961 7.9845,1.22513333 C7.98225,1.23586667 7.98,1.2466 7.977,1.25733333 C7.87575,1.6813 7.77075,2.11906667 7.9035,2.4472 C7.9695,2.60896667 8.4225,3.43313333 8.9835,3.43313333 C9.249,3.43313333 9.48975,3.22843333 9.7935,2.97006667 C9.882,2.89493333 10.01625,2.7807 10.10625,2.7186 C10.17,2.7876 10.254,2.9049 10.30575,2.9762 C10.41975,3.13413333 10.527,3.28363333 10.65525,3.37793333 C10.8045,3.48833333 10.98975,3.56653333 11.169,3.64243333 C11.28525,3.69226667 11.48175,3.77506667 11.57775,3.84406667 C11.511,3.90156667 11.41425,3.9721 11.3475,4.0204 C11.18925,4.1354 11.03925,4.24426667 10.9455,4.3769 C10.7235,4.692 10.5495,5.1888 10.365,5.71473333 C10.14,6.3526 9.861,7.14686667 9.5865,7.32626667 C9.50625,7.3439 9.2505,7.28793333 9.09825,7.25496667 C8.6775,7.16373333 8.1,7.03723333 7.90425,7.521 C7.76775,7.8568 7.8975,8.18953333 8.10825,8.48086667 C7.94325,8.3582 7.77675,8.2363 7.61025,8.11516667 C6.90825,7.60456667 6.24525,7.1231 5.93025,6.6769 C5.85075,6.5642 5.715,6.40473333 5.56125,6.2261 C5.33325,5.96083333 4.9095,5.46786667 4.866,5.28003333 C4.8375,5.15583333 4.96875,4.84916667 5.06475,4.6253 C5.259,4.16836667 5.48025,3.6524 5.17875,3.22536667 Z M16.875,9.2 C16.875,10.2511 16.671,11.2531333 16.311,12.1739 C16.3155,11.6717333 16.2585,11.1826 16.05375,10.8920333 C15.753,10.4642333 15.21375,10.4703667 14.75025,10.4795667 C14.493,10.4841667 14.20125,10.488 14.07225,10.4067333 C14.02425,10.3745333 13.9095,10.2319333 13.83375,10.1376333 C13.66275,9.9245 13.48725,9.70523333 13.269,9.6117 C12.92325,9.46603333 12.45375,9.52353333 11.95575,9.58486667 C11.61075,9.6278 11.18325,9.68146667 11.019,9.6117 C10.0665,9.20766667 8.871,8.35053333 8.637,7.94266667 C8.73675,7.958 8.856,7.98406667 8.9415,8.00323333 C9.32025,8.08526667 9.67575,8.1627 9.94725,7.99173333 C10.47825,7.65593333 10.779,6.80033333 11.07,5.97233333 C11.22975,5.51923333 11.394,5.0508 11.553,4.8254 C11.583,4.7886 11.703,4.70043333 11.78325,4.64293333 C12.0735,4.4321 12.43425,4.16913333 12.3705,3.77046667 C12.29325,3.28746667 11.829,3.09043333 11.45625,2.93173333 C11.31675,2.8727 11.17275,2.81213333 11.09625,2.75463333 C11.058,2.72473333 10.9695,2.6013 10.911,2.51926667 C10.7055,2.2379 10.47525,1.91666667 10.125,1.91666667 C9.8595,1.91666667 9.61875,2.12136667 9.315,2.37973333 C9.21825,2.46176667 9.06825,2.58903333 8.979,2.6473 C8.8605,2.56373333 8.66025,2.31073333 8.59725,2.1551 C8.56125,2.04316667 8.655,1.65063333 8.706,1.43903333 C8.72925,1.3432 8.74875,1.25196667 8.76825,1.16226667 C8.8455,1.15996667 8.92125,1.15 9,1.15 C13.3425,1.15 16.875,4.761 16.875,9.2 Z M1.125,9.2 C1.125,6.75203333 2.2035,4.55936667 3.8955,3.08123333 C4.014,3.24376667 4.182,3.3741 4.335,3.4845 C4.4175,3.54353333 4.54125,3.63323333 4.5705,3.67386667 C4.6155,3.75743333 4.4475,4.1492 4.37625,4.31556667 C4.215,4.692 4.0485,5.0807 4.13475,5.4533 C4.21425,5.80136667 4.542,6.20233333 4.9965,6.73056667 C5.13075,6.8862 5.25075,7.02496667 5.3205,7.1231 C5.70825,7.6728 6.42075,8.1903 7.1745,8.7377 C8.20575,9.4875 9.375,10.3362 9.3825,11.0561 C9.3555,11.1274 9.18975,11.3229 9.09075,11.4394333 C8.8305,11.7484 8.625,11.9914333 8.625,12.2666667 C8.625,12.9267667 9.30675,13.2986 9.96675,13.6566333 C10.34625,13.8628667 10.81875,14.1197 10.9035,14.3297667 C10.99425,14.5528667 10.98525,15.6691333 10.89075,15.9888333 C10.734,16.5186 10.2555,16.9586667 10.251,16.9632667 C10.19325,17.0154 10.16175,17.0836333 10.14375,17.1549333 C9.7695,17.2109 9.39,17.25 9,17.25 C4.6575,17.25 1.125,13.639 1.125,9.2 Z M10.125,21.85 L7.875,21.85 L7.875,21.0833333 L8.25,21.0833333 C8.457,21.0833333 8.625,20.9116 8.625,20.7 L8.625,20.3166667 L9.375,20.3166667 L9.375,20.7 C9.375,20.9116 9.543,21.0833333 9.75,21.0833333 L10.125,21.0833333 L10.125,21.85 Z" id="Shape"></path>
                    </g>
                </g>
            </g>
        </g>
    </g>
</svg>