<svg version="1.1" xmlns="http://www.w3.org/2000/svg" xmlns:xlink="http://www.w3.org/1999/xlink" 
	 viewBox="0 0 18 22" xml:space="preserve">
    <g id="Page-1" stroke="none" stroke-width="1" fill="none" fill-rule="evenodd">
        <g id="Home" transform="translate(-104.000000, -865.000000)" fill="#000000" fill-rule="nonzero">
            <g id="Bars/Tab-Bar/5-Items" transform="translate(0.000000, 855.000000)">
                <g id="Item-2" transform="translate(89.000000, 9.000000)">
                    <g id="global-network.1" transform="translate(15.000000, 1.000000)">
                        <path d="M16.0821,13.5813333 C17.0082,12.1898333 17.55,10.5123333 17.55,8.70833333 C17.55,3.90683333 13.7142,0 9,0 C8.9082,0 8.82,0.011 8.7291,0.01375 C8.6652,0.00183333333 8.6022,0.00733333333 8.5383,0.0238333333 C4.0392,0.270416667 0.45,4.06541667 0.45,8.70833333 C0.45,13.5098333 4.2858,17.4166667 9,17.4166667 C9.3627,17.4166667 9.7173,17.3864167 10.0683,17.3415 C10.0719,17.3415 10.0755,17.34425 10.08,17.34425 C10.0908,17.34425 10.1016,17.336 10.1124,17.3350833 C12.5478,17.0105833 14.6619,15.6438333 16.0074,13.6849167 C16.0371,13.6528333 16.0623,13.6198333 16.0821,13.5813333 Z M16.65,8.70833333 C16.65,9.52416667 16.5249,10.30975 16.2963,11.0495 C16.2621,10.7195 16.1919,10.4261667 16.0569,10.2345833 C15.7626,9.81841667 15.1551,9.70383333 14.5674,9.59291667 C14.2893,9.54066667 13.9428,9.47558333 13.8186,9.39675 C13.7772,9.3665 13.68,9.24458333 13.6152,9.16483333 C13.4487,8.95675 13.2777,8.74225 13.0464,8.64416667 C12.7485,8.51858333 12.2742,8.54883333 11.763,8.613 C11.3832,8.66158333 10.9656,8.657 10.9341,8.64416667 C10.2834,8.36916667 9.4221,7.69633333 9.1503,7.30033333 C9.1917,7.3095 9.2331,7.31866667 9.2736,7.32691667 C9.648,7.40941667 10.0422,7.4635 10.2942,7.30583333 C10.8306,6.9685 11.1141,6.15633333 11.3886,5.37075 C11.5344,4.95366667 11.6847,4.52191667 11.8242,4.32391667 C11.8521,4.29275 11.9556,4.2185 12.024,4.169 C12.303,3.96916667 12.6846,3.69508333 12.6153,3.25508333 C12.5307,2.72525 11.9637,2.552 11.4642,2.39891667 C11.3139,2.35308333 11.0862,2.28341667 11.0313,2.244 C10.9998,2.21558333 10.9242,2.11108333 10.8747,2.04141667 C10.6812,1.77191667 10.4409,1.4355 10.0584,1.4355 C9.6894,1.4355 9.4806,1.76366667 9.3285,2.00291667 C9.3168,2.0185 9.306,2.035 9.2943,2.05333333 C9.2025,1.95341667 9.1017,1.81133333 9.0639,1.71783333 C9.0126,1.59225 9.0504,1.14583333 9.0693,0.920333333 C13.2552,0.958833333 16.65,4.43575 16.65,8.70833333 Z M1.35,8.70833333 C1.35,6.34883333 2.3886,4.235 4.0212,2.805 C4.1994,2.87466667 4.3992,2.89758333 4.545,2.91316667 C4.6125,2.91958333 4.7106,2.93058333 4.7808,2.9425 C4.815,3.1295 4.7565,3.55116667 4.7241,3.79133333 C4.6692,4.18916667 4.6179,4.56408333 4.6881,4.86841667 C4.7988,5.34691667 5.2182,6.11691667 5.4648,6.46616667 C5.841,6.99783333 6.5646,7.53591667 7.3305,8.10425 C8.289,8.8165 9.4689,9.69375 9.5958,10.384 C9.5535,10.41425 9.5013,10.4490833 9.4608,10.4756667 C9.225,10.6305833 8.9028,10.84325 8.9028,11.22 C8.9028,11.8790833 9.5625,12.3493333 10.1997,12.8049167 C10.5255,13.03775 10.9719,13.35675 11.0502,13.5474167 C11.1294,13.7426667 11.1204,14.38525 11.0349,14.6749167 C10.935,15.0113333 10.3176,15.8665833 9.8487,16.4505 C9.5697,16.48075 9.2871,16.5 9,16.5 C4.7817,16.5 1.35,13.00475 1.35,8.70833333 Z" id="Shape"></path>
                        <path d="M10.8,19.25 L10.35,19.25 L10.35,18.7916667 C10.35,18.5386667 10.1484,18.3333333 9.9,18.3333333 L8.1,18.3333333 C7.8516,18.3333333 7.65,18.5386667 7.65,18.7916667 L7.65,19.25 L7.2,19.25 C6.9516,19.25 6.75,19.4553333 6.75,19.7083333 L6.75,21.5416667 C6.75,21.7946667 6.9516,22 7.2,22 L10.8,22 C11.0484,22 11.25,21.7946667 11.25,21.5416667 L11.25,19.7083333 C11.25,19.4553333 11.0484,19.25 10.8,19.25 Z" id="Shape"></path>
                        <path d="M9,19.25 C8.7516,19.25 8.55,19.0446667 8.55,18.7916667 L8.55,16.9583333 C8.55,16.7053333 8.7516,16.5 9,16.5 C9.2484,16.5 9.45,16.7053333 9.45,16.9583333 L9.45,18.7916667 C9.45,19.0446667 9.2484,19.25 9,19.25 Z" id="Shape"></path>
                        <path d="M15.3,21.0833333 L10.8,21.0833333 C10.5516,21.0833333 10.35,20.878 10.35,20.625 C10.35,20.372 10.5516,20.1666667 10.8,20.1666667 L15.3,20.1666667 C15.5484,20.1666667 15.75,20.372 15.75,20.625 C15.75,20.878 15.5484,21.0833333 15.3,21.0833333 Z" id="Shape"></path>
                        <path d="M7.2,21.0833333 L2.7,21.0833333 C2.4516,21.0833333 2.25,20.878 2.25,20.625 C2.25,20.372 2.4516,20.1666667 2.7,20.1666667 L7.2,20.1666667 C7.4484,20.1666667 7.65,20.372 7.65,20.625 C7.65,20.878 7.4484,21.0833333 7.2,21.0833333 Z" id="Shape"></path>
                    </g>
                </g>
            </g>
        </g>
    </g>
</svg>