<svg version="1.1"  xmlns="http://www.w3.org/2000/svg" xmlns:xlink="http://www.w3.org/1999/xlink" 
	 viewBox="0 0 23 22"  xml:space="preserve">
<g id="Page-1" stroke="none" stroke-width="1" fill="none" fill-rule="evenodd">
        <g id="Home" transform="translate(-176.000000, -865.000000)" fill="#000000" fill-rule="nonzero">
            <g id="Bars/Tab-Bar/5-Items" transform="translate(0.000000, 855.000000)">
                <g id="Item-3" transform="translate(163.500000, 7.000000)">
                    <g id="dot-chart.1" transform="translate(13.000000, 3.000000)">
                        <path d="M1.83333333,22 C1.61333333,22 1.46666667,21.8533333 1.46666667,21.6333333 L1.46666667,0.366666667 C1.46666667,0.146666667 1.61333333,0 1.83333333,0 C2.05333333,0 2.2,0.146666667 2.2,0.366666667 L2.2,21.6333333 C2.2,21.8533333 2.05333333,22 1.83333333,22 Z" id="Shape"></path>
                        <path d="M21.6333333,20.5333333 L0.366666667,20.5333333 C0.146666667,20.5333333 0,20.3866667 0,20.1666667 C0,19.9466667 0.146666667,19.8 0.366666667,19.8 L21.6333333,19.8 C21.8533333,19.8 22,19.9466667 22,20.1666667 C22,20.3866667 21.8533333,20.5333333 21.6333333,20.5333333 Z" id="Shape"></path>
                        <path d="M6.96666667,18.3333333 C6.74666667,18.3333333 6.6,18.1866667 6.6,17.9666667 L6.6,17.2333333 C6.6,17.0133333 6.74666667,16.8666667 6.96666667,16.8666667 C7.18666667,16.8666667 7.33333333,17.0133333 7.33333333,17.2333333 L7.33333333,17.9666667 C7.33333333,18.1866667 7.18666667,18.3333333 6.96666667,18.3333333 Z" id="Shape"></path>
                        <path d="M12.8333333,18.3333333 C12.6133333,18.3333333 12.4666667,18.1866667 12.4666667,17.9666667 L12.4666667,11.3666667 C12.4666667,11.1466667 12.6133333,11 12.8333333,11 C13.0533333,11 13.2,11.1466667 13.2,11.3666667 L13.2,17.9666667 C13.2,18.1866667 13.0533333,18.3333333 12.8333333,18.3333333 Z" id="Shape"></path>
                        <path d="M19.4333333,18.3333333 C19.2133333,18.3333333 19.0666667,18.1866667 19.0666667,17.9666667 L19.0666667,8.06666667 C19.0666667,7.84666667 19.2133333,7.7 19.4333333,7.7 C19.6533333,7.7 19.8,7.84666667 19.8,8.06666667 L19.8,17.9666667 C19.8,18.1866667 19.6533333,18.3333333 19.4333333,18.3333333 Z" id="Shape"></path>
                        <path d="M6.6,15.4 C5.35333333,15.4 4.4,14.4466667 4.4,13.2 C4.4,11.9533333 5.35333333,11 6.6,11 C7.84666667,11 8.8,11.9533333 8.8,13.2 C8.8,14.4466667 7.84666667,15.4 6.6,15.4 Z M6.6,11.7333333 C5.79333333,11.7333333 5.13333333,12.3933333 5.13333333,13.2 C5.13333333,14.0066667 5.79333333,14.6666667 6.6,14.6666667 C7.40666667,14.6666667 8.06666667,14.0066667 8.06666667,13.2 C8.06666667,12.3933333 7.40666667,11.7333333 6.6,11.7333333 Z" id="Shape"></path>
                        <path d="M12.4666667,9.53333333 C11.22,9.53333333 10.2666667,8.58 10.2666667,7.33333333 C10.2666667,6.08666667 11.22,5.13333333 12.4666667,5.13333333 C13.7133333,5.13333333 14.6666667,6.08666667 14.6666667,7.33333333 C14.6666667,8.58 13.7133333,9.53333333 12.4666667,9.53333333 Z M12.4666667,5.86666667 C11.66,5.86666667 11,6.52666667 11,7.33333333 C11,8.14 11.66,8.8 12.4666667,8.8 C13.2733333,8.8 13.9333333,8.14 13.9333333,7.33333333 C13.9333333,6.52666667 13.2733333,5.86666667 12.4666667,5.86666667 Z" id="Shape"></path>
                        <path d="M19.0666667,5.86666667 C17.82,5.86666667 16.8666667,4.91333333 16.8666667,3.66666667 C16.8666667,2.42 17.82,1.46666667 19.0666667,1.46666667 C20.3133333,1.46666667 21.2666667,2.42 21.2666667,3.66666667 C21.2666667,4.91333333 20.3133333,5.86666667 19.0666667,5.86666667 Z M19.0666667,2.2 C18.26,2.2 17.6,2.86 17.6,3.66666667 C17.6,4.47333333 18.26,5.13333333 19.0666667,5.13333333 C19.8733333,5.13333333 20.5333333,4.47333333 20.5333333,3.66666667 C20.5333333,2.86 19.8733333,2.2 19.0666667,2.2 Z" id="Shape"></path>
                        <path d="M8.06666667,12.1 C7.99333333,12.1 7.84666667,12.1 7.77333333,12.0266667 C7.62666667,11.88 7.62666667,11.66 7.77333333,11.5133333 L10.7066667,8.58 C10.8533333,8.43333333 11.0733333,8.43333333 11.22,8.58 C11.3666667,8.72666667 11.3666667,8.94666667 11.22,9.09333333 L8.28666667,12.0266667 C8.28666667,12.1 8.14,12.1 8.06666667,12.1 Z" id="Shape"></path>
                        <path d="M14.3,6.96666667 C14.1533333,6.96666667 14.08,6.89333333 14.0066667,6.82 C13.86,6.6 13.9333333,6.38 14.08,6.30666667 L17.0133333,4.47333333 C17.16,4.4 17.38,4.4 17.5266667,4.62 C17.6,4.76666667 17.6,4.98666667 17.38,5.13333333 L14.4466667,6.96666667 C14.4466667,6.96666667 14.3733333,6.96666667 14.3,6.96666667 Z" id="Shape"></path>
                    </g>
                </g>
            </g>
        </g>
    </g>
</svg>