<svg version="1.1" xmlns="http://www.w3.org/2000/svg" xmlns:xlink="http://www.w3.org/1999/xlink"
	 viewBox="0 0 27 23" style="enable-background:new 0 0 30 30;" xml:space="preserve">
<g id="Page-1" stroke="none" stroke-width="1" fill="none" fill-rule="evenodd">
        <g id="Home" transform="translate(-249.000000, -865.000000)" fill="#000000" fill-rule="nonzero">
            <g id="Bars/Tab-Bar/5-Items" transform="translate(0.000000, 855.000000)">
                <g id="Item-4" transform="translate(238.000000, 5.000000)">
                    <g id="Icon" transform="translate(10.000000, 0.000000)">
                        <g id="speech-bubbles.4" transform="translate(1.000000, 5.000000)">
                            <g id="speech-bubbles.6">
                                <path d="M8.55,7.51923077 C3.8358,7.51923077 0,10.4915385 0,14.145 C0,16.1291923 1.1691,18.0213846 3.1482,19.274 L1.845,21.9234231 C1.7577,22.1003462 1.8,22.3117692 1.9485,22.4435769 C2.0331,22.5187692 2.1411,22.5576923 2.25,22.5576923 C2.331,22.5576923 2.412,22.5364615 2.4849,22.4922308 L5.9004,20.4390385 C6.7671,20.6584231 7.6572,20.7698846 8.55,20.7698846 C13.2642,20.7698846 17.1,17.7975769 17.1,14.145 C17.1,10.4915385 13.2642,7.51923077 8.55,7.51923077 Z M23.4081,15.0570385 C25.6968,13.4762308 27,11.1930385 27,8.7285 C27,4.16034615 22.4685,0.442307692 16.8984,0.442307692 C12.5784,0.442307692 8.7399,2.69896154 7.3467,6.05696154 C7.2882,6.19938462 7.308,6.35861538 7.398,6.48246154 C7.4889,6.60630769 7.6473,6.67530769 7.7922,6.66557692 C8.0433,6.65053846 8.2944,6.63461538 8.55,6.63461538 C13.761,6.63461538 18,10.0041154 18,14.145 C18,14.8411923 17.8722,15.5426923 17.622,16.2300385 C17.5635,16.3910385 17.604,16.5706154 17.7273,16.6918077 L17.8452,16.8085769 C17.9415,16.9041154 18.0783,16.951 18.2133,16.9359615 C19.1349,16.836 20.0232,16.6387308 20.8548,16.3476923 L24.5556,18.0912692 C24.6177,18.1204615 24.6843,18.1346154 24.75,18.1346154 C24.8796,18.1346154 25.0065,18.0797692 25.0938,17.9780385 C25.2261,17.8241154 25.236,17.6020769 25.1181,17.4375385 L23.4081,15.0570385 Z" id="Shape"></path>
                            </g>
                        </g>
                    </g>
                </g>
            </g>
        </g>
    </g>
</svg>