<svg version="1.1" xmlns="http://www.w3.org/2000/svg" xmlns:xlink="http://www.w3.org/1999/xlink"
	 viewBox="0 0 27 22" style="enable-background:new 0 0 30 30;" xml:space="preserve">
<g id="Page-1" stroke="none" stroke-width="1" fill="none" fill-rule="evenodd">
        <g id="Home" transform="translate(-249.000000, -865.000000)" fill="#000000" fill-rule="nonzero">
            <g id="Bars/Tab-Bar/5-Items" transform="translate(0.000000, 855.000000)">
                <g id="Item-4" transform="translate(238.000000, 5.000000)">
                    <g id="Icon" transform="translate(10.000000, 0.000000)">
                        <g id="speech-bubbles.4" transform="translate(1.000000, 5.000000)">
                            <path d="M23.52825,14.5299 C25.741125,12.958 27,10.6931 27,8.25 C27,3.7004 22.584375,0 17.15625,0 C12.7755,0 8.98875,2.3617 7.731,5.8762 C7.628625,6.1633 7.78275,6.4768 8.076375,6.5769 C8.37,6.677 8.6895,6.5252 8.793,6.2392 C9.87525,3.2131 13.314375,1.1 17.15625,1.1 C21.963375,1.1 25.875,4.3076 25.875,8.25 C25.875,10.4632 24.64425,12.518 22.498875,13.8886 C22.25925,14.0415 22.176,14.3451 22.303125,14.5948 L22.85325,15.6717 L21.261375,14.7818 C21.114,14.6993 20.9385,14.6883 20.779875,14.7455 C20.00925,15.0359 19.17675,15.2328 18.30825,15.3296 C18,15.3637 17.778375,15.6365 17.81325,15.9379 C17.848125,16.2393 18.115875,16.4582 18.435375,16.4219 C19.305,16.3262 20.143125,16.1381 20.930625,15.8642 L23.907375,17.5274 C23.995125,17.5769 24.09075,17.6 24.186375,17.6 C24.327,17.6 24.4665,17.5483 24.573375,17.4493 C24.753375,17.2832 24.80175,17.0203 24.690375,16.8036 L23.52825,14.5299 Z M8.4375,7.6989 C3.7845,7.6989 0,10.659 0,14.2989 C0,16.2602 1.132875,18.1291 3.054375,19.3765 L2.289375,21.2454 C2.20275,21.4577 2.259,21.6997 2.431125,21.8548 C2.536875,21.9505 2.673,22 2.811375,22 C2.896875,22 2.9835,21.9813 3.0645,21.9417 L5.853375,20.5777 C6.699375,20.7911 7.567875,20.8989 8.4375,20.8989 C13.0905,20.8989 16.875,17.9388 16.875,14.2989 C16.875,10.659 13.0905,7.6989 8.4375,7.6989 Z M8.43525,19.8 C7.594875,19.8 6.75675,19.6867 5.943375,19.4634 C5.808375,19.4271 5.664375,19.4392 5.5395,19.5008 L3.882375,20.3104 L4.27275,19.3578 C4.37625,19.1048 4.275,18.8166 4.03425,18.6791 C2.18475,17.6231 1.123875,16.027 1.123875,14.3 C1.123875,11.2673 4.404375,8.8 8.436375,8.8 C12.468375,8.8 15.74775,11.2673 15.74775,14.3 C15.74775,17.3327 12.46725,19.8 8.43525,19.8 Z" id="Shape"></path>
                        </g>
                    </g>
                </g>
            </g>
        </g>
    </g>
</svg>