<svg version="1.1" xmlns="http://www.w3.org/2000/svg" viewBox="0 0 512 512">
<title></title>
<g id="icomoon-ignore">
</g>
<path fill="#000" d="M467.819 431.851l-36.651-61.056c-16.896-28.181-25.835-60.437-25.835-93.312v-53.483c0-82.325-67.008-149.333-149.333-149.333s-149.333 67.008-149.333 149.333v53.483c0 32.875-8.939 65.131-25.835 93.312l-36.651 61.056c-1.984 3.285-2.027 7.403-0.149 10.731 1.899 3.349 5.461 5.419 9.301 5.419h405.333c3.84 0 7.403-2.069 9.301-5.419 1.878-3.329 1.836-7.446-0.148-10.731zM72.171 426.667l26.944-44.907c18.901-31.488 28.885-67.541 28.885-104.277v-53.483c0-70.592 57.408-128 128-128s128 57.408 128 128v53.483c0 36.736 9.984 72.789 28.864 104.277l26.965 44.907h-367.658z"></path>
<path fill="#000" d="M256 0c-23.531 0-42.667 19.136-42.667 42.667v42.667c0 5.887 4.779 10.666 10.667 10.666s10.667-4.779 10.667-10.667v-42.666c0-11.776 9.557-21.333 21.333-21.333s21.333 9.557 21.333 21.333v42.667c0 5.887 4.779 10.666 10.667 10.666s10.667-4.779 10.667-10.667v-42.666c0-23.531-19.136-42.667-42.667-42.667z"></path>
<path fill="#000" d="M302.165 431.936c-3.008-5.077-9.515-6.741-14.613-3.819-5.099 2.987-6.805 9.536-3.819 14.613 2.773 4.715 4.288 10.368 4.288 15.936 0 17.643-14.357 32-32 32s-32-14.357-32-32c0-5.568 1.515-11.221 4.288-15.936 2.965-5.099 1.259-11.627-3.819-14.613-5.141-2.923-11.627-1.259-14.613 3.819-4.715 8.064-7.211 17.301-7.211 26.731 0.001 29.418 23.915 53.333 53.334 53.333s53.333-23.915 53.376-53.333c0-9.43-2.496-18.667-7.211-26.731z"></path>
</svg>