<svg  viewBox="0 0 20 20" version="1.1" xmlns="http://www.w3.org/2000/svg" xmlns:xlink="http://www.w3.org/1999/xlink">
  <g id="Page-1" stroke="none" stroke-width="1" fill="none" fill-rule="evenodd">
        <g id="Home" transform="translate(-28.000000, -866.000000)" fill="#000000" fill-rule="nonzero">
            <g id="Bars/Tab-Bar/5-Items" transform="translate(0.000000, 855.000000)">
                <g id="Item-1" transform="translate(14.000000, 5.000000)">
                    <g id="Active-Icon" transform="translate(11.000000, 0.000000)">
                        <g id="house" transform="translate(3.000000, 6.000000)">
                            <path d="M19.8783333,9.28166667 L11.005,0.409166667 C10.4691667,-0.1275 9.5325,-0.128333333 8.99416667,0.409166667 L0.121666667,9.28166667 C0.0025,9.40083333 -0.0333333333,9.58 0.0316666667,9.73583333 C0.0958333333,9.89166667 0.248333333,9.99333333 0.416666667,9.99333333 L1.66666667,9.99333333 L1.66666667,19.5766667 C1.66666667,19.8066667 1.85333333,19.9933333 2.08333333,19.9933333 L7.08333333,19.9933333 C7.31333333,19.9933333 7.5,19.8066667 7.5,19.5766667 L7.5,12.4933333 L12.5,12.4933333 L12.5,19.5766667 C12.5,19.8066667 12.6866667,19.9933333 12.9166667,19.9933333 L17.9166667,19.9933333 C18.1466667,19.9933333 18.3333333,19.8066667 18.3325,19.5766667 L18.3325,9.99333333 L19.5825,9.99333333 C19.7508333,9.99333333 19.9033333,9.89166667 19.9675,9.73583333 C20.0325,9.58 19.9975,9.40083333 19.8783333,9.28166667 Z M17.9166667,9.16 C17.6866667,9.16 17.5,9.34666667 17.5,9.57666667 L17.5,19.16 L13.3341667,19.16 L13.3341667,12.0766667 C13.3341667,11.8466667 13.1475,11.66 12.9175,11.66 L7.08416667,11.66 C6.85416667,11.66 6.6675,11.8466667 6.6675,12.0766667 L6.6675,19.16 L2.50083333,19.16 L2.50083333,9.57666667 C2.50083333,9.34666667 2.31416667,9.16 2.08416667,9.16 L1.42333333,9.16 L9.58416667,0.999166667 C9.80416667,0.779166667 10.1958333,0.778333333 10.4166667,0.999166667 L18.5775,9.16 C18.5775,9.16 17.9166667,9.16 17.9166667,9.16 Z" id="Shape"></path>
                        </g>
                    </g>
                </g>
            </g>
        </g>
    </g>
</svg>