<?xml version="1.0" encoding="UTF-8" standalone="no"?>
<svg width="45px" height="50px" viewBox="0 0 45 50" version="1.1" xmlns="http://www.w3.org/2000/svg" xmlns:xlink="http://www.w3.org/1999/xlink">
    <!-- Generator: Sketch 40.2 (33826) - http://www.bohemiancoding.com/sketch -->
    <title>point01</title>
    <desc>Created with Sketch.</desc>
    <defs>
        <filter x="-50%" y="-50%" width="200%" height="200%" filterUnits="objectBoundingBox" id="filter-1">
            <feOffset dx="0" dy="3" in="SourceAlpha" result="shadowOffsetOuter1"></feOffset>
            <feGaussianBlur stdDeviation="2" in="shadowOffsetOuter1" result="shadowBlurOuter1"></feGaussianBlur>
            <feColorMatrix values="0 0 0 0 0   0 0 0 0 0   0 0 0 0 0  0 0 0 0.291468524 0" type="matrix" in="shadowBlurOuter1" result="shadowMatrixOuter1"></feColorMatrix>
            <feMerge>
                <feMergeNode in="shadowMatrixOuter1"></feMergeNode>
                <feMergeNode in="SourceGraphic"></feMergeNode>
            </feMerge>
        </filter>
    </defs>
    <g id="YOOBIC-iPhone-App-UI/UX" stroke="none" stroke-width="1" fill="none" fill-rule="evenodd">
        <g id="Map-01" transform="translate(-76.000000, -140.000000)" fill="#f76c6c">
            <g id="point01" filter="url(#filter-1)" transform="translate(80.000000, 141.000000)">
                <path d="M18.3167958,0 C15.9387525,0 13.6201403,0.441747751 11.4254765,1.31264439 C9.14942969,2.21608809 7.11030379,3.5418563 5.36485271,5.2532023 C1.90527229,8.64518459 5.1159077e-13,13.1550538 5.1159077e-13,17.9520721 C5.1159077e-13,22.743841 1.90125668,27.2495105 5.35414442,30.6401804 L15.7738449,41.0203339 C16.4415067,41.685449 17.3535852,42.0602653 18.3055521,42.0607903 L18.3071583,42.0607903 C19.2585898,42.0607903 20.1704006,41.6867614 20.8383301,41.0224337 L31.2778409,30.6420178 C34.7315317,27.2505604 36.6335915,22.7443659 36.6335915,17.9520721 C36.6335915,13.1550538 34.7283192,8.64518459 31.2687388,5.2532023 C29.5232877,3.5418563 27.4841618,2.21608809 25.208115,1.31264439 C23.0134512,0.441747751 20.694839,0 18.3167958,0"></path>
            </g>
        </g>
    </g>
</svg>