<svg xmlns="http://www.w3.org/2000/svg" width="494" height="128" viewBox="0 0 494 128">
  <defs>
    <linearGradient id="operations_landscape_light-a" x1="60.814%" x2="30.5%" y1="25.311%" y2="120.728%">
      <stop offset="0%" stop-color="#15DABA"/>
      <stop offset="32.609%" stop-color="#15DABA"/>
      <stop offset="93.747%" stop-color="#00FF78"/>
      <stop offset="100%" stop-color="#00FF78"/>
    </linearGradient>
    <linearGradient id="operations_landscape_light-b" x1="55.74%" x2="44.955%" y1="32.319%" y2="105.008%">
      <stop offset="0%" stop-color="#15DABA"/>
      <stop offset="32.609%" stop-color="#15DABA"/>
      <stop offset="93.747%" stop-color="#00C0C5"/>
      <stop offset="100%" stop-color="#00C0C5"/>
    </linearGradient>
  </defs>
  <g fill="none" fill-rule="evenodd">
    <path fill="#15DABA" fill-rule="nonzero" d="M41.334238,83.3663935 C52.0481601,95.8628619 70.8715873,97.3152024 83.3781035,86.6098878 C95.884223,75.9049696 97.3377313,57.0966652 86.6242057,44.5998006 C75.9102836,32.1037285 57.0868564,30.6517843 44.5803402,41.3567025 C32.0738241,52.0616208 30.6207124,70.8699251 41.334238,83.3663935 M15.3947677,105.569965 C-7.59128501,78.7589276 -4.47328183,38.4056576 22.3589162,15.4376758 C49.1915108,-7.52990975 89.5776234,-4.41441159 112.563676,22.3966256 C135.549729,49.2076628 132.431726,89.5609327 105.599131,112.528915 C78.7665363,135.4965 38.3808203,132.380606 15.3947677,105.569965" transform="matrix(1 0 0 -1 0 127.966)"/>
    <path d="M15.3868755,105.536466 C8.36323821,97.3443146 3.78260521,87.8856749 1.56724452,78.0454243 C1.61721506,78.1056578 1.66639242,78.165495 1.71755273,78.2253322 C22.1590737,102.068285 60.9465255,104.537858 82.2014558,87.5397286 L81.9698464,87.7402427 C81.9698464,87.7402427 82.3533504,87.425602 82.611135,87.2139922 C82.4762938,87.3245524 82.3378834,87.4307535 82.2014558,87.5397286 L82.4719313,87.3059275 C82.7816694,87.0610308 83.0910108,86.8153416 83.3940068,86.5565753 C95.9064718,75.8461093 97.3643426,57.0334459 86.650817,44.5369775 C77.7973061,34.2097074 63.4038071,31.4373816 51.6107592,36.8274867 C51.5155772,36.8702842 51.4203953,36.9146668 51.3256099,36.9586531 C51.0686185,37.07912 50.8124203,37.2023609 50.5586017,37.3311497 C50.2901092,37.4650899 50.0235996,37.6057668 49.7586764,37.7488214 C49.6595285,37.8027145 49.5607772,37.8546263 49.4624225,37.9097082 C48.9401114,38.1989875 48.420973,38.4985699 47.9121459,38.8223249 L28.7071976,10.6057074 C30.9705459,9.10581422 33.3036943,7.76601528 35.6907791,6.58631062 C35.7887373,6.53836159 35.8859022,6.49001629 35.9838603,6.4428598 C36.2721824,6.3021829 36.5616943,6.16586499 36.8512062,6.02994336 C37.093127,5.91740183 37.3350479,5.80406776 37.5781586,5.69430015 C37.6939633,5.64159584 37.8097681,5.5908729 37.9255728,5.53935741 C63.1103293,-5.64623995 93.6458997,0.401678245 112.485984,22.3766 C135.472036,49.1876372 132.343325,89.5500214 105.497643,112.528703 C104.65092,113.253882 103.78992,113.952908 102.917022,114.625779 L102.884501,114.584171 C93.2782593,121.991701 82.1562444,126.263128 70.8145178,127.499896 C70.7244915,127.509803 70.6340686,127.518521 70.5436457,127.528031 C70.2025769,127.563696 69.8615082,127.595794 69.5196462,127.625911 C69.1619206,127.65682 68.8034018,127.685748 68.4444864,127.710317 C68.3659612,127.716261 68.2862463,127.722601 68.2065314,127.728149 C66.8041835,127.820084 65.3974731,127.866052 63.9939354,127.866052 C45.9581391,127.866448 28.0373544,120.291294 15.3868755,105.536466" transform="matrix(1 0 0 -1 0 127.915)"/>
    <path fill="url(#operations_landscape_light-a)" fill-rule="nonzero" d="M15.3868755,105.536466 C8.36323821,97.3443146 3.78260521,87.8856749 1.56724452,78.0454243 C1.61721506,78.1056578 1.66639242,78.165495 1.71755273,78.2253322 C22.1590737,102.068285 60.9465255,104.537858 82.2014558,87.5397286 L81.9698464,87.7402427 C81.9698464,87.7402427 82.3533504,87.425602 82.611135,87.2139922 C82.4762938,87.3245524 82.3378834,87.4307535 82.2014558,87.5397286 L82.4719313,87.3059275 C82.7816694,87.0610308 83.0910108,86.8153416 83.3940068,86.5565753 C95.9064718,75.8461093 97.3643426,57.0334459 86.650817,44.5369775 C77.7973061,34.2097074 63.4038071,31.4373816 51.6107592,36.8274867 C51.5155772,36.8702842 51.4203953,36.9146668 51.3256099,36.9586531 C51.0686185,37.07912 50.8124203,37.2023609 50.5586017,37.3311497 C50.2901092,37.4650899 50.0235996,37.6057668 49.7586764,37.7488214 C49.6595285,37.8027145 49.5607772,37.8546263 49.4624225,37.9097082 C48.9401114,38.1989875 48.420973,38.4985699 47.9121459,38.8223249 L28.7071976,10.6057074 C30.9705459,9.10581422 33.3036943,7.76601528 35.6907791,6.58631062 C35.7887373,6.53836159 35.8859022,6.49001629 35.9838603,6.4428598 C36.2721824,6.3021829 36.5616943,6.16586499 36.8512062,6.02994336 C37.093127,5.91740183 37.3350479,5.80406776 37.5781586,5.69430015 C37.6939633,5.64159584 37.8097681,5.5908729 37.9255728,5.53935741 C63.1103293,-5.64623995 93.6458997,0.401678245 112.485984,22.3766 C135.472036,49.1876372 132.343325,89.5500214 105.497643,112.528703 C104.65092,113.253882 103.78992,113.952908 102.917022,114.625779 L102.884501,114.584171 C93.2782593,121.991701 82.1562444,126.263128 70.8145178,127.499896 C70.7244915,127.509803 70.6340686,127.518521 70.5436457,127.528031 C70.2025769,127.563696 69.8615082,127.595794 69.5196462,127.625911 C69.1619206,127.65682 68.8034018,127.685748 68.4444864,127.710317 C68.3659612,127.716261 68.2862463,127.722601 68.2065314,127.728149 C66.8041835,127.820084 65.3974731,127.866052 63.9939354,127.866052 C45.9581391,127.866448 28.0373544,120.291294 15.3868755,105.536466" transform="matrix(1 0 0 -1 0 127.915)"/>
    <path d="M1.71794933,97.0813482 C1.67035833,97.0266625 1.6247503,96.9711843 1.57914226,96.9157061 C-3.46233018,74.5373784 3.75048129,50.1713455 22.4172548,34.1932228 L28.7734284,29.4050564 L47.9744108,57.6252403 C48.079111,57.5590627 48.1853976,57.4972441 48.2912875,57.4326516 C47.0265569,58.2212348 45.8046582,59.112849 44.6382823,60.1114569 C32.1155058,70.8314335 30.6485135,89.6512298 41.362039,102.147698 C52.0755646,114.644167 70.9128725,116.084619 83.4360455,105.365039 L83.4523058,105.363057 C83.1489132,105.622616 82.8391751,105.868701 82.5290405,106.113994 L82.2581684,106.347796 C73.1456832,113.636048 60.8235821,117.355466 48.1013201,117.354674 C31.1093529,117.353089 13.4070902,110.715913 1.71794933,97.0813482" transform="matrix(1 0 0 -1 0 146.76)"/>
    <path fill="url(#operations_landscape_light-b)" fill-rule="nonzero" d="M1.71794933,97.0813482 C1.67035833,97.0266625 1.6247503,96.9711843 1.57914226,96.9157061 C-3.46233018,74.5373784 3.75048129,50.1713455 22.4172548,34.1932228 L28.7734284,29.4050564 L47.9744108,57.6252403 C48.079111,57.5590627 48.1853976,57.4972441 48.2912875,57.4326516 C47.0265569,58.2212348 45.8046582,59.112849 44.6382823,60.1114569 C32.1155058,70.8314335 30.6485135,89.6512298 41.362039,102.147698 C52.0755646,114.644167 70.9128725,116.084619 83.4360455,105.365039 L83.4523058,105.363057 C83.1489132,105.622616 82.8391751,105.868701 82.5290405,106.113994 L82.2581684,106.347796 C73.1456832,113.636048 60.8235821,117.355466 48.1013201,117.354674 C31.1093529,117.353089 13.4070902,110.715913 1.71794933,97.0813482" transform="matrix(1 0 0 -1 0 146.76)"/>
    <g fill="#FFF" fill-rule="nonzero" transform="translate(151.31 18.489)">
      <polygon points="21.605 24.727 12.473 11.204 12.473 .267 9.464 .267 9.464 11.204 .332 24.727 3.725 24.727 10.969 13.825 18.211 24.727" transform="matrix(1 0 0 -1 0 24.994)"/>
      <path d="M34.166156,22.0010435 C31.833131,22.0010435 29.7695165,21.1043924 27.9732132,19.3103913 C26.1769099,17.5163902 25.2791081,15.2450605 25.2791081,12.496402 C25.2791081,9.74774353 26.1769099,7.47641375 27.9732132,5.68241266 C29.7695165,3.88841157 31.833131,2.99245934 34.166156,2.99245934 C36.6384347,2.99245934 38.7433355,3.88282061 40.481558,5.66494089 C42.2190809,7.44776005 43.0881921,9.72468079 43.0881921,12.496402 C43.0881921,15.2688221 42.2190809,17.5457428 40.481558,19.328562 C38.7433355,21.1106822 36.6384347,22.0010435 34.166156,22.0010435 M34.166156,24.971244 C37.3850867,24.971244 40.2303415,23.7838627 42.70332,21.4070034 C45.174899,19.030843 46.412088,16.0606426 46.412088,12.496402 C46.412088,8.93286029 45.174899,5.96265981 42.70332,3.58580056 C40.2303415,1.20964018 37.3850867,0.0222588584 34.166156,0.0222588584 C31.017202,0.0222588584 28.1887416,1.21523114 25.6814745,3.6039712 C23.1735076,5.99131351 21.9202239,8.95522415 21.9202239,12.496402 C21.9202239,16.0375798 23.1735076,19.0014905 25.6814745,21.3895317 C28.1887416,23.7775728 31.017202,24.971244 34.166156,24.971244" transform="matrix(1 0 0 -1 0 24.994)"/>
      <path d="M62.5067415,22.0010435 C60.1737165,22.0010435 58.110102,21.1043924 56.3137987,19.3103913 C54.5174954,17.5163902 53.6196937,15.2450605 53.6196937,12.496402 C53.6196937,9.74774353 54.5174954,7.47641375 56.3137987,5.68241266 C58.110102,3.88841157 60.1737165,2.99245934 62.5067415,2.99245934 C64.9790202,2.99245934 67.083921,3.88282061 68.8221436,5.66494089 C70.5596664,7.44776005 71.4287777,9.72468079 71.4287777,12.496402 C71.4287777,15.2688221 70.5596664,17.5457428 68.8221436,19.328562 C67.083921,21.1106822 64.9790202,22.0010435 62.5067415,22.0010435 M62.5067415,24.971244 C65.7256722,24.971244 68.570927,23.7838627 71.0439055,21.4070034 C73.5154845,19.030843 74.7526735,16.0606426 74.7526735,12.496402 C74.7526735,8.93286029 73.5154845,5.96265981 71.0439055,3.58580056 C68.570927,1.20964018 65.7256722,0.0222588584 62.5067415,0.0222588584 C59.3577875,0.0222588584 56.5293271,1.21523114 54.02206,3.6039712 C51.5140931,5.99131351 50.2608095,8.95522415 50.2608095,12.496402 C50.2608095,16.0375798 51.5140931,19.0014905 54.02206,21.3895317 C56.5293271,23.7775728 59.3577875,24.971244 62.5067415,24.971244" transform="matrix(1 0 0 -1 0 24.994)"/>
      <path d="M87.7332215,2.92243249 C91.5350586,2.92243249 93.436327,4.44806723 93.436327,7.50003558 C93.436327,8.87471425 92.9520879,9.9922085 91.9843093,10.8553138 C91.0158311,11.7163225 89.5995016,12.1475257 87.7332215,12.1475257 L82.1000928,12.1475257 L82.1000928,2.92243249 L87.7332215,2.92243249 Z M82.1000928,14.8032344 L87.3833377,14.8032344 C88.899734,14.8032344 90.0130642,15.0946635 90.7247278,15.6768228 C91.4363914,16.2589821 91.7918733,17.1793948 91.7918733,18.437362 C91.7918733,20.8603468 90.3223614,22.0714897 87.3833377,22.0714897 L82.1000928,22.0714897 L82.1000928,14.8032344 Z M91.4070011,13.6850413 C93.0864432,13.1021831 94.3460248,12.2635383 95.1857459,11.1691068 C96.0261667,10.0739764 96.4453274,8.81600911 96.4453274,7.39520498 C96.4453274,5.1119944 95.6762829,3.35293684 94.1360945,2.11943006 C92.5966059,0.883826658 90.3923382,0.266723829 87.5232913,0.266723829 L79.0211156,0.266723829 L79.0211156,24.7271983 L87.3833377,24.7271983 C89.7387553,24.7271983 91.5651486,24.1855736 92.8590188,23.102324 C94.1535887,22.0190744 94.8015735,20.4871498 94.8015735,18.5072491 C94.8015735,16.0842644 93.6693496,14.4768618 91.4070011,13.6850413 Z" transform="matrix(1 0 0 -1 0 24.994)"/>
      <polygon points="103.652 .267 100.538 .267 100.538 24.727 103.652 24.727" transform="matrix(1 0 0 -1 0 24.994)"/>
      <path d="M119.851432,24.971244 C122.906617,24.971244 125.542642,23.9585804 127.758805,21.9311565 L125.870133,19.6947702 C124.259968,21.2322857 122.26563,22.0010435 119.886421,22.0010435 C117.530303,22.0010435 115.442897,21.0862218 113.624201,19.257976 C111.804105,17.4290314 110.894408,15.1751734 110.894408,12.496402 C110.894408,9.81693173 111.804105,7.56377259 113.624201,5.73552684 C115.442897,3.90588334 117.530303,2.99245934 119.886421,2.99245934 C122.218746,2.99245934 124.224979,3.77239904 125.904421,5.33297731 L127.794494,3.09659107 C125.554538,1.04680331 122.906617,0.0222588584 119.851432,0.0222588584 C116.679386,0.0222588584 113.839029,1.20964018 111.331762,3.58580056 C108.823795,5.96265981 107.570512,8.92028062 107.570512,12.4621573 C107.570512,14.8376188 108.170912,16.998527 109.372413,18.9434842 C110.573214,20.8884414 112.107105,22.3798314 113.974085,23.4162567 C115.839665,24.4526819 117.798314,24.971244 119.851432,24.971244" transform="matrix(1 0 0 -1 0 24.994)"/>
      <g transform="translate(0 36.978)">
        <path d="M26.7367156,41.3651605 C24.2861296,43.7175593 21.5059532,44.8944575 18.396886,44.8944575 C15.287119,44.8944575 12.5062428,43.7175593 10.0563566,41.3651605 C7.60647043,39.011364 6.38117746,35.6938248 6.38117746,31.4125428 C6.38117746,27.1766875 7.60647043,23.882211 10.0563566,21.5298123 C12.5062428,19.1767146 15.287119,18.0005152 18.396886,18.0005152 C21.5059532,18.0005152 24.2861296,19.1767146 26.7367156,21.5298123 C29.185902,23.882211 30.4118947,27.1766875 30.4118947,31.4125428 C30.4118947,35.6938248 29.185902,39.011364 26.7367156,41.3651605 M12.2480285,49.059028 C14.32074,49.8578372 16.3703592,50.258989 18.396886,50.258989 C20.4220132,50.258989 22.4716324,49.8578372 24.5450436,49.059028 C26.6184548,48.2581222 28.5498133,47.1175652 30.3405184,45.6352605 C32.1312236,44.1529557 33.6035345,42.1646686 34.7581509,39.670399 C35.9120676,37.1761295 36.4900756,34.422579 36.4900756,31.4125428 C36.4900756,28.4004101 35.9120676,25.6475584 34.7581509,23.1532889 C33.6035345,20.6590194 32.1312236,18.682613 30.3405184,17.2247688 C28.5498133,15.7655267 26.6184548,14.6361517 24.5450436,13.8359447 C22.4716324,13.0371355 20.4220132,12.6366826 18.396886,12.6366826 C16.3703592,12.6366826 14.32074,13.0371355 12.2480285,13.8359447 C10.1739175,14.6361517 8.24185936,15.7655267 6.45255374,17.2247688 C4.66114883,18.682613 3.18953769,20.6590194 2.03492124,23.1532889 C0.880304789,25.6475584 0.303696333,28.4004101 0.303696333,31.4125428 C0.303696333,34.422579 0.880304789,37.1761295 2.03492124,39.670399 C3.18953769,42.1646686 4.66114883,44.1529557 6.45255374,45.6352605 C8.24185936,47.1175652 10.1739175,48.2581222 12.2480285,49.059028" transform="matrix(1 0 0 -1 0 62.896)"/>
        <path d="M51.4383699,34.3073352 C53.8168798,32.0010619 56.5620679,30.8486241 59.6725346,30.8486241 C62.7823016,30.8486241 65.5736743,32.0485851 68.0473526,34.4478082 C70.5210308,36.848429 71.7575201,40.1659683 71.7575201,44.4004258 C71.7575201,48.6362811 70.5210308,51.9412407 68.0473526,54.3180999 C65.5736743,56.6935615 62.7823016,57.8823405 59.6725346,57.8823405 C56.5620679,57.8823405 53.8168798,56.7417835 51.4383699,54.4592718 C49.0591603,52.1760612 47.8688557,48.8235785 47.8688557,44.4004258 C47.8688557,39.9765743 49.0591603,36.6122107 51.4383699,34.3073352 M60.4499763,63.1769849 C64.8319207,63.1769849 68.8247943,61.5059851 72.4292969,58.1653831 C76.0337996,54.8226846 77.8364008,50.2352973 77.8364008,44.4004258 C77.8364008,38.5173323 76.0449958,33.9068823 72.4649851,30.5655814 C68.8835748,27.2242806 64.8781054,25.5546785 60.4499763,25.5546785 C57.6684004,25.5546785 55.1492372,26.2598391 52.8868887,27.6722567 C50.6259398,29.0832767 49.0465644,30.8486241 48.1522615,32.9662023 L48.1522615,12.6367525 L42.0733809,12.6367525 L42.0733809,62.7527704 L48.1522615,62.7527704 L48.1522615,55.977219 C49.0003798,58.0940983 50.5545635,59.8238033 52.816912,61.1649362 C55.0778609,62.5060691 57.6229155,63.1769849 60.4499763,63.1769849" transform="matrix(1 0 0 -1 0 75.814)"/>
        <path d="M109.180808,42.0712296 C106.848483,44.0001127 104.26844,44.9652531 101.441379,44.9652531 C98.6143185,44.9652531 96.0580677,44.0001127 93.7726269,42.0712296 C91.4871861,40.1409487 90.1562282,37.3650343 89.7797533,33.7420886 L113.244359,33.7420886 C112.867184,37.3650343 111.513134,40.1409487 109.180808,42.0712296 M101.441379,50.2591987 C103.514091,50.2591987 105.576306,49.8587458 107.625225,49.0592377 C109.675544,48.2590307 111.594307,47.1184738 113.385712,45.636169 C115.175717,44.1531654 116.624936,42.187941 117.732668,39.7418935 C118.839,37.2944483 119.393216,34.5891198 119.393216,31.6245103 C119.393216,30.777479 119.322539,30.0010337 119.181186,29.2951743 L89.7090768,29.2951743 C90.0855517,25.6708308 91.4871861,22.8718537 93.9146797,20.8954473 C96.340074,18.919041 99.06147,17.9308378 102.077468,17.9308378 C105.894,17.9308378 109.074444,19.2006859 111.618799,21.7424786 L116.212773,18.9896269 C112.583778,14.7544705 107.872943,12.6368923 102.077468,12.6368923 C99.9571725,12.6368923 97.824281,13.0373452 95.6815928,13.8368533 C93.5368052,14.6363613 91.5466663,15.7657364 89.7090768,17.2249784 C87.8714872,18.6828227 86.3753842,20.659229 85.2214675,23.1541974 C84.0661513,25.6477681 83.4895428,28.4006198 83.4895428,31.4127525 C83.4895428,35.4116907 84.4545223,38.8948622 86.3872802,41.8594717 C88.3193384,44.8233824 90.6159755,46.9647222 93.2778912,48.2827923 C95.939807,49.5994647 98.661203,50.2591987 101.441379,50.2591987" transform="matrix(1 0 0 -1 0 62.896)"/>
        <path d="M145.967098,49.7648874 C146.95657,49.7648874 147.876064,49.6936026 148.723483,49.5524307 L148.723483,43.9768403 C148.063602,44.070489 147.121015,44.1180122 145.896422,44.1180122 C142.363296,44.070489 139.347297,42.8935907 136.850527,40.5880163 C134.351657,38.281743 132.845057,35.1053756 132.327229,31.0589143 L132.327229,12.7072685 L126.248349,12.7072685 L126.248349,49.4112589 L132.327229,49.4112589 L132.327229,38.1182072 C132.750589,41.3644616 134.175316,44.1180122 136.602809,46.3760634 C139.028903,48.6355124 142.151266,49.7648874 145.967098,49.7648874" transform="matrix(1 0 0 -1 0 62.472)"/>
        <path d="M170.068772,44.9655327 C166.959005,44.9655327 164.166933,43.7767536 161.693254,41.4005932 C159.219576,39.0244329 157.983087,35.7194733 157.983087,31.483618 C157.983087,27.2484615 159.219576,23.9309223 161.693254,21.5310003 C164.166933,19.1310784 166.959005,17.9311174 170.068772,17.9311174 C173.224724,17.9311174 175.981108,19.084254 178.337925,21.3905273 C180.693343,23.694704 181.871751,27.0597665 181.871751,31.483618 C181.871751,35.9060718 180.693343,39.2592534 178.337925,41.542464 C175.981108,43.8242768 173.224724,44.9655327 170.068772,44.9655327 M169.29133,50.2594782 C172.164576,50.2594782 174.720827,49.5885624 176.960083,48.2474295 C179.19724,46.9062966 180.740927,45.1772905 181.589045,43.0597123 L181.589045,49.8359626 L187.667226,49.8359626 L187.667226,13.1312734 L181.589045,13.1312734 L181.589045,20.0493945 C180.693343,17.9311174 179.125863,16.1664689 176.888707,14.75475 C174.65085,13.3430312 172.118391,12.6371718 169.29133,12.6371718 C164.861802,12.6371718 160.856332,14.3074728 157.276322,17.6487736 C153.694911,20.9893756 151.904906,25.6005244 151.904906,31.483618 C151.904906,34.4950518 152.445826,37.2360227 153.530466,39.7072295 C154.613706,42.1777375 156.004144,44.1541438 157.700381,45.6364486 C159.396617,47.1187533 161.245403,48.2593103 163.248838,49.0595172 C165.250173,49.8590253 167.264804,50.2594782 169.29133,50.2594782" transform="matrix(1 0 0 -1 0 62.897)"/>
        <path d="M207.033503,12.0011995 C208.540802,12.0011995 210.166362,12.3541292 211.910183,13.0606875 L211.910183,7.97780085 C210.213946,7.13076956 208.093651,6.70725392 205.549296,6.70725392 C203.240063,6.70725392 201.415069,7.29570305 200.072215,8.47190244 C198.729361,9.64810183 198.057584,11.7894417 198.057584,14.8959219 L198.057584,38.823857 L193.180904,38.823857 L193.180904,43.8354588 L198.057584,43.8354588 L198.057584,50.1888923 L204.135066,50.1888923 L204.135066,43.8354588 L211.839506,43.8354588 L211.839506,38.823857 L204.135066,38.823857 L204.135066,15.3900235 C204.135066,13.1305745 205.100745,12.0011995 207.033503,12.0011995" transform="matrix(1 0 0 -1 0 56.896)"/>
        <path d="M224.630277,0.354659024 L218.410743,0.354659024 L218.410743,37.0593482 L224.630277,37.0593482 L224.630277,0.354659024 Z M224.630277,44.5414579 L218.410743,44.5414579 L218.410743,49.7655164 L224.630277,49.7655164 L224.630277,44.5414579 Z" transform="matrix(1 0 0 -1 0 50.12)"/>
        <path d="M257.919689,41.3651605 C255.469103,43.7175593 252.688927,44.8944575 249.579859,44.8944575 C246.470092,44.8944575 243.689216,43.7175593 241.23933,41.3651605 C238.789444,39.011364 237.564151,35.6938248 237.564151,31.4125428 C237.564151,27.1766875 238.789444,23.882211 241.23933,21.5298123 C243.689216,19.1767146 246.470092,18.0005152 249.579859,18.0005152 C252.688927,18.0005152 255.469103,19.1767146 257.919689,21.5298123 C260.368875,23.882211 261.594868,27.1766875 261.594868,31.4125428 C261.594868,35.6938248 260.368875,39.011364 257.919689,41.3651605 M243.431002,49.059028 C245.503713,49.8578372 247.553333,50.258989 249.579859,50.258989 C251.604987,50.258989 253.654606,49.8578372 255.728017,49.059028 C257.801428,48.2581222 259.732787,47.1175652 261.523492,45.6352605 C263.314197,44.1529557 264.786508,42.1646686 265.941124,39.670399 C267.095041,37.1761295 267.673049,34.422579 267.673049,31.4125428 C267.673049,28.4004101 267.095041,25.6475584 265.941124,23.1532889 C264.786508,20.6590194 263.314197,18.682613 261.523492,17.2247688 C259.732787,15.7655267 257.801428,14.6361517 255.728017,13.8359447 C253.654606,13.0371355 251.604987,12.6366826 249.579859,12.6366826 C247.553333,12.6366826 245.503713,13.0371355 243.431002,13.8359447 C241.356891,14.6361517 239.424833,15.7655267 237.635527,17.2247688 C235.844122,18.682613 234.372511,20.6590194 233.217895,23.1532889 C232.063278,25.6475584 231.48667,28.4004101 231.48667,31.4125428 C231.48667,34.422579 232.063278,37.1761295 233.217895,39.670399 C234.372511,42.1646686 235.844122,44.1529557 237.635527,45.6352605 C239.424833,47.1175652 241.356891,48.2581222 243.431002,49.059028" transform="matrix(1 0 0 -1 0 62.896)"/>
        <path d="M293.963875,49.7648874 C297.921761,49.7648874 301.254753,48.4691812 303.964253,45.8819618 C306.673054,43.2940436 308.028503,39.3412309 308.028503,34.0242227 L308.028503,12.7072685 L301.950322,12.7072685 L301.950322,33.8124648 C301.950322,37.4347117 301.1134,40.1295571 299.440956,41.8942056 C297.768512,43.6588541 295.541851,44.540829 292.762375,44.540829 C289.746376,44.540829 287.119449,43.4582782 284.881592,41.2945746 C282.643036,39.1294731 281.288286,36.8225009 280.818042,34.3764535 L280.818042,12.7072685 L274.739162,12.7072685 L274.739162,49.4112589 L280.818042,49.4112589 L280.818042,40.9416448 C281.241402,42.7293561 282.666128,44.6470573 285.093622,46.6940496 C287.519716,48.7410419 290.476234,49.7648874 293.963875,49.7648874" transform="matrix(1 0 0 -1 0 62.472)"/>
        <path d="M334.814135,40.8711288 C333.164783,43.6945664 330.761782,45.1062852 327.60513,45.1062852 C325.955778,45.1062852 324.601728,44.6708888 323.54158,43.8000959 C322.481432,42.9286041 321.951008,41.859332 321.951008,40.588785 C321.951008,39.4587111 322.316287,38.4942695 323.046844,37.6947615 C323.777402,36.8938556 325.060775,36.1649335 326.898365,35.5058984 L330.785574,34.0948785 C334.365584,32.870457 337.063888,31.5062614 338.878385,30.000195 C340.691483,28.4941287 341.599081,26.2598391 341.599081,23.2952295 C341.599081,20.0007531 340.186251,17.4009541 337.35919,15.4951337 C334.532129,13.5893133 331.374778,12.6367525 327.888536,12.6367525 C324.589832,12.6367525 321.597626,13.5068465 318.911918,15.2484323 C316.22691,16.9886203 314.482389,19.3179564 313.682555,22.2364404 L318.911918,23.7187452 C319.523515,21.9289373 320.690027,20.5067354 322.410756,19.4479463 C324.130084,18.3891572 325.97957,17.8594132 327.958513,17.8594132 C329.842987,17.8594132 331.528027,18.3535148 333.012234,19.341718 C334.496441,20.3299212 335.238194,21.6472924 335.238194,23.2952295 C335.238194,25.8356245 333.330628,27.7421438 329.514096,29.0119919 L325.272805,30.5655814 C321.881032,31.7886052 319.430446,33.1653804 317.922447,34.6945095 C316.414448,36.2236386 315.661498,38.1644026 315.661498,40.5181991 C315.661498,43.3409378 316.814715,45.6702739 319.123947,47.5055084 C321.432481,49.3414417 324.236449,50.2590589 327.535153,50.2590589 C333.517466,50.2590589 337.758757,47.5998559 340.256228,42.2828476 L334.814135,40.8711288 Z" transform="matrix(1 0 0 -1 0 62.896)"/>
      </g>
    </g>
  </g>
</svg>
