<svg xmlns="http://www.w3.org/2000/svg" width="435" height="313" viewBox="0 0 435 313">
  <defs>
    <linearGradient id="yoobic_portrait_full_dark-a" x1="12.459%" x2="72.367%" y1="-35.023%" y2="66.961%">
      <stop offset="5.629%" stop-color="#45E2FF"/>
      <stop offset="100%" stop-color="#7C6AFF"/>
    </linearGradient>
  </defs>
  <g fill="none">
    <g fill="#353068" transform="translate(5 175)">
      <polygon points="64 1 37.499 40.667 37.499 71 26.501 71 26.501 40.667 0 1 12.62 1 32.09 30.974 51.561 1"/>
      <path d="M110.409669 0C119.62341 0 127.933842 3.42 135.160305 10.26 142.386768 17.1 146 25.74 146 36 146 46.26 142.386768 54.9 135.160305 61.74 127.933842 68.58 119.804071 72 110.409669 72 101.37659 72 93.0661578 68.58 85.8396947 61.74 78.6132316 54.9 75 46.26 75 36.18 75 25.92 78.6132316 17.46 85.8396947 10.62 93.0661578 3.42 101.37659 0 110.409669 0zM110.590331 10.98C104.447837 10.98 99.0279898 13.32 94.5114504 18 89.8142494 22.68 87.6463104 28.62 87.6463104 35.82 87.6463104 43.02 89.9949109 48.96 94.5114504 53.82 99.2086514 58.5 104.447837 60.84 110.590331 60.84 117.094148 60.84 122.513995 58.5 126.849873 53.82 131.185751 49.14 133.534351 43.2 133.534351 35.82 133.534351 28.44 131.366412 22.5 126.849873 17.82 122.333333 13.14 116.913486 10.98 110.590331 10.98zM202.409669 0C211.62341 0 219.933842 3.42 227.160305 10.26 234.386768 17.1 238 25.74 238 36 238 46.26 234.386768 54.9 227.160305 61.74 219.933842 68.58 211.804071 72 202.409669 72 193.37659 72 185.066158 68.58 177.839695 61.74 170.613232 54.9 167 46.26 167 36.18 167 25.92 170.613232 17.46 177.839695 10.62 185.066158 3.42 193.37659 0 202.409669 0zM202.409669 10.98C196.267176 10.98 190.847328 13.32 186.330789 18 181.633588 22.68 179.465649 28.62 179.465649 35.82 179.465649 43.02 181.814249 48.96 186.330789 53.82 191.02799 58.5 196.267176 60.84 202.409669 60.84 208.913486 60.84 214.333333 58.5 218.669211 53.82 223.005089 49.14 225.35369 43.2 225.35369 35.82 225.35369 28.44 223.185751 22.5 218.669211 17.82 214.333333 13.14 208.913486 10.98 202.409669 10.98zM297.097222 32.3299233C301.791667 34.1202046 305.402778 36.6265985 307.569444 39.8491049 309.916667 43.0716113 311 46.4731458 311 50.4117647 311 56.8567775 308.652778 61.8695652 304.138889 65.629156 299.625 69.2097187 293.125 71 285 71L259 71 259 1 284.277778 1C290.958333 1 296.194444 2.6112532 299.986111 5.65473146 303.777778 8.87723785 305.763889 13.3529412 305.763889 19.0818414 305.763889 21.9462916 305.041667 24.6317136 303.597222 26.9590793 302.152778 29.4654731 299.986111 31.0767263 297.097222 32.3299233zM270.375 28.5703325L284.458333 28.5703325C291.5 28.5703325 294.930556 25.5268542 294.930556 19.6189258 294.930556 16.7544757 294.027778 14.6061381 292.222222 12.9948849 290.416667 11.3836317 287.888889 10.6675192 284.458333 10.6675192L270.375 10.6675192 270.375 28.5703325zM286.083333 61.3324808C290.597222 61.3324808 294.027778 60.258312 296.375 58.2890026 298.722222 56.3196931 299.805556 53.455243 299.805556 49.8746803 299.805556 46.4731458 298.541667 43.7877238 296.194444 41.4603581 293.847222 39.3120205 290.416667 38.0588235 285.902778 38.0588235L270.013889 38.0588235 270.013889 61.3324808 286.083333 61.3324808z"/>
      <polygon points="345 1 345 71 333 71 333 1"/>
      <path d="M400.653374,0 C409.702454,0 417.484663,2.85427136 423.819018,8.74120603 L416.760736,16.9472362 C412.236196,12.8442211 406.98773,10.8819095 400.834356,10.8819095 C394.5,10.8819095 389.070552,13.201005 384.365031,18.0175879 C379.659509,22.8341709 377.306748,28.7211055 377.306748,35.5 C377.306748,42.4572864 379.659509,48.3442211 384.365031,52.9824121 C389.070552,57.798995 394.5,60.1180905 400.834356,60.1180905 C406.806748,60.1180905 412.236196,57.9773869 416.941718,53.8743719 L424,62.080402 C417.484663,67.9673367 409.702454,71 400.653374,71 C394.680982,71 389.070552,69.5728643 383.641104,66.540201 C378.211656,63.5075377 373.868098,59.4045226 370.248466,53.8743719 C366.809816,48.3442211 365,42.2788945 365,35.5 C365,28.7211055 366.809816,22.4773869 370.248466,16.9472362 C373.687117,11.4170854 378.211656,7.13567839 383.641104,4.10301508 C389.070552,1.42713568 394.680982,0 400.653374,0 Z"/>
    </g>
    <g fill="#353068" transform="translate(75 294)">
      <path d="M13 18L10.344086 18 5.4516129 11.0769231 2.23655914 11.0769231 2.23655914 18 0 18 0 0 6.01075269 0C7.96774194 0 9.50537634.553846154 10.6236559 1.52307692 11.7419355 2.63076923 12.3010753 3.87692308 12.3010753 5.53846154 12.3010753 6.92307692 11.8817204 8.03076923 11.0430108 9 10.2043011 9.96923077 9.08602151 10.6615385 7.68817204 10.9384615L13 18zM2.23655914 1.93846154L2.23655914 9 5.87096774 9C7.12903226 9 8.24731183 8.72307692 8.94623656 8.03076923 9.64516129 7.33846154 10.0645161 6.50769231 10.0645161 5.4 10.0645161 4.29230769 9.64516129 3.46153846 8.94623656 2.76923077 8.24731183 2.07692308 7.12903226 1.8 5.87096774 1.8L2.23655914 1.8 2.23655914 1.93846154zM25.7708333 5C26.4479167 5 27.2604167 5.14141414 27.9375 5.42424242 28.6145833 5.70707071 29.2916667 6.13131313 29.96875 6.6969697 30.6458333 7.26262626 31.1875 7.96969697 31.4583333 8.95959596 31.8645833 9.80808081 32 10.9393939 32 11.9292929 32 12.2121212 32 12.4949495 31.8645833 12.7777778L21.4375 12.7777778C21.5729167 14.1919192 22.1145833 15.1818182 22.9270833 15.8888889 23.7395833 16.5959596 24.8229167 17.020202 25.7708333 17.020202 27.125 17.020202 28.2083333 16.5959596 29.15625 15.6060606L30.78125 16.5959596C29.4270833 18.1515152 27.8020833 19 25.7708333 19 24.9583333 19 24.28125 18.8585859 23.46875 18.5757576 22.65625 18.2929293 21.9791667 17.8686869 21.3020833 17.3030303 20.625 16.7373737 20.0833333 16.030303 19.6770833 15.040404 19.2708333 14.0505051 19 13.0606061 19 11.9292929 19 10.3737374 19.40625 9.1010101 20.0833333 8.11111111 20.7604167 6.97979798 21.5729167 6.27272727 22.5208333 5.70707071 23.875 5.28282828 24.8229167 5 25.7708333 5zM28.6145833 8.11111111C27.8020833 7.4040404 26.8541667 6.97979798 25.90625 6.97979798 24.9583333 6.97979798 24.0104167 7.4040404 23.1979167 8.11111111 22.3854167 8.81818182 21.84375 9.80808081 21.84375 11.2222222L30.2395833 11.2222222C29.96875 9.80808081 29.4270833 8.81818182 28.6145833 8.11111111zM44.1428571 16.1913043C44.7142857 16.1913043 45.2857143 16.0521739 46 15.773913L46 17.5826087C45.4285714 17.8608696 44.5714286 18 43.5714286 18 42.7142857 18 42 17.7217391 41.5714286 17.3043478 41 16.8869565 40.8571429 16.0521739 40.8571429 14.9391304L40.8571429 6.17391304 39 6.17391304 39 4.36521739 40.8571429 4.36521739 40.8571429 2 43.1428571 2 43.1428571 4.36521739 46 4.36521739 46 6.17391304 43.1428571 6.17391304 43.1428571 14.8C43.1428571 15.773913 43.4285714 16.1913043 44.1428571 16.1913043zM59.3617021 5C60.4680851 5 61.2978723 5.28 62.1276596 5.7 62.9574468 6.26 63.5106383 6.82 63.787234 7.66L63.787234 5.14 66 5.14 66 18.72 63.787234 18.72 63.787234 16.2C63.5106383 17.04 62.9574468 17.6 62.1276596 18.16 61.2978723 18.72 60.3297872 19 59.3617021 19 57.7021277 19 56.3191489 18.44 54.9361702 17.18 53.5531915 15.92 53 14.24 53 12.14 53 11.02 53.1382979 10.04 53.5531915 9.06 53.9680851 8.08 54.5212766 7.38 55.0744681 6.82 55.6276596 6.26 56.3191489 5.84 57.1489362 5.56 57.8404255 5.14 58.6702128 5 59.3617021 5zM59.6382979 6.96C58.5319149 6.96 57.4255319 7.38 56.5957447 8.22 55.6276596 9.06 55.212766 10.32 55.212766 11.86 55.212766 13.4 55.6276596 14.66 56.5957447 15.5 57.5638298 16.34 58.5319149 16.76 59.6382979 16.76 60.7446809 16.76 61.8510638 16.34 62.6808511 15.5 63.5106383 14.66 63.9255319 13.4 63.9255319 11.72 63.9255319 10.04 63.5106383 8.92 62.6808511 8.08 61.8510638 7.38 60.7446809 6.96 59.6382979 6.96zM77 0L77 1.93846154 75 1.93846154 75 0 77 0zM77 4.56923077L77 18 75 18 75 4.56923077 77 4.56923077z"/>
      <polygon points="88 0 88 18 86 18 86 0 88 0"/>
      <polygon points="112.4 16.062 122 16.062 122 18 110 18 110 0 121.718 0 121.718 1.938 112.4 1.938 112.4 7.892 119.176 7.892 119.176 9.831 112.4 9.831 112.4 16.062"/>
      <polygon points="139.571 18 135.571 12.854 131.571 18 129 18 134.286 11.365 129.286 5 131.857 5 135.571 9.875 139.143 5 141.714 5 136.714 11.365 142 18 139.571 18"/>
      <path d="M154.62069 5C155.724138 5 156.689655 5.28571429 157.655172 5.85714286 158.62069 6.42857143 159.448276 7.28571429 160 8.28571429L158.068966 9.14285714C157.655172 8.42857143 157.241379 8 156.551724 7.57142857 155.862069 7.14285714 155.172414 7 154.482759 7 153.37931 7 152.413793 7.42857143 151.448276 8.28571429 150.482759 9.14285714 150.068966 10.4285714 150.068966 12 150.068966 13.5714286 150.482759 14.8571429 151.448276 15.7142857 152.413793 16.5714286 153.37931 17 154.482759 17 155.172414 17 155.862069 16.8571429 156.551724 16.4285714 157.241379 16 157.655172 15.5714286 158.068966 14.8571429L160 15.7142857C159.448276 16.7142857 158.62069 17.5714286 157.655172 18.1428571 156.689655 18.7142857 155.586207 19 154.62069 19 153.655172 19 152.551724 18.7142857 151.586207 18.2857143 150.62069 17.7142857 149.793103 17 149.103448 15.8571429 148.413793 14.7142857 148 13.4285714 148 12 148 10.5714286 148.413793 9.14285714 149.103448 8.14285714 149.793103 7 150.62069 6.28571429 151.586207 5.71428571 152.551724 5.28571429 153.655172 5 154.62069 5zM173.705263 5C174.389474 5 175.210526 5.14141414 175.894737 5.42424242 176.578947 5.70707071 177.263158 6.13131313 177.947368 6.6969697 178.631579 7.26262626 179.178947 7.96969697 179.452632 8.95959596 179.863158 9.80808081 180 10.9393939 180 11.9292929 180 12.2121212 180 12.4949495 179.863158 12.7777778L169.463158 12.7777778C169.6 14.1919192 170.147368 15.1818182 170.968421 15.8888889 171.789474 16.5959596 172.884211 17.020202 173.842105 17.020202 175.210526 17.020202 176.305263 16.5959596 177.263158 15.6060606L178.905263 16.5959596C177.536842 18.1515152 175.894737 19 173.842105 19 173.021053 19 172.336842 18.8585859 171.515789 18.5757576 170.694737 18.2929293 170.010526 17.8686869 169.326316 17.3030303 168.642105 16.7373737 168.094737 16.030303 167.684211 15.040404 167.273684 14.0505051 167 13.0606061 167 11.9292929 167 10.3737374 167.410526 9.1010101 168.094737 8.11111111 168.778947 6.97979798 169.6 6.27272727 170.557895 5.70707071 171.652632 5.28282828 172.610526 5 173.705263 5zM176.442105 8.11111111C175.621053 7.4040404 174.663158 6.97979798 173.705263 6.97979798 172.747368 6.97979798 171.789474 7.4040404 170.968421 8.11111111 170.147368 8.81818182 169.6 9.80808081 169.6 11.2222222L178.084211 11.2222222C177.810526 9.80808081 177.263158 8.81818182 176.442105 8.11111111z"/>
      <polygon points="191 0 191 18 189 18 189 0 191 0"/>
      <polygon points="202 0 202 18 200 18 200 0 202 0"/>
      <path d="M215.770833 5C216.447917 5 217.260417 5.14141414 217.9375 5.42424242 218.614583 5.70707071 219.291667 6.13131313 219.96875 6.6969697 220.645833 7.26262626 221.1875 7.96969697 221.458333 8.95959596 221.864583 9.80808081 222 10.9393939 222 11.9292929 222 12.2121212 222 12.4949495 221.864583 12.7777778L211.4375 12.7777778C211.572917 14.1919192 212.114583 15.1818182 212.927083 15.8888889 213.739583 16.5959596 214.822917 17.020202 215.770833 17.020202 217.125 17.020202 218.208333 16.5959596 219.15625 15.6060606L220.78125 16.5959596C219.427083 18.1515152 217.802083 19 215.770833 19 214.958333 19 214.28125 18.8585859 213.46875 18.5757576 212.65625 18.2929293 211.979167 17.8686869 211.302083 17.3030303 210.625 16.7373737 210.083333 16.030303 209.677083 15.040404 209.270833 14.0505051 209 13.0606061 209 11.9292929 209 10.3737374 209.40625 9.1010101 210.083333 8.11111111 210.760417 6.97979798 211.572917 6.27272727 212.520833 5.70707071 213.875 5.28282828 214.822917 5 215.770833 5zM218.614583 8.11111111C217.802083 7.4040404 216.854167 6.97979798 215.90625 6.97979798 214.958333 6.97979798 214.010417 7.4040404 213.197917 8.11111111 212.385417 8.81818182 211.84375 9.80808081 211.84375 11.2222222L220.239583 11.2222222C219.833333 9.80808081 219.427083 8.81818182 218.614583 8.11111111zM238.011236 5C239.359551 5 240.573034 5.43298969 241.516854 6.44329897 242.460674 7.45360825 243 8.89690722 243 10.9175258L243 19 240.842697 19 240.842697 10.9175258C240.842697 9.4742268 240.573034 8.46391753 239.898876 7.88659794 239.359551 7.16494845 238.550562 6.87628866 237.47191 6.87628866 236.393258 6.87628866 235.449438 7.30927835 234.640449 8.17525773 233.831461 9.04123711 233.426966 9.90721649 233.157303 10.7731959L233.157303 19 231 19 231 5 233.157303 5 233.157303 8.17525773C233.292135 7.45360825 233.831461 6.73195876 234.640449 6.01030928 235.719101 5.43298969 236.662921 5 238.011236 5zM257.62069 5C258.724138 5 259.689655 5.28571429 260.655172 5.85714286 261.62069 6.42857143 262.448276 7.28571429 263 8.28571429L261.068966 9.14285714C260.655172 8.42857143 260.241379 8 259.551724 7.57142857 258.862069 7.14285714 258.172414 7 257.482759 7 256.37931 7 255.413793 7.42857143 254.448276 8.28571429 253.482759 9.14285714 253.068966 10.4285714 253.068966 12 253.068966 13.5714286 253.482759 14.8571429 254.448276 15.7142857 255.413793 16.5714286 256.37931 17 257.482759 17 258.172414 17 258.862069 16.8571429 259.551724 16.4285714 260.241379 16 260.655172 15.5714286 261.068966 14.8571429L263 15.7142857C262.448276 16.7142857 261.62069 17.5714286 260.655172 18.1428571 259.689655 18.7142857 258.586207 19 257.62069 19 256.655172 19 255.551724 18.7142857 254.586207 18.2857143 253.62069 17.7142857 252.793103 17 252.103448 15.8571429 251.413793 14.7142857 251 13.4285714 251 12 251 10.5714286 251.413793 9.14285714 252.103448 8.14285714 252.793103 7 253.62069 6.28571429 254.586207 5.71428571 255.551724 5.28571429 256.655172 5 257.62069 5zM276.770833 5C277.447917 5 278.260417 5.14141414 278.9375 5.42424242 279.614583 5.70707071 280.291667 6.13131313 280.96875 6.6969697 281.645833 7.26262626 282.1875 7.96969697 282.458333 8.95959596 282.864583 9.80808081 283 10.9393939 283 11.9292929 283 12.2121212 283 12.4949495 282.864583 12.7777778L272.4375 12.7777778C272.572917 14.1919192 273.114583 15.1818182 273.927083 15.8888889 274.739583 16.5959596 275.822917 17.020202 276.770833 17.020202 278.125 17.020202 279.208333 16.5959596 280.15625 15.6060606L281.78125 16.5959596C280.427083 18.1515152 278.802083 19 276.770833 19 275.958333 19 275.28125 18.8585859 274.46875 18.5757576 273.65625 18.2929293 272.979167 17.8686869 272.302083 17.3030303 271.625 16.7373737 271.083333 16.030303 270.677083 15.040404 270.270833 14.0505051 270 13.0606061 270 11.9292929 270 10.3737374 270.40625 9.1010101 271.083333 8.11111111 271.760417 6.97979798 272.572917 6.27272727 273.520833 5.70707071 274.739583 5.28282828 275.6875 5 276.770833 5zM279.479167 8.11111111C278.666667 7.4040404 277.71875 6.97979798 276.770833 6.97979798 275.822917 6.97979798 274.875 7.4040404 274.0625 8.11111111 273.25 8.81818182 272.708333 9.80808081 272.708333 11.2222222L281.104167 11.2222222C280.833333 9.80808081 280.291667 8.81818182 279.479167 8.11111111z"/>
    </g>
    <path fill="url(#yoobic_portrait_full_dark-a)" d="M103.651789,51.6002514 L127.137405,0.0304361347 L118.432946,0.0304361347 C101.680968,-0.626504187 86.7355752,9.39183572 79.0165264,26.1438139 L64.2353692,58.0054196 L49.4542119,26.1438139 C41.8993982,9.39183572 26.9540059,-0.626504187 10.3662628,0.0304361347 L1.33333333,0.0304361347 L24.8189498,50.6148409 C31.224118,64.5748228 42.7205736,73.7719873 55.8593801,76.0712784 L56.1878502,76.0712784 L56.0236151,76.2355135 C55.8593801,76.5639837 55.695145,76.8924538 55.5309099,77.0566889 L32.3737636,127.641094 L41.0782228,127.969564 C57.830201,128.626504 72.7755934,118.608164 80.4946421,101.856186 L103.651789,51.6002514" transform="translate(154)"/>
  </g>
</svg>
