<svg xmlns="http://www.w3.org/2000/svg" width="535" height="128" viewBox="0 0 535 128">
  <defs>
    <linearGradient id="yoobic_landscape_full_light-a" x1="12.459%" x2="72.367%" y1="-35.023%" y2="66.961%">
      <stop offset="5.629%" stop-color="#45E2FF"/>
      <stop offset="100%" stop-color="#7C6AFF"/>
    </linearGradient>
  </defs>
  <g fill="none" transform="translate(0 1)">
    <path fill="url(#yoobic_landscape_full_light-a)" d="M100.941772,51.4962025 L124.111392,0.620253165 L115.524051,0.620253165 C98.9974684,-0.0278481013 84.2531646,9.8556962 76.6379747,26.3822785 L62.0556962,57.8151899 L47.4734177,26.3822785 C40.0202532,9.8556962 25.2759494,-0.0278481013 8.91139241,0.620253165 L0,0.620253165 L23.1696203,50.5240506 C29.4886076,64.2962025 40.8303797,73.3696203 53.7924051,75.6379747 L54.1164557,75.6379747 L53.9544304,75.8 C53.7924051,76.1240506 53.6303797,76.4481013 53.4683544,76.6101266 L30.6227848,126.513924 L39.2101266,126.837975 C55.7367089,127.486076 70.4810127,117.602532 78.0962025,101.075949 L100.941772,51.4962025"/>
    <g fill="#FFF" transform="translate(152.304 8.722)">
      <polygon points="57.843 .648 34.025 36.456 34.025 63.838 24.142 63.838 24.142 36.456 .324 .648 11.666 .648 29.165 27.706 46.663 .648"/>
      <path d="M99.1594937 0C107.422785 0 114.875949 3.07848101 121.356962 9.23544304 127.837975 15.3924051 131.078481 23.1696203 131.078481 32.4050633 131.078481 41.6405063 127.837975 49.4177215 121.356962 55.5746835 114.875949 61.7316456 107.58481 64.8101266 99.1594937 64.8101266 91.0582278 64.8101266 83.6050633 61.7316456 77.1240506 55.5746835 70.643038 49.4177215 67.4025316 41.6405063 67.4025316 32.5670886 67.4025316 23.3316456 70.643038 15.7164557 77.1240506 9.55949367 83.6050633 3.07848101 91.0582278 0 99.1594937 0zM99.321519 9.8835443C93.8126582 9.8835443 88.9518987 11.9898734 84.9012658 16.2025316 80.6886076 20.4151899 78.7443038 25.7620253 78.7443038 32.243038 78.7443038 38.7240506 80.8506329 44.0708861 84.9012658 48.4455696 89.1139241 52.6582278 93.8126582 54.764557 99.321519 54.764557 105.15443 54.764557 110.01519 52.6582278 113.903797 48.4455696 117.792405 44.2329114 119.898734 38.8860759 119.898734 32.243038 119.898734 25.6 117.95443 20.2531646 113.903797 16.0405063 109.853165 11.8278481 104.992405 9.8835443 99.321519 9.8835443zM181.792405 0C190.055696 0 197.508861 3.07848101 203.989873 9.23544304 210.470886 15.3924051 213.711392 23.1696203 213.711392 32.4050633 213.711392 41.6405063 210.470886 49.4177215 203.989873 55.5746835 197.508861 61.7316456 190.217722 64.8101266 181.792405 64.8101266 173.691139 64.8101266 166.237975 61.7316456 159.756962 55.5746835 153.275949 49.4177215 150.035443 41.6405063 150.035443 32.5670886 150.035443 23.3316456 153.275949 15.7164557 159.756962 9.55949367 166.237975 3.07848101 173.691139 0 181.792405 0zM181.792405 9.8835443C176.283544 9.8835443 171.422785 11.9898734 167.372152 16.2025316 163.159494 20.4151899 161.21519 25.7620253 161.21519 32.243038 161.21519 38.7240506 163.321519 44.0708861 167.372152 48.4455696 171.58481 52.6582278 176.283544 54.764557 181.792405 54.764557 187.625316 54.764557 192.486076 52.6582278 196.374684 48.4455696 200.263291 44.2329114 202.36962 38.8860759 202.36962 32.243038 202.36962 25.6 200.425316 20.2531646 196.374684 16.0405063 192.486076 11.8278481 187.625316 9.8835443 181.792405 9.8835443zM267.665823 29.0025316C271.878481 30.6227848 275.118987 32.8911392 277.063291 35.8075949 279.16962 38.7240506 280.141772 41.8025316 280.141772 45.3670886 280.141772 51.2 278.035443 55.7367089 273.98481 59.1392405 269.934177 62.3797468 264.101266 64 256.810127 64L233.478481 64 233.478481.648101266 256.162025.648101266C262.156962.648101266 266.855696 2.10632911 270.258228 4.86075949 273.660759 7.77721519 275.443038 11.8278481 275.443038 17.0126582 275.443038 19.6050633 274.794937 22.035443 273.498734 24.1417722 272.202532 26.4101266 270.258228 27.8683544 267.665823 29.0025316zM243.686076 25.6L256.324051 25.6C262.643038 25.6 265.721519 22.8455696 265.721519 17.4987342 265.721519 14.9063291 264.911392 12.9620253 263.291139 11.5037975 261.670886 10.0455696 259.402532 9.39746835 256.324051 9.39746835L243.686076 9.39746835 243.686076 25.6zM257.782278 55.2506329C261.832911 55.2506329 264.911392 54.278481 267.017722 52.4962025 269.124051 50.7139241 270.096203 48.121519 270.096203 44.8810127 270.096203 41.8025316 268.962025 39.3721519 266.855696 37.2658228 264.749367 35.321519 261.670886 34.1873418 257.620253 34.1873418L243.362025 34.1873418 243.362025 55.2506329 257.782278 55.2506329z"/>
      <polygon points="310.116 .648 310.116 64 299.747 64 299.747 .648"/>
      <path d="M360.992405,0 C369.093671,0 376.060759,2.59240506 381.731646,7.93924051 L375.412658,15.3924051 C371.362025,11.6658228 366.663291,9.8835443 361.15443,9.8835443 C355.483544,9.8835443 350.622785,11.9898734 346.410127,16.364557 C342.197468,20.7392405 340.091139,26.0860759 340.091139,32.243038 C340.091139,38.5620253 342.197468,43.9088608 346.410127,48.121519 C350.622785,52.4962025 355.483544,54.6025316 361.15443,54.6025316 C366.501266,54.6025316 371.362025,52.6582278 375.574684,48.9316456 L381.893671,56.3848101 C376.060759,61.7316456 369.093671,64.4860759 360.992405,64.4860759 C355.64557,64.4860759 350.622785,63.1898734 345.762025,60.435443 C340.901266,57.6810127 337.012658,53.9544304 333.772152,48.9316456 C330.693671,43.9088608 329.073418,38.4 329.073418,32.243038 C329.073418,26.0860759 330.693671,20.4151899 333.772152,15.3924051 C336.850633,10.3696203 340.901266,6.48101266 345.762025,3.72658228 C350.622785,1.29620253 355.64557,0 360.992405,0 Z"/>
    </g>
    <g fill="#FFF" transform="translate(178.228 94.595)">
      <path d="M15.878481 21.2253165L12.8 21.2253165 7.12911392 13.1240506 3.40253165 13.1240506 3.40253165 21.2253165.810126582 21.2253165.810126582.162025316 7.77721519.162025316C10.0455696.162025316 11.8278481.810126582 13.1240506 1.9443038 14.4202532 3.24050633 15.0683544 4.69873418 15.0683544 6.64303797 15.0683544 8.26329114 14.5822785 9.55949367 13.6101266 10.6936709 12.6379747 11.8278481 11.3417722 12.6379747 9.72151899 12.9620253L15.878481 21.2253165zM3.40253165 2.43037975L3.40253165 10.6936709 7.61518987 10.6936709C9.07341772 10.6936709 10.3696203 10.3696203 11.1797468 9.55949367 11.9898734 8.74936709 12.4759494 7.77721519 12.4759494 6.48101266 12.4759494 5.18481013 11.9898734 4.21265823 11.1797468 3.40253165 10.3696203 2.59240506 9.07341772 2.26835443 7.61518987 2.26835443L3.40253165 2.26835443 3.40253165 2.43037975zM30.9468354 5.34683544C31.756962 5.34683544 32.7291139 5.50886076 33.5392405 5.83291139 34.3493671 6.15696203 35.1594937 6.64303797 35.9696203 7.29113924 36.7797468 7.93924051 37.4278481 8.74936709 37.7518987 9.8835443 38.2379747 10.8556962 38.4 12.1518987 38.4 13.2860759 38.4 13.6101266 38.4 13.9341772 38.2379747 14.2582278L25.7620253 14.2582278C25.9240506 15.878481 26.5721519 17.0126582 27.5443038 17.8227848 28.5164557 18.6329114 29.8126582 19.1189873 30.9468354 19.1189873 32.5670886 19.1189873 33.8632911 18.6329114 34.9974684 17.4987342L36.9417722 18.6329114C35.321519 20.4151899 33.3772152 21.3873418 30.9468354 21.3873418 29.9746835 21.3873418 29.164557 21.2253165 28.1924051 20.9012658 27.2202532 20.5772152 26.4101266 20.0911392 25.6 19.443038 24.7898734 18.7949367 24.1417722 17.9848101 23.6556962 16.8506329 23.1696203 15.7164557 22.8455696 14.5822785 22.8455696 13.2860759 22.8455696 11.5037975 23.3316456 10.0455696 24.1417722 8.91139241 24.9518987 7.61518987 25.9240506 6.80506329 27.0582278 6.15696203 28.678481 5.67088608 29.8126582 5.34683544 30.9468354 5.34683544zM34.3493671 8.91139241C33.3772152 8.10126582 32.243038 7.61518987 31.1088608 7.61518987 29.9746835 7.61518987 28.8405063 8.10126582 27.8683544 8.91139241 26.8962025 9.72151899 26.2481013 10.8556962 26.2481013 12.4759494L36.2936709 12.4759494C35.9696203 10.8556962 35.321519 9.72151899 34.3493671 8.91139241zM52.4962025 19.1189873C53.1443038 19.1189873 53.7924051 18.956962 54.6025316 18.6329114L54.6025316 20.7392405C53.9544304 21.0632911 52.9822785 21.2253165 51.8481013 21.2253165 50.8759494 21.2253165 50.0658228 20.9012658 49.5797468 20.4151899 48.9316456 19.9291139 48.7696203 18.956962 48.7696203 17.6607595L48.7696203 7.45316456 46.6632911 7.45316456 46.6632911 5.34683544 48.7696203 5.34683544 48.7696203 2.59240506 51.3620253 2.59240506 51.3620253 5.34683544 54.6025316 5.34683544 54.6025316 7.45316456 51.3620253 7.45316456 51.3620253 17.4987342C51.3620253 18.6329114 51.6860759 19.1189873 52.4962025 19.1189873zM70.156962 5.34683544C71.4531646 5.34683544 72.4253165 5.67088608 73.3974684 6.15696203 74.3696203 6.80506329 75.0177215 7.45316456 75.3417722 8.42531646L75.3417722 5.50886076 77.9341772 5.50886076 77.9341772 21.2253165 75.3417722 21.2253165 75.3417722 18.3088608C75.0177215 19.2810127 74.3696203 19.9291139 73.3974684 20.5772152 72.4253165 21.2253165 71.2911392 21.5493671 70.156962 21.5493671 68.2126582 21.5493671 66.5924051 20.9012658 64.9721519 19.443038 63.3518987 17.9848101 62.7037975 16.0405063 62.7037975 13.6101266 62.7037975 12.3139241 62.8658228 11.1797468 63.3518987 10.0455696 63.8379747 8.91139241 64.4860759 8.10126582 65.1341772 7.45316456 65.7822785 6.80506329 66.5924051 6.31898734 67.564557 5.99493671 68.3746835 5.50886076 69.3468354 5.34683544 70.156962 5.34683544zM70.4810127 7.61518987C69.1848101 7.61518987 67.8886076 8.10126582 66.9164557 9.07341772 65.7822785 10.0455696 65.2962025 11.5037975 65.2962025 13.2860759 65.2962025 15.0683544 65.7822785 16.5265823 66.9164557 17.4987342 68.0506329 18.4708861 69.1848101 18.956962 70.4810127 18.956962 71.7772152 18.956962 73.0734177 18.4708861 74.0455696 17.4987342 75.0177215 16.5265823 75.5037975 15.0683544 75.5037975 13.1240506 75.5037975 11.1797468 75.0177215 9.8835443 74.0455696 8.91139241 73.0734177 8.10126582 71.7772152 7.61518987 70.4810127 7.61518987zM90.4101266.162025316L90.4101266 2.43037975 87.8177215 2.43037975 87.8177215.162025316 90.4101266.162025316zM90.4101266 5.50886076L90.4101266 21.2253165 87.8177215 21.2253165 87.8177215 5.50886076 90.4101266 5.50886076z"/>
      <polygon points="102.886 .162 102.886 21.225 100.294 21.225 100.294 .162 102.886 .162"/>
      <polygon points="130.754 18.795 141.772 18.795 141.772 21.063 128 21.063 128 0 141.448 0 141.448 2.268 130.754 2.268 130.754 9.235 138.532 9.235 138.532 11.504 130.754 11.504 130.754 18.795"/>
      <polygon points="162.673 21.225 158.137 15.068 153.6 21.225 150.684 21.225 156.678 13.286 151.008 5.671 153.924 5.671 158.137 11.504 162.187 5.671 165.104 5.671 159.433 13.286 165.428 21.225 162.673 21.225"/>
      <path d="M180.496203 5.34683544C181.792405 5.34683544 182.926582 5.67088608 184.060759 6.31898734 185.194937 6.96708861 186.167089 7.93924051 186.81519 9.07341772L184.546835 10.0455696C184.060759 9.23544304 183.574684 8.74936709 182.764557 8.26329114 181.95443 7.77721519 181.144304 7.61518987 180.334177 7.61518987 179.037975 7.61518987 177.903797 8.10126582 176.76962 9.07341772 175.635443 10.0455696 175.149367 11.5037975 175.149367 13.2860759 175.149367 15.0683544 175.635443 16.5265823 176.76962 17.4987342 177.903797 18.4708861 179.037975 18.956962 180.334177 18.956962 181.144304 18.956962 181.95443 18.7949367 182.764557 18.3088608 183.574684 17.8227848 184.060759 17.3367089 184.546835 16.5265823L186.81519 17.4987342C186.167089 18.6329114 185.194937 19.6050633 184.060759 20.2531646 182.926582 20.9012658 181.63038 21.2253165 180.496203 21.2253165 179.362025 21.2253165 178.065823 20.9012658 176.931646 20.4151899 175.797468 19.7670886 174.825316 18.956962 174.01519 17.6607595 173.205063 16.364557 172.718987 14.9063291 172.718987 13.2860759 172.718987 11.6658228 173.205063 10.0455696 174.01519 8.91139241 174.825316 7.61518987 175.797468 6.80506329 176.931646 6.15696203 178.065823 5.67088608 179.362025 5.34683544 180.496203 5.34683544zM202.693671 5.34683544C203.503797 5.34683544 204.475949 5.50886076 205.286076 5.83291139 206.096203 6.15696203 206.906329 6.64303797 207.716456 7.29113924 208.526582 7.93924051 209.174684 8.74936709 209.498734 9.8835443 209.98481 10.8556962 210.146835 12.1518987 210.146835 13.2860759 210.146835 13.6101266 210.146835 13.9341772 209.98481 14.2582278L197.670886 14.2582278C197.832911 15.878481 198.481013 17.0126582 199.453165 17.8227848 200.425316 18.6329114 201.721519 19.1189873 202.855696 19.1189873 204.475949 19.1189873 205.772152 18.6329114 206.906329 17.4987342L208.850633 18.6329114C207.23038 20.4151899 205.286076 21.3873418 202.855696 21.3873418 201.883544 21.3873418 201.073418 21.2253165 200.101266 20.9012658 199.129114 20.5772152 198.318987 20.0911392 197.508861 19.443038 196.698734 18.7949367 196.050633 17.9848101 195.564557 16.8506329 195.078481 15.7164557 194.75443 14.5822785 194.75443 13.2860759 194.75443 11.5037975 195.240506 10.0455696 196.050633 8.91139241 196.860759 7.61518987 197.832911 6.80506329 198.967089 6.15696203 200.263291 5.67088608 201.397468 5.34683544 202.693671 5.34683544zM205.934177 8.91139241C204.962025 8.10126582 203.827848 7.61518987 202.693671 7.61518987 201.559494 7.61518987 200.425316 8.10126582 199.453165 8.91139241 198.481013 9.72151899 197.832911 10.8556962 197.832911 12.4759494L207.878481 12.4759494C207.55443 10.8556962 206.906329 9.72151899 205.934177 8.91139241z"/>
      <polygon points="222.299 .162 222.299 21.225 219.706 21.225 219.706 .162 222.299 .162"/>
      <polygon points="234.775 .162 234.775 21.225 232.182 21.225 232.182 .162 234.775 .162"/>
      <path d="M251.787342 5.34683544C252.597468 5.34683544 253.56962 5.50886076 254.379747 5.83291139 255.189873 6.15696203 256 6.64303797 256.810127 7.29113924 257.620253 7.93924051 258.268354 8.74936709 258.592405 9.8835443 259.078481 10.8556962 259.240506 12.1518987 259.240506 13.2860759 259.240506 13.6101266 259.240506 13.9341772 259.078481 14.2582278L246.602532 14.2582278C246.764557 15.878481 247.412658 17.0126582 248.38481 17.8227848 249.356962 18.6329114 250.653165 19.1189873 251.787342 19.1189873 253.407595 19.1189873 254.703797 18.6329114 255.837975 17.4987342L257.782278 18.6329114C256.162025 20.4151899 254.217722 21.3873418 251.787342 21.3873418 250.81519 21.3873418 250.005063 21.2253165 249.032911 20.9012658 248.060759 20.5772152 247.250633 20.0911392 246.440506 19.443038 245.63038 18.7949367 244.982278 17.9848101 244.496203 16.8506329 244.010127 15.7164557 243.686076 14.5822785 243.686076 13.2860759 243.686076 11.5037975 244.172152 10.0455696 244.982278 8.91139241 245.792405 7.61518987 246.764557 6.80506329 247.898734 6.15696203 249.518987 5.67088608 250.653165 5.34683544 251.787342 5.34683544zM255.189873 8.91139241C254.217722 8.10126582 253.083544 7.61518987 251.949367 7.61518987 250.81519 7.61518987 249.681013 8.10126582 248.708861 8.91139241 247.736709 9.72151899 247.088608 10.8556962 247.088608 12.4759494L257.134177 12.4759494C256.648101 10.8556962 256.162025 9.72151899 255.189873 8.91139241zM277.063291 5.34683544C278.683544 5.34683544 280.141772 5.83291139 281.275949 6.96708861 282.410127 8.10126582 283.058228 9.72151899 283.058228 11.9898734L283.058228 21.0632911 280.465823 21.0632911 280.465823 11.9898734C280.465823 10.3696203 280.141772 9.23544304 279.331646 8.58734177 278.683544 7.77721519 277.711392 7.45316456 276.41519 7.45316456 275.118987 7.45316456 273.98481 7.93924051 273.012658 8.91139241 272.040506 9.8835443 271.55443 10.8556962 271.23038 11.8278481L271.23038 21.0632911 268.637975 21.0632911 268.637975 5.34683544 271.23038 5.34683544 271.23038 8.91139241C271.392405 8.10126582 272.040506 7.29113924 273.012658 6.48101266 274.308861 5.83291139 275.443038 5.34683544 277.063291 5.34683544zM299.746835 5.34683544C301.043038 5.34683544 302.177215 5.67088608 303.311392 6.31898734 304.44557 6.96708861 305.417722 7.93924051 306.065823 9.07341772L303.797468 10.0455696C303.311392 9.23544304 302.825316 8.74936709 302.01519 8.26329114 301.205063 7.77721519 300.394937 7.61518987 299.58481 7.61518987 298.288608 7.61518987 297.15443 8.10126582 296.020253 9.07341772 294.886076 10.0455696 294.4 11.5037975 294.4 13.2860759 294.4 15.0683544 294.886076 16.5265823 296.020253 17.4987342 297.15443 18.4708861 298.288608 18.956962 299.58481 18.956962 300.394937 18.956962 301.205063 18.7949367 302.01519 18.3088608 302.825316 17.8227848 303.311392 17.3367089 303.797468 16.5265823L306.065823 17.4987342C305.417722 18.6329114 304.44557 19.6050633 303.311392 20.2531646 302.177215 20.9012658 300.881013 21.2253165 299.746835 21.2253165 298.612658 21.2253165 297.316456 20.9012658 296.182278 20.4151899 295.048101 19.7670886 294.075949 18.956962 293.265823 17.6607595 292.455696 16.364557 291.96962 14.9063291 291.96962 13.2860759 291.96962 11.6658228 292.455696 10.0455696 293.265823 8.91139241 294.075949 7.61518987 295.048101 6.80506329 296.182278 6.15696203 297.316456 5.67088608 298.612658 5.34683544 299.746835 5.34683544zM321.944304 5.34683544C322.75443 5.34683544 323.726582 5.50886076 324.536709 5.83291139 325.346835 6.15696203 326.156962 6.64303797 326.967089 7.29113924 327.777215 7.93924051 328.425316 8.74936709 328.749367 9.8835443 329.235443 10.8556962 329.397468 12.1518987 329.397468 13.2860759 329.397468 13.6101266 329.397468 13.9341772 329.235443 14.2582278L316.759494 14.2582278C316.921519 15.878481 317.56962 17.0126582 318.541772 17.8227848 319.513924 18.6329114 320.810127 19.1189873 321.944304 19.1189873 323.564557 19.1189873 324.860759 18.6329114 325.994937 17.4987342L327.939241 18.6329114C326.318987 20.4151899 324.374684 21.3873418 321.944304 21.3873418 320.972152 21.3873418 320.162025 21.2253165 319.189873 20.9012658 318.217722 20.5772152 317.407595 20.0911392 316.597468 19.443038 315.787342 18.7949367 315.139241 17.9848101 314.653165 16.8506329 314.167089 15.7164557 313.843038 14.5822785 313.843038 13.2860759 313.843038 11.5037975 314.329114 10.0455696 315.139241 8.91139241 315.949367 7.61518987 316.921519 6.80506329 318.055696 6.15696203 319.513924 5.67088608 320.648101 5.34683544 321.944304 5.34683544zM325.18481 8.91139241C324.212658 8.10126582 323.078481 7.61518987 321.944304 7.61518987 320.810127 7.61518987 319.675949 8.10126582 318.703797 8.91139241 317.731646 9.72151899 317.083544 10.8556962 317.083544 12.4759494L327.129114 12.4759494C326.805063 10.8556962 326.156962 9.72151899 325.18481 8.91139241z"/>
    </g>
  </g>
</svg>
