<svg xmlns="http://www.w3.org/2000/svg" width="535" height="128" viewBox="0 0 535 128">
  <defs>
    <linearGradient id="yoobic_landscape_full_dark-a" x1="12.459%" x2="72.367%" y1="-35.023%" y2="66.961%">
      <stop offset="5.629%" stop-color="#45E2FF"/>
      <stop offset="100%" stop-color="#7C6AFF"/>
    </linearGradient>
  </defs>
  <g fill="none" fill-rule="evenodd">
    <path fill="url(#yoobic_landscape_full_dark-a)" fill-rule="nonzero" d="M101.004703,52.4962025 L124.188769,1.62025316 L115.596073,1.62025316 C99.0591875,0.972151899 84.3056915,10.8556962 76.685754,27.3822785 L62.0943843,58.8151899 L47.5030146,27.3822785 C40.0452034,10.8556962 25.2917074,0.972151899 8.91694814,1.62025316 L0,1.62025316 L23.1840652,51.5240506 C29.506992,65.2962025 40.8558351,74.3696203 53.8259415,76.6379747 L54.1501941,76.6379747 L53.9880678,76.8 C53.8259415,77.1240506 53.6638151,77.4481013 53.5016888,77.6101266 L30.6418763,127.513924 L39.2345718,127.837975 C55.7714574,128.486076 70.5249534,118.602532 78.1448909,102.075949 L101.004703,52.4962025"/>
    <g fill="#353068" fill-rule="nonzero" transform="translate(152.399 9.722)">
      <polygon points="57.879 .648 34.047 36.456 34.047 63.838 24.157 63.838 24.157 36.456 .324 .648 11.673 .648 29.183 27.706 46.692 .648"/>
      <path d="M99.2213138 0C107.489757 0 114.947568 3.07848101 121.432621 9.23544304 127.917674 15.3924051 131.160201 23.1696203 131.160201 32.4050633 131.160201 41.6405063 127.917674 49.4177215 121.432621 55.5746835 114.947568 61.7316456 107.651883 64.8101266 99.2213138 64.8101266 91.1149973 64.8101266 83.6571861 61.7316456 77.172133 55.5746835 70.6870798 49.4177215 67.4445532 41.6405063 67.4445532 32.5670886 67.4445532 23.3316456 70.6870798 15.7164557 77.172133 9.55949367 83.6571861 3.07848101 91.1149973 0 99.2213138 0zM99.3834401 9.8835443C93.8711449 9.8835443 89.007355 11.9898734 84.9541968 16.2025316 80.7389122 20.4151899 78.7933963 25.7620253 78.7933963 32.243038 78.7933963 38.7240506 80.9010385 44.0708861 84.9541968 48.4455696 89.1694814 52.6582278 93.8711449 54.764557 99.3834401 54.764557 105.219988 54.764557 110.083778 52.6582278 113.97481 48.4455696 117.865842 44.2329114 119.973484 38.8860759 119.973484 32.243038 119.973484 25.6 118.027968 20.2531646 113.97481 16.0405063 109.921652 11.8278481 105.057862 9.8835443 99.3834401 9.8835443zM181.905742 0C190.174185 0 197.631996 3.07848101 204.117049 9.23544304 210.602102 15.3924051 213.844629 23.1696203 213.844629 32.4050633 213.844629 41.6405063 210.602102 49.4177215 204.117049 55.5746835 197.631996 61.7316456 190.336311 64.8101266 181.905742 64.8101266 173.799425 64.8101266 166.341614 61.7316456 159.856561 55.5746835 153.371508 49.4177215 150.128981 41.6405063 150.128981 32.5670886 150.128981 23.3316456 153.371508 15.7164557 159.856561 9.55949367 166.341614 3.07848101 173.799425 0 181.905742 0zM181.905742 9.8835443C176.393447 9.8835443 171.529657 11.9898734 167.476499 16.2025316 163.261214 20.4151899 161.315698 25.7620253 161.315698 32.243038 161.315698 38.7240506 163.42334 44.0708861 167.476499 48.4455696 171.691783 52.6582278 176.393447 54.764557 181.905742 54.764557 187.74229 54.764557 192.60608 52.6582278 196.497112 48.4455696 200.388144 44.2329114 202.495786 38.8860759 202.495786 32.243038 202.495786 25.6 200.55027 20.2531646 196.497112 16.0405063 192.60608 11.8278481 187.74229 9.8835443 181.905742 9.8835443zM267.832697 29.0025316C272.047981 30.6227848 275.290508 32.8911392 277.236024 35.8075949 279.343666 38.7240506 280.316424 41.8025316 280.316424 45.3670886 280.316424 51.2 278.208782 55.7367089 274.155624 59.1392405 270.102465 62.3797468 264.265917 64 256.970233 64L233.624041 64 233.624041.648101266 256.321727.648101266C262.320402.648101266 267.022065 2.10632911 270.426718 4.86075949 273.831371 7.77721519 275.614761 11.8278481 275.614761 17.0126582 275.614761 19.6050633 274.966255 22.035443 273.669245 24.1417722 272.372234 26.4101266 270.426718 27.8683544 267.832697 29.0025316zM243.838 25.6L256.483854 25.6C262.806781 25.6 265.887181 22.8455696 265.887181 17.4987342 265.887181 14.9063291 265.076549 12.9620253 263.455286 11.5037975 261.834023 10.0455696 259.564254 9.39746835 256.483854 9.39746835L243.838 9.39746835 243.838 25.6zM257.942991 55.2506329C261.996149 55.2506329 265.076549 54.278481 267.184191 52.4962025 269.291834 50.7139241 270.264592 48.121519 270.264592 44.8810127 270.264592 41.8025316 269.129707 39.3721519 267.022065 37.2658228 264.914423 35.321519 261.834023 34.1873418 257.780864 34.1873418L243.513747 34.1873418 243.513747 55.2506329 257.942991 55.2506329z"/>
      <polygon points="310.31 .648 310.31 64 299.934 64 299.934 .648"/>
      <path d="M361.217463,0 C369.323779,0 376.295211,2.59240506 381.969633,7.93924051 L375.646706,15.3924051 C371.593548,11.6658228 366.891884,9.8835443 361.379589,9.8835443 C355.705167,9.8835443 350.841378,11.9898734 346.626093,16.364557 C342.410808,20.7392405 340.303166,26.0860759 340.303166,32.243038 C340.303166,38.5620253 342.410808,43.9088608 346.626093,48.121519 C350.841378,52.4962025 355.705167,54.6025316 361.379589,54.6025316 C366.729758,54.6025316 371.593548,52.6582278 375.808832,48.9316456 L382.131759,56.3848101 C376.295211,61.7316456 369.323779,64.4860759 361.217463,64.4860759 C355.867294,64.4860759 350.841378,63.1898734 345.977588,60.435443 C341.113798,57.6810127 337.222766,53.9544304 333.980239,48.9316456 C330.899839,43.9088608 329.278576,38.4 329.278576,32.243038 C329.278576,26.0860759 330.899839,20.4151899 333.980239,15.3924051 C337.06064,10.3696203 341.113798,6.48101266 345.977588,3.72658228 C350.841378,1.29620253 355.867294,0 361.217463,0 Z"/>
    </g>
    <g fill="#353068" fill-rule="nonzero" transform="translate(178.339 95.595)">
      <path d="M15.8883803 21.2253165L12.80798 21.2253165 7.13355851 13.1240506 3.40465292 13.1240506 3.40465292 21.2253165.810631649 21.2253165.810631649.162025316 7.78206383.162025316C10.0518324.162025316 11.8352221.810126582 13.1322327 1.9443038 14.4292433 3.24050633 15.0777487 4.69873418 15.0777487 6.64303797 15.0777487 8.26329114 14.5913697 9.55949367 13.6186117 10.6936709 12.6458537 11.8278481 11.3488431 12.6379747 9.72757978 12.9620253L15.8883803 21.2253165zM3.40465292 2.43037975L3.40465292 10.6936709 7.6199375 10.6936709C9.07907447 10.6936709 10.3760851 10.3696203 11.1867168 9.55949367 11.9973484 8.74936709 12.4837274 7.77721519 12.4837274 6.48101266 12.4837274 5.18481013 11.9973484 4.21265823 11.1867168 3.40253165 10.3760851 2.59240506 9.07907447 2.26835443 7.6199375 2.26835443L3.40465292 2.26835443 3.40465292 2.43037975zM30.966129 5.34683544C31.7767606 5.34683544 32.7495186 5.50886076 33.5601503 5.83291139 34.3707819 6.15696203 35.1814136 6.64303797 35.9920452 7.29113924 36.8026769 7.93924051 37.4511822 8.74936709 37.7754348 9.8835443 38.2618138 10.8556962 38.4239401 12.1518987 38.4239401 13.2860759 38.4239401 13.6101266 38.4239401 13.9341772 38.2618138 14.2582278L25.7780864 14.2582278C25.9402128 15.878481 26.5887181 17.0126582 27.5614761 17.8227848 28.534234 18.6329114 29.8312447 19.1189873 30.966129 19.1189873 32.5873923 19.1189873 33.8844029 18.6329114 35.0192872 17.4987342L36.9648032 18.6329114C35.3435399 20.4151899 33.3980239 21.3873418 30.966129 21.3873418 29.993371 21.3873418 29.1827394 21.2253165 28.2099814 20.9012658 27.2372234 20.5772152 26.4265917 20.0911392 25.6159601 19.443038 24.8053285 18.7949367 24.1568231 17.9848101 23.6704441 16.8506329 23.1840652 15.7164557 22.8598125 14.5822785 22.8598125 13.2860759 22.8598125 11.5037975 23.3461915 10.0455696 24.1568231 8.91139241 24.9674548 7.61518987 25.9402128 6.80506329 27.0750971 6.15696203 28.6963604 5.67088608 29.8312447 5.34683544 30.966129 5.34683544zM34.3707819 8.91139241C33.3980239 8.10126582 32.2631396 7.61518987 31.1282553 7.61518987 29.993371 7.61518987 28.8584867 8.10126582 27.8857287 8.91139241 26.9129707 9.72151899 26.2644654 10.8556962 26.2644654 12.4759494L36.3162979 12.4759494C35.9920452 10.8556962 35.3435399 9.72151899 34.3707819 8.91139241zM52.5289308 19.1189873C53.1774362 19.1189873 53.8259415 18.956962 54.6365731 18.6329114L54.6365731 20.7392405C53.9880678 21.0632911 53.0153098 21.2253165 51.8804255 21.2253165 50.9076675 21.2253165 50.0970359 20.9012658 49.6106569 20.4151899 48.9621516 19.9291139 48.8000253 18.956962 48.8000253 17.6607595L48.8000253 7.45316456 46.692383 7.45316456 46.692383 5.34683544 48.8000253 5.34683544 48.8000253 2.59240506 51.3940465 2.59240506 51.3940465 5.34683544 54.6365731 5.34683544 54.6365731 7.45316456 51.3940465 7.45316456 51.3940465 17.4987342C51.3940465 18.6329114 51.7182992 19.1189873 52.5289308 19.1189873zM70.2007008 5.34683544C71.4977114 5.34683544 72.4704694 5.67088608 73.4432274 6.15696203 74.4159854 6.80506329 75.0644907 7.45316456 75.3887433 8.42531646L75.3887433 5.50886076 77.9827646 5.50886076 77.9827646 21.2253165 75.3887433 21.2253165 75.3887433 18.3088608C75.0644907 19.2810127 74.4159854 19.9291139 73.4432274 20.5772152 72.4704694 21.2253165 71.3355851 21.5493671 70.2007008 21.5493671 68.2551848 21.5493671 66.6339215 20.9012658 65.0126582 19.443038 63.3913949 17.9848101 62.7428896 16.0405063 62.7428896 13.6101266 62.7428896 12.3139241 62.9050159 11.1797468 63.3913949 10.0455696 63.8777739 8.91139241 64.5262792 8.10126582 65.1747846 7.45316456 65.8232899 6.80506329 66.6339215 6.31898734 67.6066795 5.99493671 68.4173112 5.50886076 69.3900691 5.34683544 70.2007008 5.34683544zM70.5249534 7.61518987C69.2279428 7.61518987 67.9309322 8.10126582 66.9581742 9.07341772 65.8232899 10.0455696 65.3369109 11.5037975 65.3369109 13.2860759 65.3369109 15.0683544 65.8232899 16.5265823 66.9581742 17.4987342 68.0930585 18.4708861 69.2279428 18.956962 70.5249534 18.956962 71.8219641 18.956962 73.1189747 18.4708861 74.0917327 17.4987342 75.0644907 16.5265823 75.5508697 15.0683544 75.5508697 13.1240506 75.5508697 11.1797468 75.0644907 9.8835443 74.0917327 8.91139241 73.1189747 8.10126582 71.8219641 7.61518987 70.5249534 7.61518987zM90.466492.162025316L90.466492 2.43037975 87.8724707 2.43037975 87.8724707.162025316 90.466492.162025316zM90.466492 5.50886076L90.466492 21.2253165 87.8724707 21.2253165 87.8724707 5.50886076 90.466492 5.50886076z"/>
      <polygon points="102.95 .162 102.95 21.225 100.356 21.225 100.356 .162 102.95 .162"/>
      <polygon points="130.836 18.795 141.861 18.795 141.861 21.063 128.08 21.063 128.08 0 141.536 0 141.536 2.268 130.836 2.268 130.836 9.235 138.618 9.235 138.618 11.504 130.836 11.504 130.836 18.795"/>
      <polygon points="162.775 21.225 158.235 15.068 153.696 21.225 150.777 21.225 156.776 13.286 151.102 5.671 154.02 5.671 158.235 11.504 162.288 5.671 165.207 5.671 159.532 13.286 165.531 21.225 162.775 21.225"/>
      <path d="M180.608731 5.34683544C181.905742 5.34683544 183.040626 5.67088608 184.175511 6.31898734 185.310395 6.96708861 186.283153 7.93924051 186.931658 9.07341772L184.66189 10.0455696C184.175511 9.23544304 183.689132 8.74936709 182.8785 8.26329114 182.067868 7.77721519 181.257237 7.61518987 180.446605 7.61518987 179.149594 7.61518987 178.01471 8.10126582 176.879826 9.07341772 175.744941 10.0455696 175.258562 11.5037975 175.258562 13.2860759 175.258562 15.0683544 175.744941 16.5265823 176.879826 17.4987342 178.01471 18.4708861 179.149594 18.956962 180.446605 18.956962 181.257237 18.956962 182.067868 18.7949367 182.8785 18.3088608 183.689132 17.8227848 184.175511 17.3367089 184.66189 16.5265823L186.931658 17.4987342C186.283153 18.6329114 185.310395 19.6050633 184.175511 20.2531646 183.040626 20.9012658 181.743616 21.2253165 180.608731 21.2253165 179.473847 21.2253165 178.176836 20.9012658 177.041952 20.4151899 175.907068 19.7670886 174.93431 18.956962 174.123678 17.6607595 173.313046 16.364557 172.826668 14.9063291 172.826668 13.2860759 172.826668 11.6658228 173.313046 10.0455696 174.123678 8.91139241 174.93431 7.61518987 175.907068 6.80506329 177.041952 6.15696203 178.176836 5.67088608 179.473847 5.34683544 180.608731 5.34683544zM202.820039 5.34683544C203.63067 5.34683544 204.603428 5.50886076 205.41406 5.83291139 206.224691 6.15696203 207.035323 6.64303797 207.845955 7.29113924 208.656586 7.93924051 209.305092 8.74936709 209.629344 9.8835443 210.115723 10.8556962 210.27785 12.1518987 210.27785 13.2860759 210.27785 13.6101266 210.27785 13.9341772 210.115723 14.2582278L197.794122 14.2582278C197.956249 15.878481 198.604754 17.0126582 199.577512 17.8227848 200.55027 18.6329114 201.847281 19.1189873 202.982165 19.1189873 204.603428 19.1189873 205.900439 18.6329114 207.035323 17.4987342L208.980839 18.6329114C207.359576 20.4151899 205.41406 21.3873418 202.982165 21.3873418 202.009407 21.3873418 201.198775 21.2253165 200.226017 20.9012658 199.253259 20.5772152 198.442628 20.0911392 197.631996 19.443038 196.821364 18.7949367 196.172859 17.9848101 195.68648 16.8506329 195.200101 15.7164557 194.875848 14.5822785 194.875848 13.2860759 194.875848 11.5037975 195.362227 10.0455696 196.172859 8.91139241 196.983491 7.61518987 197.956249 6.80506329 199.091133 6.15696203 200.388144 5.67088608 201.523028 5.34683544 202.820039 5.34683544zM206.062565 8.91139241C205.089807 8.10126582 203.954923 7.61518987 202.820039 7.61518987 201.685154 7.61518987 200.55027 8.10126582 199.577512 8.91139241 198.604754 9.72151899 197.956249 10.8556962 197.956249 12.4759494L208.008081 12.4759494C207.683828 10.8556962 207.035323 9.72151899 206.062565 8.91139241z"/>
      <polygon points="222.437 .162 222.437 21.225 219.843 21.225 219.843 .162 222.437 .162"/>
      <polygon points="234.921 .162 234.921 21.225 232.327 21.225 232.327 .162 234.921 .162"/>
      <path d="M251.944316 5.34683544C252.754948 5.34683544 253.727706 5.50886076 254.538338 5.83291139 255.348969 6.15696203 256.159601 6.64303797 256.970233 7.29113924 257.780864 7.93924051 258.42937 8.74936709 258.753622 9.8835443 259.240001 10.8556962 259.402128 12.1518987 259.402128 13.2860759 259.402128 13.6101266 259.402128 13.9341772 259.240001 14.2582278L246.756274 14.2582278C246.9184 15.878481 247.566906 17.0126582 248.539663 17.8227848 249.512421 18.6329114 250.809432 19.1189873 251.944316 19.1189873 253.56558 19.1189873 254.86259 18.6329114 255.997475 17.4987342L257.942991 18.6329114C256.321727 20.4151899 254.376211 21.3873418 251.944316 21.3873418 250.971558 21.3873418 250.160927 21.2253165 249.188169 20.9012658 248.215411 20.5772152 247.404779 20.0911392 246.594148 19.443038 245.783516 18.7949367 245.135011 17.9848101 244.648632 16.8506329 244.162253 15.7164557 243.838 14.5822785 243.838 13.2860759 243.838 11.5037975 244.324379 10.0455696 245.135011 8.91139241 245.945642 7.61518987 246.9184 6.80506329 248.053285 6.15696203 249.674548 5.67088608 250.809432 5.34683544 251.944316 5.34683544zM255.348969 8.91139241C254.376211 8.10126582 253.241327 7.61518987 252.106443 7.61518987 250.971558 7.61518987 249.836674 8.10126582 248.863916 8.91139241 247.891158 9.72151899 247.242653 10.8556962 247.242653 12.4759494L257.294485 12.4759494C256.808106 10.8556962 256.321727 9.72151899 255.348969 8.91139241zM277.236024 5.34683544C278.857287 5.34683544 280.316424 5.83291139 281.451308 6.96708861 282.586193 8.10126582 283.234698 9.72151899 283.234698 11.9898734L283.234698 21.0632911 280.640677 21.0632911 280.640677 11.9898734C280.640677 10.3696203 280.316424 9.23544304 279.505792 8.58734177 278.857287 7.77721519 277.884529 7.45316456 276.587519 7.45316456 275.290508 7.45316456 274.155624 7.93924051 273.182866 8.91139241 272.210108 9.8835443 271.723729 10.8556962 271.399476 11.8278481L271.399476 21.0632911 268.805455 21.0632911 268.805455 5.34683544 271.399476 5.34683544 271.399476 8.91139241C271.561602 8.10126582 272.210108 7.29113924 273.182866 6.48101266 274.479876 5.83291139 275.614761 5.34683544 277.236024 5.34683544zM299.93371 5.34683544C301.230721 5.34683544 302.365605 5.67088608 303.500489 6.31898734 304.635374 6.96708861 305.608132 7.93924051 306.256637 9.07341772L303.986868 10.0455696C303.500489 9.23544304 303.01411 8.74936709 302.203479 8.26329114 301.392847 7.77721519 300.582215 7.61518987 299.771584 7.61518987 298.474573 7.61518987 297.339689 8.10126582 296.204804 9.07341772 295.06992 10.0455696 294.583541 11.5037975 294.583541 13.2860759 294.583541 15.0683544 295.06992 16.5265823 296.204804 17.4987342 297.339689 18.4708861 298.474573 18.956962 299.771584 18.956962 300.582215 18.956962 301.392847 18.7949367 302.203479 18.3088608 303.01411 17.8227848 303.500489 17.3367089 303.986868 16.5265823L306.256637 17.4987342C305.608132 18.6329114 304.635374 19.6050633 303.500489 20.2531646 302.365605 20.9012658 301.068594 21.2253165 299.93371 21.2253165 298.798826 21.2253165 297.501815 20.9012658 296.366931 20.4151899 295.232046 19.7670886 294.259288 18.956962 293.448657 17.6607595 292.638025 16.364557 292.151646 14.9063291 292.151646 13.2860759 292.151646 11.6658228 292.638025 10.0455696 293.448657 8.91139241 294.259288 7.61518987 295.232046 6.80506329 296.366931 6.15696203 297.501815 5.67088608 298.798826 5.34683544 299.93371 5.34683544zM322.145017 5.34683544C322.955649 5.34683544 323.928407 5.50886076 324.739038 5.83291139 325.54967 6.15696203 326.360302 6.64303797 327.170933 7.29113924 327.981565 7.93924051 328.63007 8.74936709 328.954323 9.8835443 329.440702 10.8556962 329.602828 12.1518987 329.602828 13.2860759 329.602828 13.6101266 329.602828 13.9341772 329.440702 14.2582278L316.956975 14.2582278C317.119101 15.878481 317.767606 17.0126582 318.740364 17.8227848 319.713122 18.6329114 321.010133 19.1189873 322.145017 19.1189873 323.766281 19.1189873 325.063291 18.6329114 326.198175 17.4987342L328.143691 18.6329114C326.522428 20.4151899 324.576912 21.3873418 322.145017 21.3873418 321.172259 21.3873418 320.361628 21.2253165 319.38887 20.9012658 318.416112 20.5772152 317.60548 20.0911392 316.794848 19.443038 315.984217 18.7949367 315.335711 17.9848101 314.849332 16.8506329 314.362953 15.7164557 314.038701 14.5822785 314.038701 13.2860759 314.038701 11.5037975 314.52508 10.0455696 315.335711 8.91139241 316.146343 7.61518987 317.119101 6.80506329 318.253985 6.15696203 319.713122 5.67088608 320.848007 5.34683544 322.145017 5.34683544zM325.387544 8.91139241C324.414786 8.10126582 323.279902 7.61518987 322.145017 7.61518987 321.010133 7.61518987 319.875249 8.10126582 318.902491 8.91139241 317.929733 9.72151899 317.281227 10.8556962 317.281227 12.4759494L327.33306 12.4759494C327.008807 10.8556962 326.360302 9.72151899 325.387544 8.91139241z"/>
    </g>
  </g>
</svg>
