<svg xmlns="http://www.w3.org/2000/svg" xmlns:xlink="http://www.w3.org/1999/xlink" viewBox="0 0 135 135"><defs><style>.cls-1{fill:#3a356a;}.cls-2{fill:#abd2ff;}.cls-3{fill:url(#linear-gradient);}.cls-4{fill:#fff;}</style><linearGradient id="linear-gradient" x1="19.51" y1="97.68" x2="130.71" y2="11.66" gradientUnits="userSpaceOnUse"><stop offset="0" stop-color="#673fef"/><stop offset="0.61" stop-color="#877def"/><stop offset="1" stop-color="#5ab0ff"/></linearGradient></defs><title>Yoobic</title><g id="Briefcase"><path class="cls-1" d="M79.87,61.56H55.25a15.51,15.51,0,0,1-15.5-15.5V35.69a15.51,15.51,0,0,1,15.5-15.5H79.87a15.51,15.51,0,0,1,15.5,15.5V46.06A15.51,15.51,0,0,1,79.87,61.56ZM55.25,27.19a8.51,8.51,0,0,0-8.5,8.5V46.06a8.51,8.51,0,0,0,8.5,8.5H79.87a8.51,8.51,0,0,0,8.5-8.5V35.69a8.51,8.51,0,0,0-8.5-8.5Z"/><path class="cls-2" d="M118.5,46.81v64.38a3.63,3.63,0,0,1-3.62,3.62H20.12a3.63,3.63,0,0,1-3.62-3.62V46.06a4.26,4.26,0,0,1,4.25-4.25H113.5A5,5,0,0,1,118.5,46.81Z"/><path class="cls-3" d="M121,46.14V78c-22.35.5-92.25,2.08-107,2.14V45.36a4.46,4.46,0,0,1,4.46-4.46h97.29A5.26,5.26,0,0,1,121,46.14Z"/><rect class="cls-1" x="61.22" y="69.7" width="12.06" height="20.57" rx="1.61" ry="1.61"/><circle class="cls-4" cx="67.25" cy="83.27" r="4.45"/></g></svg>