<svg xmlns="http://www.w3.org/2000/svg" viewBox="0 0 135 135"><defs><style>.cls-1{fill:#abd2ff;}.cls-2{fill:#6a61ff;}.cls-3{fill:#3a356a;}.cls-4{fill:#ef6e7f;}</style></defs><title>Yoobic</title><g id="Calendar"><rect class="cls-1" x="13.41" y="22.5" width="108.18" height="97.5" rx="11.45" ry="11.45"/><path class="cls-2" d="M121.59,34V44.54c-24.79.09-88.5.3-108.18.1V34A11.48,11.48,0,0,1,24.86,22.5h85.28A11.48,11.48,0,0,1,121.59,34Z"/><path class="cls-3" d="M38.65,15a3.57,3.57,0,0,0-3.56,3.56V31.19a3.57,3.57,0,0,0,7.13,0V18.56A3.58,3.58,0,0,0,38.65,15Z"/><path class="cls-3" d="M68,15a3.57,3.57,0,0,0-3.56,3.56V31.19a3.56,3.56,0,0,0,7.12,0V18.56A3.57,3.57,0,0,0,68,15Z"/><path class="cls-3" d="M97.4,15a3.57,3.57,0,0,0-3.56,3.56V31.19a3.57,3.57,0,0,0,7.13,0V18.56A3.58,3.58,0,0,0,97.4,15Z"/><circle class="cls-2" cx="28.52" cy="60.94" r="6.93"/><circle class="cls-2" cx="28.52" cy="81.13" r="6.93"/><circle class="cls-2" cx="28.52" cy="101.31" r="6.93"/><circle class="cls-2" cx="54.51" cy="60.94" r="6.93"/><circle class="cls-2" cx="54.51" cy="81.13" r="6.93"/><circle class="cls-2" cx="54.51" cy="101.31" r="6.93"/><circle class="cls-2" cx="80.49" cy="60.94" r="6.93"/><circle class="cls-2" cx="80.49" cy="81.13" r="6.93"/><circle class="cls-2" cx="80.49" cy="101.31" r="6.93"/><circle class="cls-4" cx="106.48" cy="60.94" r="6.93"/><circle class="cls-4" cx="106.48" cy="81.13" r="6.93"/></g></svg>