<svg xmlns="http://www.w3.org/2000/svg" xmlns:xlink="http://www.w3.org/1999/xlink" viewBox="0 0 135 135"><defs><style>.cls-1{fill:#8fbcff;}.cls-2{fill:url(#linear-gradient);}.cls-3{fill:url(#linear-gradient-2);}.cls-4{fill:#4234a1;}.cls-5{fill:url(#linear-gradient-3);}.cls-6{fill:#3a3569;}</style><linearGradient id="linear-gradient" x1="58.81" y1="67.17" x2="48.99" y2="91.91" gradientUnits="userSpaceOnUse"><stop offset="0" stop-color="#673fef"/><stop offset="0.61" stop-color="#877def"/><stop offset="1" stop-color="#5ab0ff"/></linearGradient><linearGradient id="linear-gradient-2" x1="-11043.95" y1="67.17" x2="-11053.77" y2="91.91" gradientTransform="matrix(-1, 0, 0, 1, -10963.14, 0)" xlink:href="#linear-gradient"/><linearGradient id="linear-gradient-3" x1="72.75" y1="42.61" x2="64" y2="66.11" xlink:href="#linear-gradient"/></defs><title>Yoobic</title><g id="Campaign"><path class="cls-1" d="M109.45,91.35A11.83,11.83,0,0,0,98.2,99.88a5.42,5.42,0,0,0-2.53-.63,5.64,5.64,0,0,0-5.12,3.36A7.09,7.09,0,0,0,86.1,101a6.65,6.65,0,0,0-.78.06,8.58,8.58,0,0,0-8.24-6.2H77c0-.18,0-.36,0-.55a7.46,7.46,0,0,0-4.63-6.9,4.4,4.4,0,1,0-5.68,0,7.46,7.46,0,0,0-4.63,6.9,7.19,7.19,0,0,0,.09,1l-.09,0a8.55,8.55,0,0,0-11.29,6,7.3,7.3,0,0,0-2.27,1.21,5.64,5.64,0,0,0-5.11-3.36,5.43,5.43,0,0,0-2.54.63,11.74,11.74,0,0,0-23,3.59,12.18,12.18,0,0,0,5.79,10.42h91.85a12.2,12.2,0,0,0,5.78-10.42A12,12,0,0,0,109.45,91.35Z"/><polygon class="cls-2" points="58.94 66.84 47.59 72.32 48.97 91.99 63.96 77.31 58.94 66.84"/><polygon class="cls-3" points="80.68 66.84 92.03 72.32 90.66 91.99 75.67 77.31 80.68 66.84"/><path class="cls-4" d="M83.27,53.58c0,15.92-6.16,28.82-13.75,28.82S55.78,69.5,55.78,53.58c0-12.23,8.11-28.89,11.87-35.95a2.12,2.12,0,0,1,3.74,0C75.15,24.69,83.27,41.35,83.27,53.58Z"/><circle class="cls-5" cx="69.52" cy="51.28" r="7.32"/><circle class="cls-1" cx="69.52" cy="51.28" r="5.33"/><rect class="cls-6" x="8.17" y="113.49" width="118.67" height="5"/></g></svg>