<svg xmlns="http://www.w3.org/2000/svg" xmlns:xlink="http://www.w3.org/1999/xlink" viewBox="0 0 135 135"><defs><style>.cls-1{fill:#3a3569;}.cls-2{fill:#cdf5f2;}.cls-3{fill:url(#linear-gradient);}.cls-4{fill:#e6faf9;}.cls-5{fill:#f37e72;}</style><linearGradient id="linear-gradient" x1="21.59" y1="58.91" x2="103" y2="58.91" gradientUnits="userSpaceOnUse"><stop offset="0" stop-color="#08cdc1"/><stop offset="1" stop-color="#55ebe2"/></linearGradient></defs><title>Yoobic</title><g id="Category"><polygon class="cls-1" points="21.59 103.44 32 112.04 34.42 109.38 25.71 99.21 21.59 103.44"/><polygon class="cls-1" points="113.42 111.59 32 112.04 29.42 22.48 112.42 21.63 113.42 111.59"/><path class="cls-2" d="M22.46,102.48,33,109.91h76V23.2l-6.91-7.87Z"/><rect class="cls-2" x="33.04" y="23.2" width="76" height="86.71"/><polygon class="cls-3" points="103 102.99 21.59 103.44 21.59 14.82 103 14.38 103 102.99"/><polygon class="cls-4" points="40.36 34.44 40.36 57.88 84.17 58.13 86.48 32.44 40.36 34.44"/><path class="cls-1" d="M78.2,42.71H46.11a1,1,0,0,1,0-2H78.2a1,1,0,0,1,0,2Z"/><path class="cls-1" d="M70.09,50.19H46.26a1,1,0,1,1,0-2H70.09a1,1,0,0,1,0,2Z"/><polygon class="cls-5" points="83.13 105.21 83.13 120.63 89 114.96 95.5 120.21 95.5 105.21 83.13 105.21"/></g></svg>