<?xml version="1.0" encoding="UTF-8"?>
<svg width="236px" height="236px" viewBox="0 0 236 236" version="1.1" xmlns="http://www.w3.org/2000/svg" xmlns:xlink="http://www.w3.org/1999/xlink">
    <!-- Generator: Sketch 49.3 (51167) - http://www.bohemiancoding.com/sketch -->
    <title>Artwork</title>
    <desc>Created with Sketch.</desc>
    <defs>
        <circle id="path-1" cx="118" cy="118" r="118"></circle>
        <rect id="path-3" x="53" y="86" width="129" height="152"></rect>
    </defs>
    <g id="Page-1" stroke="none" stroke-width="1" fill="none" fill-rule="evenodd">
        <g id="Chat---Direct-Empty" transform="translate(-70.000000, -150.000000)">
            <g id="Artwork" transform="translate(70.000000, 150.000000)">
                <mask id="mask-2" fill="white">
                    <use xlink:href="#path-1"></use>
                </mask>
                <g id="clip" opacity="0.5">
                    <use fill="#F1F1F1" fill-rule="evenodd" xlink:href="#path-1"></use>
                    <circle stroke-opacity="0.0198992301" stroke="#1B3554" stroke-width="1" cx="118" cy="118" r="117.5"></circle>
                </g>
                <path d="M76,48 L160,48 C176.568542,48 190,61.4314575 190,78 L190,238 L46,238 L46,78 C46,61.4314575 59.4314575,48 76,48 Z" id="base" stroke="#2EDBB7" stroke-width="2" fill="#FFFFFF" mask="url(#mask-2)"></path>
                <g id="screen" mask="url(#mask-2)">
                    <use fill="#FFFFFF" fill-rule="evenodd" xlink:href="#path-3"></use>
                    <rect stroke="#F1F1F1" stroke-width="1" x="53.5" y="86.5" width="128" height="151"></rect>
                </g>
                <g id="1" mask="url(#mask-2)">
                    <g transform="translate(63.000000, 96.000000)">
                        <rect id="Rectangle" fill="#2EDBB7" x="0" y="0" width="109" height="40" rx="3"></rect>
                        <rect id="Rectangle-2" fill="#FFFFFF" x="9" y="10" width="78" height="4" rx="2"></rect>
                        <rect id="Rectangle-2-Copy" fill="#FFFFFF" x="9" y="18" width="57" height="4" rx="2"></rect>
                        <rect id="Rectangle-2-Copy-2" fill="#FFFFFF" opacity="0.550000012" x="9" y="28" width="17" height="4" rx="2"></rect>
                    </g>
                </g>
                <g id="2" mask="url(#mask-2)">
                    <g transform="translate(63.000000, 146.000000)">
                        <rect id="Rectangle" fill="#F1F0F0" x="0" y="0" width="109" height="40" rx="3"></rect>
                        <rect id="Rectangle-2" fill="#D0D0D0" x="9" y="10" width="78" height="4" rx="2"></rect>
                        <rect id="Rectangle-2-Copy" fill="#D0D0D0" x="9" y="18" width="57" height="4" rx="2"></rect>
                        <rect id="Rectangle-2-Copy-2" fill="#D0D0D0" opacity="0.550622747" x="9" y="28" width="17" height="4" rx="2"></rect>
                    </g>
                </g>
            </g>
        </g>
    </g>
</svg>