<svg xmlns="http://www.w3.org/2000/svg" xmlns:xlink="http://www.w3.org/1999/xlink" viewBox="0 0 135 135"><defs><style>.cls-1{fill:url(#linear-gradient);}.cls-2{fill:#e1dfff;}.cls-3{fill:#3a3569;}</style><linearGradient id="linear-gradient" x1="16.17" y1="85.1" x2="103.94" y2="-10.16" gradientUnits="userSpaceOnUse"><stop offset="0" stop-color="#673fef"/><stop offset="0.61" stop-color="#877def"/><stop offset="1" stop-color="#5ab0ff"/></linearGradient></defs><title>Yoobic</title><g id="Chat"><path class="cls-1" d="M18.55,74.07V31.72c0-4.53,3-8.22,6.72-8.3L79.4,22.24c3.57-.08,6.5,3.42,6.5,7.76V60c0,5-3.47,9.06-7.62,8.81L29.39,65.9a7,7,0,0,0-5.56,2.4Z"/><path class="cls-2" d="M116.45,112.76V65c0-3.65-2.66-6.64-6-6.7L42.39,57c-3.17-.06-5.77,2.75-5.77,6.25v35c0,5.13,3.89,9.21,8.54,9l56.57-3.06a13,13,0,0,1,9.85,3.86Z"/><path class="cls-3" d="M101,75.58H66.44a1,1,0,0,1,0-2H101a1,1,0,0,1,0,2Zm-40.58,0h-12a1,1,0,0,1,0-2h12a1,1,0,0,1,0,2Z"/><path class="cls-2" d="M73.26,39.47H33.32a1,1,0,1,1,0-2H73.26a1,1,0,0,1,0,2Z"/><path class="cls-2" d="M65.38,49.15H33.32a1,1,0,0,1,0-2H65.38a1,1,0,0,1,0,2Z"/><path class="cls-3" d="M92,88.83H48.44a1,1,0,1,1,0-2H92a1,1,0,0,1,0,2Z"/></g></svg>