<svg xmlns="http://www.w3.org/2000/svg" xmlns:xlink="http://www.w3.org/1999/xlink" viewBox="0 0 135 135"><defs><style>.cls-1{fill:#3a3569;}.cls-2{fill:#cdf5f2;}.cls-3{fill:url(#linear-gradient);}.cls-4{fill:#07ccc0;}.cls-5{fill:#6a61ff;}.cls-6{fill:#f37e72;}.cls-7{fill:#1c76fc;}.cls-8{fill:#fff;}</style><linearGradient id="linear-gradient" x1="17.15" y1="110.99" x2="100.4" y2="12.49" gradientUnits="userSpaceOnUse"><stop offset="0" stop-color="#ef6e7f"/><stop offset="1" stop-color="#f89c59"/></linearGradient></defs><title>Yoobic</title><g id="Contact"><polygon class="cls-1" points="16.84 107.73 27.25 116.33 29.67 113.67 20.96 103.5 16.84 107.73"/><polygon class="cls-1" points="108.67 115.88 27.25 116.33 24.67 26.77 107.67 25.92 108.67 115.88"/><path class="cls-2" d="M17.71,106.77l10.58,7.43h76V27.49l-6.91-7.87Z"/><rect class="cls-2" x="28.29" y="27.49" width="76" height="86.71"/><polygon class="cls-3" points="98.25 107.28 16.84 107.73 16.84 19.11 98.25 18.67 98.25 107.28"/><path class="cls-1" d="M73.71,75.71H41.61a1,1,0,0,1,0-2h32.1a1,1,0,0,1,0,2Z"/><path class="cls-1" d="M69.58,81.78H45.74a1,1,0,0,1,0-2H69.58a1,1,0,1,1,0,2Z"/><polygon class="cls-4" points="98.83 40.33 114.25 40.33 108.58 34.47 113.84 27.96 98.83 27.96 98.83 40.33"/><polygon class="cls-5" points="100.29 63.2 115.71 63.2 110.04 57.33 115.3 50.82 100.29 50.82 100.29 63.2"/><polygon class="cls-6" points="101.62 86.29 117.04 86.29 111.37 80.42 116.63 73.91 101.62 73.91 101.62 86.29"/><polygon class="cls-7" points="102.75 109.38 118.17 109.38 112.5 103.51 117.75 97 102.75 97 102.75 109.38"/><path class="cls-8" d="M64.33,45.55l-1.18,9.94a15.74,15.74,0,0,0-.13,2c0,1,.34,1.43,1,1.43q1.65,0,3.15-2.25a9.57,9.57,0,0,0,1.51-5.46,9.49,9.49,0,0,0-3.35-7.52,12,12,0,0,0-8.11-2.89,11.92,11.92,0,0,0-8.8,3.58,12.65,12.65,0,0,0-.21,17.37q3.34,3.62,9.39,3.61a20.86,20.86,0,0,0,9.6-2.52l1.26,2.91a23.6,23.6,0,0,1-10.86,2.66q-7.46,0-11.85-4.49a14.79,14.79,0,0,1-4.39-10.72A14.39,14.39,0,0,1,46,42.32,15.63,15.63,0,0,1,57.16,38a14.9,14.9,0,0,1,10.35,3.76,12.89,12.89,0,0,1,1.84,16.93,6.91,6.91,0,0,1-5.73,3.25A3.65,3.65,0,0,1,60,59.67,5.57,5.57,0,0,1,55.5,62a5.91,5.91,0,0,1-4.65-2.26,8.87,8.87,0,0,1-1.94-6,8.82,8.82,0,0,1,2.18-6.18,6.85,6.85,0,0,1,5.2-2.38A4.76,4.76,0,0,1,60.48,47l.17-1.49Zm-8.56,13a4,4,0,0,0,3.09-1.65,6.51,6.51,0,0,0,1.38-4.3,3.89,3.89,0,0,0-1.06-2.68,3.37,3.37,0,0,0-5.35.27,6.17,6.17,0,0,0-1.09,3.79,5.89,5.89,0,0,0,.84,3.28A2.55,2.55,0,0,0,55.77,58.5Z"/></g></svg>