<svg xmlns="http://www.w3.org/2000/svg" xmlns:xlink="http://www.w3.org/1999/xlink" viewBox="0 0 135 135"><defs><style>.cls-1{fill:#6a61ff;}.cls-2{fill:#f0efff;}.cls-3{fill:url(#linear-gradient);}.cls-4{fill:url(#linear-gradient-2);}.cls-5{fill:#3a3569;}</style><linearGradient id="linear-gradient" x1="27.45" y1="55.49" x2="57.2" y2="19.99" gradientUnits="userSpaceOnUse"><stop offset="0" stop-color="#55ebe2"/><stop offset="1" stop-color="#08cdc1"/></linearGradient><linearGradient id="linear-gradient-2" x1="84.6" y1="78.71" x2="109.35" y2="108.96" gradientUnits="userSpaceOnUse"><stop offset="0" stop-color="#ef6e7f"/><stop offset="1" stop-color="#f89c59"/></linearGradient></defs><title>Yoobic</title><g id="Customformfield"><path class="cls-1" d="M28.72,62.35h77.56A10.72,10.72,0,0,0,117,51.63V41a10.73,10.73,0,0,0-9.7-10.68l-77.56-7.4A10.71,10.71,0,0,0,18,33.6v18A10.72,10.72,0,0,0,28.72,62.35Z"/><path class="cls-1" d="M106.28,112.12H28.72A10.72,10.72,0,0,1,18,101.4V90.78A10.73,10.73,0,0,1,27.7,80.1l77.56-7.4A10.72,10.72,0,0,1,117,83.37v18A10.72,10.72,0,0,1,106.28,112.12Z"/><rect class="cls-2" x="41" y="40.7" width="60.13" height="9.94" rx="4.97" ry="4.97" transform="translate(2.42 -3.57) rotate(2.93)"/><circle class="cls-3" cx="38.25" cy="42.61" r="13.55"/><rect class="cls-2" x="30.71" y="90.6" width="60.12" height="9.94" rx="4.97" ry="4.97"/><circle class="cls-4" cx="97.58" cy="94.57" r="13.55"/><path class="cls-5" d="M36.09,49.44a1,1,0,0,1-.65-.24l-4.82-4.1a1,1,0,0,1-.12-1.41,1,1,0,0,1,1.41-.11l4.14,3.52,9.79-9.18a1,1,0,0,1,1.37,1.46L36.77,49.17A1,1,0,0,1,36.09,49.44Z"/><path class="cls-5" d="M103.36,101.56a1,1,0,0,1-.69-.27L90.94,90a1,1,0,0,1,1.39-1.44l11.73,11.27a1,1,0,0,1,0,1.42A1,1,0,0,1,103.36,101.56Z"/><path class="cls-5" d="M91.86,101.79a1,1,0,0,1-.69-.28,1,1,0,0,1,0-1.41l11.28-11.73a1,1,0,0,1,1.41,0,1,1,0,0,1,0,1.42L92.58,101.49A1,1,0,0,1,91.86,101.79Z"/></g></svg>