<svg xmlns="http://www.w3.org/2000/svg" xmlns:xlink="http://www.w3.org/1999/xlink" viewBox="0 0 135 135"><defs><style>.cls-1{fill:#3a3569;}.cls-2{fill:#1c76fc;opacity:0.2;}.cls-3{fill:#ebf2fc;}.cls-4{fill:url(#linear-gradient);}.cls-5{fill:#6a61ff;}.cls-6{fill:#f2c83a;}.cls-7{fill:url(#linear-gradient-2);}.cls-8{fill:#07ccc0;}</style><linearGradient id="linear-gradient" x1="97.16" y1="34.29" x2="107.88" y2="34.29" gradientUnits="userSpaceOnUse"><stop offset="0" stop-color="#ef6e7f"/><stop offset="1" stop-color="#f89c59"/></linearGradient><linearGradient id="linear-gradient-2" x1="97.16" y1="83.59" x2="107.88" y2="83.59" xlink:href="#linear-gradient"/></defs><title>Yoobic</title><g id="Database"><path class="cls-1" d="M94.08,114.63H41.83a1,1,0,1,1,0-2H94.08a1,1,0,0,1,0,2Z"/><path class="cls-1" d="M68,114.63a1,1,0,0,1-1-1V101a1,1,0,0,1,2,0v12.65A1,1,0,0,1,68,114.63Z"/><path class="cls-2" d="M115.8,29.34V89.7A7.86,7.86,0,0,1,108,97.55L27,94.66a7.86,7.86,0,0,1-7.84-7.85V24.08A7.86,7.86,0,0,1,27,16.23L108,21.49A7.86,7.86,0,0,1,115.8,29.34Z"/><polygon class="cls-3" points="115.81 47.23 115.81 71.56 19.2 69.13 19.2 46.41 115.81 47.23"/><circle class="cls-4" cx="102.52" cy="34.29" r="5.36"/><circle class="cls-5" cx="86.71" cy="34.29" r="5.36"/><circle class="cls-6" cx="102.52" cy="58.59" r="5.36"/><circle class="cls-5" cx="86.71" cy="58.59" r="5.36"/><circle class="cls-7" cx="102.52" cy="83.59" r="5.36"/><circle class="cls-8" cx="67.96" cy="113.42" r="5.35"/><circle class="cls-5" cx="86.71" cy="83.59" r="5.36"/><rect class="cls-5" x="26.87" y="31.97" width="36.33" height="4.63" rx="2.31" ry="2.31"/><rect class="cls-5" x="26.87" y="56.67" width="33.42" height="4.63" rx="2.31" ry="2.31"/><rect class="cls-5" x="26.87" y="80.36" width="42.01" height="4.63" rx="2.31" ry="2.31"/></g></svg>