<svg xmlns="http://www.w3.org/2000/svg" xmlns:xlink="http://www.w3.org/1999/xlink" viewBox="0 0 135 135"><defs><style>.cls-1{fill:#ffe0df;}.cls-2{fill:url(#linear-gradient);}.cls-3{fill:#f2c83a;}.cls-4{fill:#3a3569;}</style><linearGradient id="linear-gradient" x1="27.66" y1="67.5" x2="107.34" y2="67.5" gradientUnits="userSpaceOnUse"><stop offset="0" stop-color="#ef6e7f"/><stop offset="1" stop-color="#f89c59"/></linearGradient></defs><title>Yoobic</title><g id="Emailblocked"><path class="cls-1" d="M109.79,33.15A6.58,6.58,0,0,0,116,39.66l-.19,8.91a6.51,6.51,0,0,0-.27,13l-.2,9.39A6.5,6.5,0,0,0,115,83.7l-.21,9.59a6.48,6.48,0,0,0-.26,12.56l-.24,10.7-7.62.16a6.47,6.47,0,0,0-11.74.25l-10,.22a6.48,6.48,0,0,0-12.15.26l-10,.21a6.49,6.49,0,0,0-12.47.27l-9.66.2A6.5,6.5,0,0,0,28,118.4l-9.46.2v-7.68a6.53,6.53,0,1,0,0-13V88.65a6.53,6.53,0,1,0,0-13.05V66.38a6.53,6.53,0,1,0,0-13V44.47a6.53,6.53,0,1,0,0-13.06v-11l6.09-.25a6.66,6.66,0,0,0,13.25-.54l10.79-.44A6.67,6.67,0,0,0,62,18.66v0l10.61-.43a6.66,6.66,0,0,0,13.31-.44v-.11l9.46-.38a6.66,6.66,0,0,0,13.27-.54l7.8-.32-.21,10.24A6.58,6.58,0,0,0,109.79,33.15Z"/><polygon class="cls-2" points="27.66 109.08 105.59 107.42 107.34 25.91 27.66 29.16 27.66 109.08"/><circle class="cls-3" cx="85.87" cy="48.6" r="14.75"/><path class="cls-4" d="M61,52.23A23.8,23.8,0,0,1,47.67,48.5,21.84,21.84,0,0,0,35.32,45a1,1,0,1,1,0-2,23.8,23.8,0,0,1,13.33,3.73A21.84,21.84,0,0,0,61,50.23a21.9,21.9,0,0,0,12.36-3.47A23.8,23.8,0,0,1,86.69,43a1,1,0,0,1,0,2A21.84,21.84,0,0,0,74.34,48.5,23.81,23.81,0,0,1,61,52.23Z"/><path class="cls-4" d="M61,63.35a23.81,23.81,0,0,1-13.33-3.72,21.76,21.76,0,0,0-12.35-3.47,1,1,0,1,1,0-2,23.81,23.81,0,0,1,13.33,3.72A21.84,21.84,0,0,0,61,61.35a21.9,21.9,0,0,0,12.36-3.47,23.81,23.81,0,0,1,13.33-3.72,1,1,0,0,1,0,2,21.76,21.76,0,0,0-12.35,3.47A23.82,23.82,0,0,1,61,63.35Z"/><path class="cls-4" d="M61,74.48a23.8,23.8,0,0,1-13.33-3.73,21.84,21.84,0,0,0-12.35-3.47,1,1,0,1,1,0-2A23.8,23.8,0,0,1,48.65,69,21.84,21.84,0,0,0,61,72.48,21.9,21.9,0,0,0,73.36,69a23.8,23.8,0,0,1,13.33-3.73,1,1,0,0,1,0,2,21.84,21.84,0,0,0-12.35,3.47A23.81,23.81,0,0,1,61,74.48Z"/></g></svg>