<svg xmlns="http://www.w3.org/2000/svg" xmlns:xlink="http://www.w3.org/1999/xlink" viewBox="0 0 135 135"><defs><style>.cls-1{fill:url(#linear-gradient);}.cls-2{fill:url(#linear-gradient-2);}.cls-3{fill:#6a61ff;}.cls-4{fill:url(#linear-gradient-3);}.cls-5{fill:#f7a166;}.cls-6{fill:#f89b59;}.cls-7{fill:#f37e72;}</style><linearGradient id="linear-gradient" x1="65.95" y1="76.53" x2="40.45" y2="138.03" gradientUnits="userSpaceOnUse"><stop offset="0" stop-color="#ef6e7f"/><stop offset="1" stop-color="#f89c59"/></linearGradient><linearGradient id="linear-gradient-2" x1="101.31" y1="71.33" x2="109.93" y2="71.33" gradientUnits="userSpaceOnUse"><stop offset="0" stop-color="#3a3569"/><stop offset="1" stop-color="#4334a1"/></linearGradient><linearGradient id="linear-gradient-3" x1="28.14" y1="48.08" x2="49.81" y2="48.08" xlink:href="#linear-gradient-2"/></defs><title>Yoobic</title><g id="Empty"><polygon class="cls-1" points="101.32 55.95 101.32 103 32.6 103 28.14 55.95 101.32 55.95"/><polygon class="cls-2" points="101.31 55.95 107.55 39.66 109.93 81.23 101.31 102.99 101.31 55.95"/><polygon class="cls-3" points="107.6 39.66 101.32 56.06 49.81 56.08 49.81 40.21 107.6 39.66"/><polygon class="cls-4" points="49.81 55.95 28.14 55.95 49.81 40.2 49.81 55.95"/><polygon class="cls-5" points="28.14 55.95 24.55 76.02 96.49 76.52 101.32 55.95 28.14 55.95"/><polygon class="cls-6" points="101.27 56.06 115.74 66.56 119.73 45.42 107.55 39.66 101.27 56.06"/><polygon class="cls-7" points="49.81 40.2 41.15 34.2 15.27 50.42 28.14 55.95 49.81 40.2"/><polygon class="cls-7" points="54.81 32.71 49.81 40.22 107.48 39.85 110.5 32 54.81 32.71"/></g></svg>