<svg xmlns="http://www.w3.org/2000/svg" xmlns:xlink="http://www.w3.org/1999/xlink" viewBox="0 0 135 135"><defs><style>.cls-1{fill:url(#linear-gradient);}.cls-2{fill:#e1dfff;}.cls-3{fill:#07ccc0;}.cls-4{fill:#3a3569;}.cls-5{fill:url(#linear-gradient-2);}.cls-6{fill:url(#linear-gradient-3);}.cls-7{fill:url(#linear-gradient-4);}</style><linearGradient id="linear-gradient" x1="22.4" y1="65.81" x2="114.9" y2="65.81" gradientUnits="userSpaceOnUse"><stop offset="0" stop-color="#673fef"/><stop offset="0.61" stop-color="#877def"/><stop offset="1" stop-color="#5ab0ff"/></linearGradient><linearGradient id="linear-gradient-2" x1="31.38" y1="72.85" x2="43.32" y2="61.68" gradientUnits="userSpaceOnUse"><stop offset="0" stop-color="#ef6e7f"/><stop offset="1" stop-color="#f89c59"/></linearGradient><linearGradient id="linear-gradient-3" x1="58.06" y1="54.93" x2="70" y2="43.76" xlink:href="#linear-gradient-2"/><linearGradient id="linear-gradient-4" x1="84.47" y1="80.93" x2="96.41" y2="69.76" xlink:href="#linear-gradient-2"/></defs><title>Yoobic</title><g id="Filter"><path class="cls-1" d="M22.4,24.27l86.84-3.52a5.43,5.43,0,0,1,5.66,5.43v84.7H27.53a5.13,5.13,0,0,1-5.13-5.13V24.27Z"/><path class="cls-2" d="M20.1,27.65,107,24.13a5.43,5.43,0,0,1,5.65,5.43v84.69H25.23a5.13,5.13,0,0,1-5.13-5.13V27.65Z"/><circle class="cls-3" cx="36.91" cy="102.37" r="5.35"/><circle class="cls-3" cx="36.61" cy="102.37" r="5.35"/><circle class="cls-3" cx="63.29" cy="102.37" r="5.35"/><circle class="cls-3" cx="89.7" cy="102.37" r="5.35"/><path class="cls-4" d="M36.61,88.45a1,1,0,0,1-1-1V39.33a1,1,0,0,1,2,0V87.45A1,1,0,0,1,36.61,88.45Z"/><path class="cls-4" d="M63.29,88.45a1,1,0,0,1-1-1V39.33a1,1,0,0,1,2,0V87.45A1,1,0,0,1,63.29,88.45Z"/><path class="cls-4" d="M89.7,88.45a1,1,0,0,1-1-1V39.33a1,1,0,0,1,2,0V87.45A1,1,0,0,1,89.7,88.45Z"/><rect class="cls-5" x="28.09" y="63.7" width="17.04" height="8.5" rx="4.25" ry="4.25"/><rect class="cls-6" x="54.77" y="45.79" width="17.04" height="8.5" rx="4.25" ry="4.25"/><rect class="cls-7" x="81.18" y="71.79" width="17.04" height="8.5" rx="4.25" ry="4.25"/></g></svg>