<svg xmlns="http://www.w3.org/2000/svg" xmlns:xlink="http://www.w3.org/1999/xlink" viewBox="0 0 135 135"><defs><style>.cls-1{fill:#f0efff;}.cls-2{fill:#6a61ff;}.cls-3{fill:url(#linear-gradient);}.cls-4{fill:#3a356a;}.cls-5{fill:url(#linear-gradient-2);}.cls-6{fill:url(#linear-gradient-3);}</style><linearGradient id="linear-gradient" x1="70.32" y1="30.7" x2="66.38" y2="109.31" gradientUnits="userSpaceOnUse"><stop offset="0" stop-color="#673fef"/><stop offset="0.61" stop-color="#877def"/><stop offset="1" stop-color="#5ab0ff"/></linearGradient><linearGradient id="linear-gradient-2" x1="28.44" y1="97.44" x2="41.19" y2="97.44" gradientUnits="userSpaceOnUse"><stop offset="0" stop-color="#55ebe2"/><stop offset="1" stop-color="#08cdc1"/></linearGradient><linearGradient id="linear-gradient-3" x1="95.44" y1="97.44" x2="108.19" y2="97.44" xlink:href="#linear-gradient-2"/></defs><title>Yoobic</title><g id="HQ"><rect class="cls-1" x="26.85" y="58.77" width="21.17" height="46.28"/><rect class="cls-1" x="88.35" y="70.61" width="21.17" height="34.45"/><rect class="cls-2" x="56.12" y="17.11" width="24.13" height="33.81"/><rect class="cls-3" x="47.16" y="41.27" width="42.03" height="64.29"/><rect class="cls-2" x="23.93" y="102.07" width="88.5" height="4.37"/><rect class="cls-2" x="23.93" y="111.07" width="88.5" height="4.37"/><path class="cls-4" d="M35.81,115.44h-2V95.67a1,1,0,0,1,1-1h0a1,1,0,0,1,1,1Z"/><path class="cls-4" d="M102.81,115.44h-2V95.67a1,1,0,0,1,1-1h0a1,1,0,0,1,1,1Z"/><rect class="cls-4" x="60.77" y="24.21" width="14.81" height="4.19"/><rect class="cls-4" x="60.77" y="31.55" width="14.81" height="4.19"/><rect class="cls-4" x="51.61" y="47.61" width="4.33" height="49.83"/><rect class="cls-4" x="61.21" y="47.61" width="4.33" height="49.83"/><rect class="cls-4" x="70.81" y="47.61" width="4.33" height="49.83"/><rect class="cls-4" x="80.42" y="47.61" width="4.33" height="49.83"/><ellipse class="cls-5" cx="34.81" cy="97.44" rx="6.38" ry="11.08"/><ellipse class="cls-6" cx="101.81" cy="97.44" rx="6.38" ry="11.08"/></g></svg>