<svg xmlns="http://www.w3.org/2000/svg" xmlns:xlink="http://www.w3.org/1999/xlink" viewBox="0 0 135 135"><defs><style>.cls-1{fill:#e1dfff;}.cls-2{fill:#f0efff;}.cls-3{fill:url(#linear-gradient);}.cls-4{fill:#3a3569;}.cls-5{fill:#fff;}.cls-6{fill:#d7e5f8;}.cls-7{fill:#f69161;}</style><linearGradient id="linear-gradient" x1="62.63" y1="85.36" x2="16.96" y2="22.29" gradientUnits="userSpaceOnUse"><stop offset="0" stop-color="#673fef"/><stop offset="0.61" stop-color="#877def"/><stop offset="1" stop-color="#5ab0ff"/></linearGradient></defs><title>Yoobic</title><g id="Inbox"><path class="cls-1" d="M106.62,56.07a29.76,29.76,0,0,0-6.16-14c-4.09-5-9.71-8.07-15.9-8.07H47.72c6.2,0,11.82,3.1,15.9,8.07a29.15,29.15,0,0,1,5.57,11.14q.36,1.41.6,2.88a33,33,0,0,1,.44,5.39V80.94h36.83V61.46A32.86,32.86,0,0,0,106.62,56.07Z"/><path class="cls-1" d="M46.23,34c-.56,0-1.11,0-1.66.08V34Z"/><path class="cls-2" d="M105.57,61.46V80.94H68.74V61.46a33,33,0,0,0-.44-5.39q-.24-1.47-.6-2.88a29.15,29.15,0,0,0-5.57-11.14c-4.08-5-9.7-8.07-15.9-8.07H83.07c6.19,0,11.81,3.1,15.9,8.07a29.76,29.76,0,0,1,6.16,14A32.86,32.86,0,0,1,105.57,61.46Z"/><path class="cls-3" d="M68.74,76.19v4.75H27.94V61.46c0-14.43,8.37-26.36,18.88-27.4A15.11,15.11,0,0,1,48.33,34C54,34,59,37.08,62.74,42.05a30.19,30.19,0,0,1,5.05,11.14L46.94,53l-7-.28v23.5Z"/><rect class="cls-4" x="63.49" y="80.94" width="8" height="34.38"/><path class="cls-5" d="M68.74,61.46V76.19H37V51.07h.14l7.48.52L67.7,53.19a31.13,31.13,0,0,1,.64,3.11A33.59,33.59,0,0,1,68.74,61.46Z"/><path class="cls-6" d="M68.34,56.3,57.67,66.15,37.09,51.08l7.48.52L67.7,53.19A31.13,31.13,0,0,1,68.34,56.3Z"/><polygon class="cls-7" points="85.15 29.98 66.32 24.77 66.32 24.77 85.15 19.57 85.15 29.98"/><rect class="cls-4" x="85.15" y="19.43" width="1.08" height="29.08"/><circle class="cls-4" cx="85.69" cy="48.52" r="2.55"/><path class="cls-1" d="M105.57,61.46V80.94H68.74V61.46a33,33,0,0,0-.44-5.39h36.83A32.86,32.86,0,0,1,105.57,61.46Z"/><path class="cls-6" d="M40.82,74.86a1,1,0,0,1-.43-1.9C54,66.45,54,66.45,54.35,66.45a1,1,0,0,1,1,1,1,1,0,0,1-.7,1c-.71.29-8.36,3.94-13.4,6.35A.94.94,0,0,1,40.82,74.86Z"/><path class="cls-6" d="M68,74.65a1,1,0,0,1-.61-.21c-1.46-1.11-6.11-4.57-6.11-4.57l1.19-1.6s4.67,3.47,6.13,4.58a1,1,0,0,1,.19,1.4A1,1,0,0,1,68,74.65Z"/><path class="cls-4" d="M94.57,115.57H39.4a1,1,0,0,1,0-2H94.57a1,1,0,0,1,0,2Z"/></g></svg>