<svg xmlns="http://www.w3.org/2000/svg" xmlns:xlink="http://www.w3.org/1999/xlink" viewBox="0 0 135 135"><defs><style>.cls-1{fill:url(#linear-gradient);}.cls-2{fill:#e1dfff;}.cls-3{fill:#f0efff;}.cls-4{fill:#3a3569;}</style><linearGradient id="linear-gradient" x1="35.53" y1="56.38" x2="108.71" y2="56.38" gradientUnits="userSpaceOnUse"><stop offset="0" stop-color="#ef6e7f"/><stop offset="1" stop-color="#f89c59"/></linearGradient></defs><title>Yoobic</title><g id="page"><rect class="cls-1" x="35.53" y="14.28" width="73.18" height="84.19"/><path class="cls-2" d="M81.12,24.27l-.18-.18h-52a2.62,2.62,0,0,0-2.61,2.61v91.24a2.77,2.77,0,0,0,2.77,2.78h71.82a2.77,2.77,0,0,0,2.78-2.78V46.81C94.89,38,89.85,33,81.12,24.27Z"/><path class="cls-3" d="M103.66,46.81v.31H94A12.93,12.93,0,0,1,81.12,34.23v-10Z"/><path class="cls-4" d="M71.29,47.73H37.09a.91.91,0,1,1,0-1.82h34.2a.91.91,0,1,1,0,1.82Z"/><path class="cls-4" d="M92.85,63.63H38a.91.91,0,1,1,0-1.81H92.85a.91.91,0,1,1,0,1.81Z"/><path class="cls-4" d="M92.85,73.79h-9.4a.91.91,0,0,1,0-1.82h9.4a.91.91,0,0,1,0,1.82ZM78,73.79H74.36a.91.91,0,0,1,0-1.82H78a.91.91,0,0,1,0,1.82Zm-10.91,0h-20a.91.91,0,0,1,0-1.82h20a.91.91,0,0,1,0,1.82Zm-25.45,0H38A.91.91,0,1,1,38,72h3.64a.91.91,0,0,1,0,1.82Z"/><path class="cls-4" d="M92.85,83.94H38a.91.91,0,0,1,0-1.82H92.85a.91.91,0,0,1,0,1.82Z"/><path class="cls-4" d="M92.85,104.25H38a.91.91,0,0,1,0-1.82H92.85a.91.91,0,0,1,0,1.82Z"/><path class="cls-4" d="M92.85,94.1H54.36a.91.91,0,0,1,0-1.82H92.85a.91.91,0,0,1,0,1.82Zm-43.94,0H38a.91.91,0,0,1,0-1.82H48.91a.91.91,0,1,1,0,1.82Z"/></g></svg>