<svg xmlns="http://www.w3.org/2000/svg" xmlns:xlink="http://www.w3.org/1999/xlink" viewBox="0 0 135 135"><defs><style>.cls-1{fill:url(#linear-gradient);}.cls-2{fill:#d4f0ff;}.cls-3{fill:#0bcec2;}</style><linearGradient id="linear-gradient" x1="89.55" y1="6.52" x2="36.89" y2="102.52" gradientUnits="userSpaceOnUse"><stop offset="0" stop-color="#ef6e7f"/><stop offset="1" stop-color="#f89c59"/></linearGradient></defs><title>Yoobic</title><g id="Pharmaone"><path class="cls-1" d="M109.18,25.91H88.28l.45-15.28H52.1s.31,6.37.74,15.28H32.2l3.66,32.9,18.71,1.28c.55,10.49,1,19,1.19,20.72h30.9l.55-18.49L105,63.53Z"/><path class="cls-2" d="M59.26,82a18.07,18.07,0,0,0,4-1.11C78,75,86.52,64.14,87.63,49H25.74C27,66.87,35.37,77.48,52.07,81.71a17.65,17.65,0,0,0,2,.37v27.83L31.85,124.37H81.52L59.26,110.28Z"/><path class="cls-3" d="M61.69,33.4c3.59,1.83,2.26,5.93,6.88,9.17.74.52,4.4,3.09,7.92,1.67a6.26,6.26,0,0,0,3.75-4.38c.6-2.88-1.35-5.21-1.87-5.84-2.39-2.84-5.2-1-10.22-4.17A32.85,32.85,0,0,0,65,27.79a18.91,18.91,0,0,0-6.2-1.9,17.28,17.28,0,0,0-14,5.42A17.76,17.76,0,0,0,40,44.65c.4,4.73,2.89,10.37,7.5,12.72,3.46,1.77,5.6.4,10.84,3.13,2.17,1.13,4.2,2.22,4.8,4.38.68,2.48-.83,5.32-2.71,6.88-2.75,2.26-4.92.67-9,2.5-1,.46-5.34,2.57-6.88,7.09a12.38,12.38,0,0,0,3.76,12.92c2.2,1.78,5.42,2.68,8.54,3.54,3.4,1,5,.9,5.84,2.3,1.52,2.42-.87,6.19-1,6.46-1.18,1.81-3.69,4.17-6.46,4-4.85-.36-7.26-8.25-8.55-7.71-.8.33-.67,3.64.83,6.25a11.11,11.11,0,0,0,10.43,5.21,11.6,11.6,0,0,0,10.32-9.69,11.07,11.07,0,0,0-3-8.86c-2.44-2.49-4.32-1.68-9.8-5.42-3.23-2.21-4-3.5-4.16-4.8a5.46,5.46,0,0,1,1.66-4c2.2-2.15,4.47-.8,9-2.5a14.72,14.72,0,0,0,5.83-3.75A14.47,14.47,0,0,0,71.28,68a12.54,12.54,0,0,0-.63-7.92,12.63,12.63,0,0,0-6.46-5.94c-3.54-1.6-4.64-.34-8.55-2-1.91-.8-4.71-2-6.25-4.79a10,10,0,0,1,.83-10.64C53.1,32.91,58.45,31.75,61.69,33.4Z"/></g></svg>