<svg xmlns="http://www.w3.org/2000/svg" xmlns:xlink="http://www.w3.org/1999/xlink" viewBox="0 0 135 135"><defs><style>.cls-1{fill:#ef6e7f;}.cls-2{fill:none;}.cls-3{fill:#f89b59;}.cls-4{fill:#07ccc0;}.cls-5{fill:url(#linear-gradient);}</style><linearGradient id="linear-gradient" x1="33.21" y1="130.49" x2="85.54" y2="91.62" gradientUnits="userSpaceOnUse"><stop offset="0" stop-color="#673fef"/><stop offset="0.61" stop-color="#877def"/><stop offset="1" stop-color="#5ab0ff"/></linearGradient></defs><title>Yoobic</title><g id="Photo"><polygon class="cls-1" points="82.23 33.03 65.5 20.21 49.08 33.02 47.84 31.45 65.5 17.68 83.44 31.44 82.23 33.03"/><path class="cls-1" d="M22.83,31.24l3.67,86.54h85.67v-89Zm79.67,77.87H35.17L31.5,38.45h71Z"/><path class="cls-2" d="M31.5,38.45l1.66,32a19.67,19.67,0,0,1,9.34,3c3.46,2.25,4.54,4.73,8,5.16,3.25.41,6-1.29,8.83-3,3.38-2.06,4.12-3.4,7.5-6.33,5.23-4.52,8.84-7.65,13.84-8.17,4.66-.48,8.57,1.51,10.83,2.67,2.85,1.45,4.17,2.83,7.83,6,.91.79,2,1.69,3.17,2.68v-34Zm18.83,24a8.17,8.17,0,1,1,8.17-8.17A8.16,8.16,0,0,1,50.33,62.45Z"/><path class="cls-3" d="M42.17,54.28a8.17,8.17,0,1,1,8.16,8.17A8.16,8.16,0,0,1,42.17,54.28Z"/><path class="cls-4" d="M102.5,72.46v26.2c-14.68-.7-30.21-.89-46.5-.38q-10.94.34-21.34,1.06l-1.5-28.88a19.67,19.67,0,0,1,9.34,3c3.46,2.25,4.54,4.73,8,5.16,3.25.41,6-1.29,8.83-3,3.38-2.06,4.12-3.4,7.5-6.33,5.23-4.52,8.84-7.65,13.84-8.17,4.66-.48,8.57,1.51,10.83,2.67,2.85,1.45,4.17,2.83,7.83,6C100.24,70.57,101.3,71.47,102.5,72.46Z"/><path class="cls-5" d="M102.5,98.66v10.45H35.17l-.51-9.77q10.4-.7,21.34-1.06C72.29,97.77,87.82,98,102.5,98.66Z"/><circle class="cls-1" cx="65.5" cy="18.94" r="2.17"/></g></svg>