<svg xmlns="http://www.w3.org/2000/svg" xmlns:xlink="http://www.w3.org/1999/xlink" viewBox="0 0 135 135"><defs><style>.cls-1{fill:#e1dfff;}.cls-2{fill:url(#linear-gradient);}.cls-3{fill:#3a3569;}.cls-4{fill:#07ccc0;}</style><linearGradient id="linear-gradient" x1="44.32" y1="16.5" x2="91.82" y2="16.5" gradientUnits="userSpaceOnUse"><stop offset="0" stop-color="#ef6e7f"/><stop offset="1" stop-color="#f89c59"/></linearGradient></defs><title>Yoobic</title><g id="Poll"><path class="cls-1" d="M107.75,16.06H28.39a2.88,2.88,0,0,0-2.88,2.87V119.3a3.06,3.06,0,0,0,3,3h79a3.06,3.06,0,0,0,3.05-3V18.93A2.88,2.88,0,0,0,107.75,16.06Z"/><path class="cls-2" d="M52.46,10.65h31.2a8.15,8.15,0,0,1,8.15,8.15V20a2.31,2.31,0,0,1-2.31,2.31H46.63A2.31,2.31,0,0,1,44.32,20V18.8a8.15,8.15,0,0,1,8.15-8.15Z"/><path class="cls-3" d="M46.25,48.25H33.09a1,1,0,0,1-1-1v-13a1,1,0,0,1,1-1H48.25a1,1,0,0,1,.76.35,1,1,0,0,1,.23.8l-2,13A1,1,0,0,1,46.25,48.25Zm-12.16-2H45.4l1.69-11h-13Z"/><polygon class="cls-4" points="33.09 91.92 33.09 104.92 46.25 104.92 48.25 91.92 33.09 91.92"/><path class="cls-3" d="M46.09,77.25H34.42a1,1,0,0,1-1-.9L32.09,62.8a1,1,0,0,1,.24-.75,1,1,0,0,1,.72-.35l14-.52a1,1,0,0,1,1,1.07l-1,14.07A1,1,0,0,1,46.09,77.25Zm-10.76-2h9.83l.85-12-11.82.44Z"/><path class="cls-3" d="M39.09,101.33a1,1,0,0,1-.74-.32l-7.12-7.75a1,1,0,1,1,1.47-1.35L39,98.78l11-14.31a1,1,0,1,1,1.58,1.22L39.88,100.94a1,1,0,0,1-.75.39Z"/><path class="cls-3" d="M100.25,37.75H57.42a1,1,0,0,1,0-2h42.83a1,1,0,0,1,0,2Z"/><path class="cls-3" d="M100.25,66.21H97.42a1,1,0,0,1,0-2h2.83a1,1,0,0,1,0,2Zm-10.83,0h-22a1,1,0,0,1,0-2h22a1,1,0,0,1,0,2Zm-28,0h-4a1,1,0,0,1,0-2h4a1,1,0,0,1,0,2Z"/><path class="cls-3" d="M100.25,95.08H57.42a1,1,0,0,1,0-2h42.83a1,1,0,0,1,0,2Z"/><path class="cls-3" d="M77.5,101.33H57.42a1,1,0,0,1,0-2H77.5a1,1,0,0,1,0,2Z"/><path class="cls-3" d="M91.34,71.83H57.42a1,1,0,0,1,0-2H91.34a1,1,0,0,1,0,2Z"/><path class="cls-3" d="M91.34,43.86H57.42a1,1,0,0,1,0-2H91.34a1,1,0,0,1,0,2Z"/></g></svg>