<svg xmlns="http://www.w3.org/2000/svg" xmlns:xlink="http://www.w3.org/1999/xlink" viewBox="0 0 135 135"><defs><style>.cls-1{fill:#e1dfff;}.cls-2{fill:#f0efff;}.cls-3{fill:#07ccc0;}.cls-4{fill:url(#linear-gradient);}.cls-5{fill:url(#linear-gradient-2);}.cls-6{fill:#4234a1;}.cls-7{fill:url(#linear-gradient-3);}.cls-8{fill:#8fbcff;}.cls-9{fill:#eed352;}.cls-10{fill:#3a3569;}</style><linearGradient id="linear-gradient" x1="56.39" y1="61.66" x2="46.57" y2="86.39" gradientUnits="userSpaceOnUse"><stop offset="0" stop-color="#673fef"/><stop offset="0.61" stop-color="#877def"/><stop offset="1" stop-color="#5ab0ff"/></linearGradient><linearGradient id="linear-gradient-2" x1="-12353.7" y1="61.66" x2="-12363.52" y2="86.39" gradientTransform="matrix(-1, 0, 0, 1, -12275.31, 0)" xlink:href="#linear-gradient"/><linearGradient id="linear-gradient-3" x1="70.33" y1="37.09" x2="61.58" y2="60.59" xlink:href="#linear-gradient"/></defs><title>Yoobic</title><g id="publish"><path class="cls-1" d="M112.88,126.56H25.37c.07-.22.15-.43.22-.65.23-.6.46-1.19.7-1.77s.38-.89.58-1.33c.11-.24.22-.49.34-.73a44.29,44.29,0,0,1,2.31-4.29l.63-1,.54-.8a44.48,44.48,0,0,1,4-5.14l.47-.51A43.62,43.62,0,0,1,38.64,107,42.51,42.51,0,0,1,42,104.32c.29-.22.59-.43.89-.63s.65-.45,1-.67.55-.35.83-.52l.86-.53.12-.07.9-.51c.16-.1.33-.19.5-.28l.71-.38.72-.36.88-.43.68-.31.75-.33c.44-.2.88-.38,1.33-.55l.82-.32c.59-.22,1.2-.43,1.81-.63l.91-.28c.35-.11.71-.22,1.07-.31.81-.23,1.64-.43,2.47-.61l.8-.17q.56-.12,1.11-.21c.37-.07.74-.13,1.12-.18A47,47,0,0,1,67,95.58c.7,0,1.41,0,2.12,0l1.2,0c.3,0,.59,0,.88,0l1,0,1.28.11c.49,0,1,.1,1.44.16s1,.12,1.43.2l.91.15.13,0q.85.15,1.68.33c.73.16,1.44.34,2.15.53l1.11.32.51.15c.51.16,1,.32,1.51.5s1,.37,1.55.57l.15.06c.57.22,1.12.45,1.67.7s1,.43,1.44.66l.3.14c.51.25,1,.51,1.5.77a46.57,46.57,0,0,1,20.11,21.21Q112.1,124.34,112.88,126.56Z"/><path class="cls-2" d="M99.83,126.56H25.37c.07-.22.15-.43.22-.65.23-.6.46-1.19.7-1.77s.38-.89.58-1.33c.11-.24.22-.49.34-.73a44.29,44.29,0,0,1,2.31-4.29l.63-1,.54-.8a44.48,44.48,0,0,1,4-5.14l.47-.51A43.62,43.62,0,0,1,38.64,107,42.51,42.51,0,0,1,42,104.32c.29-.22.59-.43.89-.63s.65-.45,1-.67.55-.35.83-.52l.86-.53.12-.07.9-.51c.16-.1.33-.19.5-.28l.71-.38.72-.36.88-.43.68-.31.75-.33c.44-.2.88-.38,1.33-.55l.82-.32c.59-.22,1.2-.43,1.81-.63l.91-.28c.35-.11.71-.22,1.07-.31.81-.23,1.64-.43,2.47-.61l.8-.17q.56-.12,1.11-.21c.37-.07.74-.13,1.12-.18A47,47,0,0,1,67,95.58c.7,0,1.41,0,2.12,0l1.2,0c.3,0,.59,0,.88,0l1,0,1.28.11c.49,0,1,.1,1.44.16s1,.12,1.43.2l.91.15.13,0q.85.15,1.68.33c.73.16,1.44.34,2.15.53l1.11.32.51.15c.51.16,1,.32,1.51.5s1,.37,1.55.57l.15.06c.57.22,1.12.45,1.67.7s1,.43,1.44.66l.3.14c.51.25,1,.51,1.5.77A43,43,0,0,1,99.83,126.56Z"/><path class="cls-3" d="M111.11,122.22a7.13,7.13,0,0,0-2.15,1.49,7.57,7.57,0,0,0-1.81,2.85H95.87a8.81,8.81,0,0,1-1.43-2.36c-2-5,1.83-9.47-.49-11.55-1.38-1.22-4.24-1-5.61.33-2,2,.59,5.35-1.49,7.59s-4.78,2-9.23,1.81c-5.18-.2-9.92-.37-12.05-3.79-1.39-2.25-1.59-5.81,0-7.09,2.26-1.82,6.23,2.41,10.24.66,3.25-1.43,4.18-5.78,4.28-6.27.77-3.85-1-7.06-2.79-9.64l.13,0q.85.15,1.68.33c.73.16,1.44.34,2.15.53l1.11.32.51.15c.51.16,1,.32,1.51.5s1,.37,1.55.57l.15.06c.57.22,1.12.45,1.67.7s1,.43,1.44.66l.3.14c.51.25,1,.51,1.5.77A46.57,46.57,0,0,1,111.11,122.22Z"/><path class="cls-3" d="M51.32,111.56c.1.86-1,1.76-1.75,2.17-1.8.92-3-.3-4.42.5-1.56.9-.75,2.88-2.08,3.67-1.88,1.1-4.28-2.32-7.42-1.5-2.24.58-2.7,2.76-3.92,2.5-.69-.15-1.23-1-1.58-2.13l.54-.8a44.48,44.48,0,0,1,4-5.14l.47-.51A43.62,43.62,0,0,1,38.64,107a3.23,3.23,0,0,0,1.43,2.43c1.51.86,2.68-.58,6.25-.17C48.17,109.44,51.15,110.21,51.32,111.56Z"/><polygon class="cls-4" points="56.52 61.33 45.17 66.81 46.54 86.47 61.53 71.8 56.52 61.33"/><polygon class="cls-5" points="78.26 61.33 89.61 66.81 88.23 86.47 73.24 71.8 78.26 61.33"/><path class="cls-6" d="M80.84,48.07c0,15.92-6.15,28.82-13.74,28.82S53.35,64,53.35,48.07c0-12.23,8.12-28.89,11.88-35.95a2.12,2.12,0,0,1,3.73,0C72.72,19.18,80.84,35.84,80.84,48.07Z"/><circle class="cls-7" cx="67.1" cy="45.77" r="7.32"/><circle class="cls-8" cx="67.1" cy="45.77" r="5.33"/><polygon class="cls-9" points="25.37 44.62 28.69 42.88 28.06 46.57 30.74 49.19 27.03 49.73 25.37 53.09 23.71 49.73 20 49.19 22.69 46.57 22.05 42.88 25.37 44.62"/><polygon class="cls-9" points="107.31 15.14 110.63 13.39 109.99 17.09 112.68 19.71 108.97 20.25 107.31 23.61 105.65 20.25 101.94 19.71 104.62 17.09 103.99 13.39 107.31 15.14"/><path class="cls-10" d="M46.65,107.39a1,1,0,0,1-1-1v-.75a1,1,0,0,1,2,0v.75A1,1,0,0,1,46.65,107.39Zm0-6.75a1,1,0,0,1-1-1v-10a1,1,0,0,1,2,0v10A1,1,0,0,1,46.65,100.64Z"/><path class="cls-10" d="M67.65,100.23a1,1,0,0,1-1-1V92.48a1,1,0,1,1,2,0v6.75A1,1,0,0,1,67.65,100.23Zm0-12.75a1,1,0,0,1-1-1v-4a1,1,0,1,1,2,0v4A1,1,0,0,1,67.65,87.48Z"/><path class="cls-10" d="M87.78,100.64a1,1,0,0,1-1-1v-10a1,1,0,0,1,2,0v10A1,1,0,0,1,87.78,100.64Z"/></g></svg>