<?xml version="1.0" encoding="UTF-8"?>
<svg width="240px" height="236px" viewBox="0 0 240 236" version="1.1" xmlns="http://www.w3.org/2000/svg" xmlns:xlink="http://www.w3.org/1999/xlink">
    <!-- Generator: Sketch 49.3 (51167) - http://www.bohemiancoding.com/sketch -->
    <title>Artwork</title>
    <desc>Created with Sketch.</desc>
    <defs>
        <linearGradient x1="60.881%" y1="74.0327464%" x2="0%" y2="-78.9453105%" id="linearGradient-1">
            <stop stop-color="#15DABA" offset="0%"></stop>
            <stop stop-color="#13DEB4" offset="20.5%"></stop>
            <stop stop-color="#0DE8A2" offset="49.01%"></stop>
            <stop stop-color="#04F884" offset="82.08%"></stop>
            <stop stop-color="#00FF78" offset="100%"></stop>
        </linearGradient>
        <path d="M99.8771913,40.5224921 C99.8771913,24.964467 89.0648783,16.0408665 73.2030788,9.25451216 C66.2555625,6.2820684 58.3393192,0.0135205399 49.9385956,0.0135205399 C39.8195202,0.0135205399 30.4033945,7.04082543 22.5365478,11.237071 C8.96169357,18.4780181 0,26.3583522 0,40.5224921 C0,62.8949794 99.8771913,62.8949794 99.8771913,40.5224921 Z" id="path-2"></path>
        <path d="M48.7949637,95.1220173 L48.7949637,95.1220173 C55.3832271,95.1220173 60.7240699,100.46286 60.7240699,107.051124 C60.7240699,107.139995 60.7230768,107.228863 60.7210907,107.317712 L60.3755074,122.777775 C60.2347954,129.07269 55.0914507,134.102348 48.7949637,134.102348 L48.7949637,134.102348 C42.4984767,134.102348 37.355132,129.07269 37.2144199,122.777775 L36.8688367,107.317712 C36.7216041,100.731094 41.9417574,95.2722291 48.5283755,95.1249965 C48.6172244,95.1230104 48.7060926,95.1220173 48.7949637,95.1220173 Z" id="path-4"></path>
        <filter x="-6.3%" y="-3.8%" width="112.6%" height="115.4%" filterUnits="objectBoundingBox" id="filter-5">
            <feOffset dx="0" dy="3" in="SourceAlpha" result="shadowOffsetOuter1"></feOffset>
            <feColorMatrix values="0 0 0 0 0.149019608   0 0 0 0 0.756862745   0 0 0 0 0.631372549  0 0 0 1 0" type="matrix" in="shadowOffsetOuter1"></feColorMatrix>
        </filter>
        <path d="M12.9611622,12.9934437 C20.1194145,12.9934437 25.9223245,7.17608081 25.9223245,0 C15.9880866,-3.95674159e-15 5.31161232,3.99799374e-13 0,0 C0,7.17608081 5.80290999,12.9934437 12.9611622,12.9934437 Z" id="path-6"></path>
        <linearGradient x1="12.8427587%" y1="16.5434697%" x2="64.3923091%" y2="85.1626007%" id="linearGradient-8">
            <stop stop-color="#CB9577" offset="0%"></stop>
            <stop stop-color="#966060" offset="100%"></stop>
        </linearGradient>
        <ellipse id="path-9" cx="22.5355907" cy="22.3793103" rx="22.3728814" ry="22.3793103"></ellipse>
        <path d="M27.6083293,11.4262902 C27.6083293,7.12569793 24.6195599,4.65901159 20.2349974,2.78310877 C18.3145457,1.96145765 16.1263159,0.228688324 13.8041646,0.228688324 C11.0070219,0.228688324 8.40419036,2.17119537 6.22961483,3.33113316 C2.47721611,5.33269577 0,7.51099952 0,11.4262902 C0,17.610555 27.6083293,17.610555 27.6083293,11.4262902 Z" id="path-11"></path>
        <path d="M3.58276029,3.59168363 C5.56146416,3.59168363 7.16552058,1.98363209 7.16552058,0 C4.4194711,-1.09373345e-15 1.46825056,1.10513648e-13 0,0 C0,1.98363209 1.60405642,3.59168363 3.58276029,3.59168363 Z" id="path-13"></path>
        <ellipse id="path-15" cx="22.3728814" cy="22.3793103" rx="22.3728814" ry="22.3793103"></ellipse>
        <path d="M3.31509894,3.32335563 C5.14597752,3.32335563 6.63019788,1.83543863 6.63019788,0 C4.08930064,-1.01202266e-15 1.35856029,1.02257379e-13 0,0 C0,1.83543863 1.48422035,3.32335563 3.31509894,3.32335563 Z" id="path-17"></path>
        <ellipse id="path-19" cx="22.3728814" cy="22.3793103" rx="22.3728814" ry="22.3793103"></ellipse>
        <path d="M3.06415199,3.07178367 C4.75643641,3.07178367 6.12830399,1.69649928 6.12830399,0 C3.77974804,-9.35414389e-16 1.25571976,9.45166821e-14 0,0 C0,1.69649928 1.37186758,3.07178367 3.06415199,3.07178367 Z" id="path-21"></path>
    </defs>
    <g id="Page-1" stroke="none" stroke-width="1" fill="none" fill-rule="evenodd">
        <g id="Chat---Team-Empty" transform="translate(-68.000000, -150.000000)">
            <g id="Artwork" transform="translate(68.000000, 150.000000)">
                <path d="M120,234.372414 C178.635791,234.372414 226.169492,186.825054 226.169492,128.172414 C226.169492,69.5197734 178.635791,21.9724138 120,21.9724138 C61.3642089,21.9724138 13.8305085,69.5197734 13.8305085,128.172414 C13.8305085,186.825054 61.3642089,234.372414 120,234.372414 Z" id="circle" stroke="#F1F1F1" stroke-width="2.44137931" stroke-linecap="round" stroke-linejoin="round" stroke-dasharray="4.068965517241379,15.46206877149385"></path>
                <g id="main" transform="translate(69.966102, 56.151724)">
                    <g id="Rectangle-6" transform="translate(0.000000, 121.859704)">
                        <mask id="mask-3" fill="white">
                            <use xlink:href="#path-2"></use>
                        </mask>
                        <use id="Mask" fill="url(#linearGradient-1)" xlink:href="#path-2"></use>
                        <path d="M62.9173385,40.6993686 L70.5629674,42.0847291 L79.1161024,40.653918 C80.4459598,40.4314529 81.7043659,41.3291716 81.9268311,42.6590291 C81.9490991,42.792143 81.9602906,42.9268742 81.9602906,43.0618379 L81.9602906,59.6626601 C81.9602906,61.0109967 80.8672478,62.1040394 79.5189112,62.1040394 L62.4820573,62.1040394 C61.1337207,62.1040394 60.040678,61.0109967 60.040678,59.6626601 L60.040678,43.1016307 C60.040678,41.7532942 61.1337207,40.6602514 62.4820573,40.6602514 C62.6280287,40.6602514 62.773706,40.6733429 62.9173385,40.6993686 Z" fill="#26C1A1" mask="url(#mask-3)"></path>
                    </g>
                    <g id="Rectangle-Copy">
                        <use fill="black" fill-opacity="1" filter="url(#filter-5)" xlink:href="#path-4"></use>
                        <use fill="#F2D4D1" fill-rule="evenodd" xlink:href="#path-4"></use>
                    </g>
                    <path d="M16.7732688,40.0909616 L80.8166586,40.0909616 L79.1597668,96.5655892 C78.808671,108.532581 69.0062558,118.051624 57.0341148,118.051624 L40.5558126,118.051624 C28.5836716,118.051624 18.7812564,108.532581 18.4301605,96.5655892 L16.7732688,40.0909616 Z" id="Rectangle" fill="#FCDFDC"></path>
                    <ellipse id="Oval-3" fill="#FCDFDC" cx="17.1544794" cy="67.9886496" rx="6.48058111" ry="7.26104208"></ellipse>
                    <ellipse id="Oval-3-Copy" fill="#FCDFDC" cx="80.4354479" cy="67.9886496" rx="6.48058111" ry="7.26104208"></ellipse>
                    <g id="Group-2" transform="translate(33.699952, 64.598681)">
                        <ellipse id="Oval" fill="#001128" cx="2.84745763" cy="3.06839435" rx="2.84745763" ry="2.84827586"></ellipse>
                        <ellipse id="Oval-Copy-2" fill="#001128" cx="27.9050847" cy="3.06839435" rx="2.84745763" ry="2.84827586"></ellipse>
                        <g id="Oval-2-Copy" transform="translate(2.133850, 25.173094)">
                            <mask id="mask-7" fill="white">
                                <use xlink:href="#path-6"></use>
                            </mask>
                            <use id="Mask" fill="#372C28" xlink:href="#path-6"></use>
                            <path d="M12.9611622,20.6366459 C20.1194145,20.6366459 25.9223245,14.819283 25.9223245,7.64320219 C15.9880866,7.64320219 5.31161232,7.64320219 0,7.64320219 C0,14.819283 5.80290999,20.6366459 12.9611622,20.6366459 Z" fill="#D96B70" mask="url(#mask-7)" transform="translate(12.961162, 14.139924) scale(1, -1) translate(-12.961162, -14.139924) "></path>
                            <path d="M12.9611622,2.29296066 C17.5929725,2.29296066 21.3477966,-1.47121534 21.3477966,-6.11456175 C14.9197604,-6.11456175 8.01145346,-6.11456175 4.57452785,-6.11456175 C4.57452785,-1.47121534 8.32935196,2.29296066 12.9611622,2.29296066 Z" id="Oval-2-Copy-2" fill="#FFFFFF" mask="url(#mask-7)" transform="translate(12.961162, -1.910801) scale(1, -1) translate(-12.961162, 1.910801) "></path>
                        </g>
                        <path d="M15.5273608,5.35024153 L15.5273608,5.35024153 C16.6248891,5.35024153 17.559208,6.1489207 17.7299664,7.23308401 L19.0682629,15.7300722 C19.3762725,17.6856585 18.0406478,19.5206655 16.0850616,19.8286751 C15.9005822,19.8577311 15.7141143,19.8723257 15.5273608,19.8723257 L15.5273608,19.8723257 C13.547667,19.8723257 11.9428081,18.2674668 11.9428081,16.287773 C11.9428081,16.1010195 11.9574027,15.9145516 11.9864587,15.7300722 L13.3247552,7.23308401 C13.4955136,6.1489207 14.4298324,5.35024153 15.5273608,5.35024153 Z" id="Rectangle-4" fill="#A38080" opacity="0.307914402"></path>
                    </g>
                    <g id="Group-4" transform="translate(49.550847, 35.500000) scale(-1, 1) translate(-49.550847, -35.500000) translate(12.050847, 0.000000)" fill="url(#linearGradient-8)">
                        <path d="M46.2058508,40.7210457 C57.1784932,34.9978159 64.0465473,37.2385197 66.8100132,47.443157 C69.3071311,55.401361 68.7297337,62.2393256 68.6726405,68.0073963 C75.1261458,54.374258 75.8223422,33.6576795 71.1697583,25.5666501 C69.9770981,23.4925662 49.116282,19.1413542 46.2058508,20.0538195 C43.1000798,21.0275269 43.1000798,27.9166023 46.2058508,40.7210457 Z" id="Path-5"></path>
                        <path d="M7.06612046,70.5600283 L9.5595777,40.9661114 C29.4518046,52.155833 46.8161065,52.7327911 61.6524835,42.6969859 C83.9070489,27.643278 70.9867338,6.46192234 59.8932392,0.638176336 C61.6524835,4.36065921 59.9827407,14.5818079 47.9114855,11.3565745 C37.9391937,8.69214829 31.3682888,2.07195031 17.0816908,9.72840679 C-1.52244613,19.6987136 -4.86096957,39.9759207 7.06612046,70.5600283 Z" id="Path-4"></path>
                    </g>
                    <rect id="Rectangle-21" stroke="#001128" stroke-width="2.44137931" fill-opacity="0.2265625" fill="#FFFFFF" x="26.0338983" y="59.4068966" width="20.3389831" height="17.0896552" rx="3.25517241"></rect>
                    <polygon id="Rectangle-7" fill="#001128" points="17.8983051 57.7793103 26.0338983 65.1034483 26.0338983 70.8 17.8983051 63.4758621"></polygon>
                    <polygon id="Rectangle-7-Copy" fill="#001128" points="80.5423729 57.7793103 72.4067797 65.1034483 72.4067797 70.8 80.5423729 63.4758621"></polygon>
                    <rect id="Rectangle-2" fill="#001128" x="45.559322" y="66.7310345" width="7.3220339" height="3.25517241"></rect>
                    <rect id="Rectangle-21-Copy" stroke="#001128" stroke-width="2.44137931" fill-opacity="0.2265625" fill="#FFFFFF" x="52.0677966" y="59.4068966" width="20.3389831" height="17.0896552" rx="3.25517241"></rect>
                </g>
                <g id="person" transform="translate(96.813559, 0.000000)">
                    <mask id="mask-10" fill="white">
                        <use xlink:href="#path-9"></use>
                    </mask>
                    <use id="Mask" fill="#BDE4C3" xlink:href="#path-9"></use>
                    <g id="Group" mask="url(#mask-10)">
                        <g transform="translate(8.949153, 5.696552)">
                            <g id="Rectangle-6" stroke-width="1" fill="none" transform="translate(0.000000, 31.885189)">
                                <mask id="mask-12" fill="white">
                                    <use xlink:href="#path-11"></use>
                                </mask>
                                <use id="Mask" fill="#E7E7E7" xlink:href="#path-11"></use>
                                <path d="M19.4732707,11.8523407 L19.5052105,11.8581281 L19.8115019,11.8068901 C21.1413593,11.5844249 22.3997654,12.4821437 22.6222306,13.8120011 C22.6444986,13.9451151 22.6556901,14.0798463 22.6556901,14.21481 L22.6556901,14.9505419 C22.6556901,16.2988784 21.5626473,17.3919212 20.2143108,17.3919212 L19.0379895,17.3919212 C17.6896529,17.3919212 16.5966102,16.2988784 16.5966102,14.9505419 L16.5966102,14.2546028 C16.5966102,12.9062662 17.6896529,11.8132235 19.0379895,11.8132235 C19.1839609,11.8132235 19.3296382,11.826315 19.4732707,11.8523407 Z" fill="#62D186" mask="url(#mask-12)"></path>
                            </g>
                            <path d="M13.4880387,24.7192344 L13.4880387,24.7192344 C15.3091847,24.7192344 16.7855153,26.1955649 16.7855153,28.0167109 C16.7855153,28.0412769 16.7852407,28.0658421 16.7846917,28.0904019 L16.6891647,32.3639154 C16.6502686,34.1039731 15.2285311,35.4942853 13.4880387,35.4942853 L13.4880387,35.4942853 C11.7475464,35.4942853 10.3258088,34.1039731 10.2869128,32.3639154 L10.1913857,28.0904019 C10.1506873,26.2697108 11.5936565,24.7607563 13.4143477,24.7200579 C13.4389075,24.7195089 13.4634728,24.7192344 13.4880387,24.7192344 Z" id="Rectangle-Copy" fill="#866E57"></path>
                            <path d="M4.63651332,9.50739784 L22.3395642,9.50739784 L21.9483514,22.8417611 C21.8141008,27.4176485 18.065895,31.0574996 13.4880387,31.0574996 L13.4880387,31.0574996 C8.91018244,31.0574996 5.16197666,27.4176485 5.02772611,22.8417611 L4.63651332,9.50739784 Z" id="Rectangle" fill="#93775E"></path>
                            <ellipse id="Oval-3" fill="#93775E" cx="4.74188862" cy="17.2189539" rx="1.79138015" ry="2.00711732"></ellipse>
                            <ellipse id="Oval-3-Copy" fill="#93775E" cx="22.2341889" cy="17.2189539" rx="1.79138015" ry="2.00711732"></ellipse>
                            <g id="Group-2" stroke-width="1" fill="none" transform="translate(8.640775, 16.056939)">
                                <path d="M1.27761608,2.81069407e-05 C1.27761608,2.81069407e-05 1.27761608,2.81069407e-05 1.27761608,2.81069407e-05 C1.27761608,2.81069407e-05 1.27761608,2.81069407e-05 1.27761608,2.81069407e-05 L1.27761608,2.81069407e-05 C1.96873507,2.81069407e-05 2.5289977,0.560290742 2.5289977,1.25140973 L2.52900726,1.33000628 C2.52900726,1.49910969 2.39192187,1.63619508 2.22281846,1.63619508 C2.1630277,1.63619508 2.10454521,1.61868942 2.05458783,1.58583833 C1.79519345,1.41528923 1.53408181,1.33000628 1.27124184,1.33000628 C1.00686631,1.33000628 0.742490768,1.41628863 0.47811523,1.58885332 L0.478142998,1.58889586 C0.335162229,1.68222308 0.143596758,1.64197092 0.0502695425,1.49899015 C0.0174668515,1.44873521 7.34948894e-18,1.39001941 0,1.33000628 L6.82838343e-06,1.27763736 C6.82838343e-06,0.572033253 0.572011975,2.81069407e-05 1.27761608,2.81069407e-05 Z" id="Rectangle-3-Copy" fill="#5A4840"></path>
                                <g id="Oval-2-Copy" transform="translate(1.264504, 7.183367)">
                                    <mask id="mask-14" fill="white">
                                        <use xlink:href="#path-13"></use>
                                    </mask>
                                    <use id="Mask" fill="#372C28" xlink:href="#path-13"></use>
                                    <path d="M3.58276029,5.70443871 C5.56146416,5.70443871 7.16552058,4.09638717 7.16552058,2.11275508 C4.4194711,2.11275508 1.46825056,2.11275508 0,2.11275508 C0,4.09638717 1.60405642,5.70443871 3.58276029,5.70443871 Z" fill="#D96B70" mask="url(#mask-14)" transform="translate(3.582760, 3.908597) scale(1, -1) translate(-3.582760, -3.908597) "></path>
                                    <path d="M3.58276029,0.633826523 C4.86309809,0.633826523 5.90101695,-0.406677411 5.90101695,-1.69020406 C4.1241614,-1.69020406 2.21454811,-1.69020406 1.26450363,-1.69020406 C1.26450363,-0.406677411 2.30242249,0.633826523 3.58276029,0.633826523 Z" id="Oval-2-Copy-2" fill="#FFFFFF" mask="url(#mask-14)" transform="translate(3.582760, -0.528189) scale(1, -1) translate(-3.582760, 0.528189) "></path>
                                </g>
                                <path d="M4.74188862,1.47892855 L4.74188862,1.47892855 C5.04527044,1.47892855 5.30353744,1.69970166 5.35073894,1.99938908 L5.72067457,4.34815005 C5.80581544,4.8887186 5.43661836,5.39595631 4.89604981,5.48109719 C4.84505552,5.48912891 4.79351154,5.4931632 4.74188862,5.4931632 L4.74188862,5.4931632 C4.19465619,5.4931632 3.75103666,5.04954367 3.75103666,4.50231124 C3.75103666,4.45068832 3.75507095,4.39914434 3.76310267,4.34815005 L4.1330383,1.99938908 C4.1802398,1.69970166 4.4385068,1.47892855 4.74188862,1.47892855 Z" id="Rectangle-4" fill="#482222" opacity="0.200000003"></path>
                                <path d="M8.44313666,2.81069407e-05 C8.44313666,2.81069407e-05 8.44313666,2.81069407e-05 8.44313666,2.81069407e-05 C8.44313666,2.81069407e-05 8.44313666,2.81069407e-05 8.44313666,2.81069407e-05 L8.44313666,2.81069407e-05 C9.13425565,2.81069407e-05 9.69451828,0.560290742 9.69451828,1.25140973 L9.69452785,1.33000628 C9.69452785,1.49910969 9.55744245,1.63619508 9.38833904,1.63619508 C9.32854828,1.63619508 9.27006579,1.61868942 9.22010841,1.58583833 C8.96071403,1.41528923 8.69960239,1.33000628 8.43676243,1.33000628 C8.17238689,1.33000628 7.90801135,1.41628863 7.64363581,1.58885332 L7.64366358,1.58889586 C7.50068281,1.68222308 7.30911734,1.64197092 7.21579012,1.49899015 C7.18298743,1.44873521 7.16552058,1.39001941 7.16552058,1.33000628 L7.16552741,1.27763736 C7.16552741,0.572033253 7.73753256,2.81069407e-05 8.44313666,2.81069407e-05 Z" id="Rectangle-3-Copy-2" fill="#5A4840"></path>
                            </g>
                            <ellipse id="Oval-2" fill="#272D35" cx="5.16338983" cy="10.2468621" rx="1.79138015" ry="1.79584181"></ellipse>
                            <ellipse id="Oval-2-Copy-18" fill="#272D35" cx="5.16338983" cy="7.92283154" rx="1.79138015" ry="1.79584181"></ellipse>
                            <ellipse id="Oval-2-Copy-10" fill="#272D35" cx="6.63864407" cy="5.38752544" rx="3.26663438" ry="3.27477037"></ellipse>
                            <ellipse id="Oval-2-Copy-11" fill="#272D35" cx="9.58915254" cy="3.69732138" rx="3.26663438" ry="3.27477037"></ellipse>
                            <ellipse id="Oval-2-Copy-12" fill="#272D35" cx="10.2214044" cy="6.02135197" rx="3.26663438" ry="3.27477037"></ellipse>
                            <ellipse id="Oval-2-Copy-13" fill="#272D35" cx="13.3826634" cy="3.27477037" rx="3.26663438" ry="3.27477037"></ellipse>
                            <ellipse id="Oval-2-Copy-14" fill="#272D35" cx="15.7009201" cy="5.17624994" rx="3.26663438" ry="3.27477037"></ellipse>
                            <ellipse id="Oval-2-Copy-15" fill="#272D35" cx="17.8084262" cy="3.48604588" rx="3.26663438" ry="3.27477037"></ellipse>
                            <ellipse id="Oval-2-Copy-16" fill="#272D35" cx="20.3374334" cy="5.59880095" rx="3.26663438" ry="3.27477037"></ellipse>
                            <polygon id="Rectangle-5" fill="#272D35" points="4.21501211 9.92994886 5.26876513 9.92994886 5.26876513 17.1133161 4.42576271 15.4231121"></polygon>
                            <polygon id="Rectangle-5-Copy" fill="#272D35" points="21.918063 9.92994886 22.971816 9.92994886 22.7610654 15.4231121 21.918063 17.1133161"></polygon>
                            <ellipse id="Oval-2-Copy-3" fill="#272D35" cx="7.06014528" cy="8.76793357" rx="1.79138015" ry="1.79584181"></ellipse>
                            <ellipse id="Oval-2-Copy-4" fill="#272D35" cx="8.95690073" cy="9.6130356" rx="1.79138015" ry="1.79584181"></ellipse>
                            <ellipse id="Oval-2-Copy-5" fill="#272D35" cx="11.6966586" cy="9.19048458" rx="1.79138015" ry="1.79584181"></ellipse>
                            <ellipse id="Oval-2-Copy-6" fill="#272D35" cx="14.4364165" cy="8.55665806" rx="1.79138015" ry="1.79584181"></ellipse>
                            <ellipse id="Oval-2-Copy-7" fill="#272D35" cx="16.7546731" cy="9.6130356" rx="1.79138015" ry="1.79584181"></ellipse>
                            <ellipse id="Oval-2-Copy-8" fill="#272D35" cx="19.0729298" cy="8.76793357" rx="1.79138015" ry="1.79584181"></ellipse>
                            <ellipse id="Oval-2-Copy-9" fill="#272D35" cx="21.601937" cy="9.8243111" rx="1.79138015" ry="1.79584181"></ellipse>
                            <ellipse id="Oval-2-Copy-17" fill="#272D35" cx="22.0234383" cy="7.92283154" rx="1.79138015" ry="1.79584181"></ellipse>
                        </g>
                    </g>
                </g>
                <g id="heart" transform="translate(187.932203, 48.827586)">
                    <ellipse id="Oval-Copy" stroke="#F1F1F1" fill="#FFFFFF" cx="22.3728814" cy="22.3793103" rx="22.3728814" ry="22.3793103"></ellipse>
                    <path d="M21.8996452,30.6755393 C6.15692335,22.1133477 17.5425391,11.4684796 21.8996452,18.6375997 C26.2574463,11.4684796 37.6437573,22.1133477 21.8996452,30.6755393 Z" id="Shape" fill="#D0D0D0" fill-rule="nonzero" transform="translate(21.900043, 23.475701) rotate(26.000000) translate(-21.900043, -23.475701) "></path>
                </g>
                <g id="person" transform="translate(195.254237, 143.227586)">
                    <mask id="mask-16" fill="white">
                        <use xlink:href="#path-15"></use>
                    </mask>
                    <use id="Mask" fill="#ADE0E5" xlink:href="#path-15"></use>
                    <g id="Group-Copy" mask="url(#mask-16)">
                        <g transform="translate(9.762712, 3.255172)">
                            <path d="M25.5457624,41.1210402 C25.5457624,37.1417371 22.7802784,34.8593323 18.7232784,33.1235747 C16.9463001,32.3633076 14.9215488,30.7599903 12.7728812,30.7599903 C10.1847077,30.7599903 7.77632894,32.5573762 5.7642119,33.6306572 C2.29214791,35.4826868 0,37.4982536 0,41.1210402 C0,46.8432901 25.5457624,46.8432901 25.5457624,41.1210402 Z" id="Oval-11" fill="#AFB8FF"></path>
                            <path d="M12.4803725,23.9177875 L12.4803725,23.9177875 C14.165464,23.9177875 15.5315007,25.2838241 15.5315007,26.9689157 C15.5315007,26.9916464 15.5312466,27.0143764 15.5307387,27.0371014 L15.4423482,30.9913486 C15.4063581,32.6014098 14.0908359,33.8878544 12.4803725,33.8878544 L12.4803725,33.8878544 C10.8699091,33.8878544 9.55438688,32.6014098 9.51839671,30.9913486 L9.43000628,27.0371014 C9.39234835,25.3524307 10.727516,23.9562074 12.4121868,23.9185495 C12.4349118,23.9180415 12.4576418,23.9177875 12.4803725,23.9177875 Z" id="Rectangle-Copy" fill="#C4A588"></path>
                            <path d="M12.4803725,4.44244477 L12.4803725,4.44244477 C16.900496,4.44244477 20.4837141,8.02566286 20.4837141,12.4457864 C20.4837141,12.5073662 20.4830034,12.568944 20.4815821,12.6305074 L20.2611318,22.1793317 C20.1635394,26.4065549 16.708722,29.7825328 12.4803725,29.7825328 L12.4803725,29.7825328 C8.25202292,29.7825328 4.79720551,26.4065549 4.69961314,22.1793317 L4.47916288,12.6305074 C4.37714427,8.21156137 7.8767054,4.54659539 12.2956514,4.44457678 C12.3572149,4.44315549 12.4187926,4.44244477 12.4803725,4.44244477 Z" id="Rectangle" fill="#FFF0D2"></path>
                            <path d="M4.55079908,18.3754453 C5.07964256,21.8505336 5.70820956,24.0474663 6.4365001,24.9662435 C7.78690516,26.6698512 10.0261187,28.5669362 12.4204391,28.5669362 C14.783234,28.5669362 17.1293149,26.6252845 18.4992846,24.9662435 C19.2601705,24.0448066 19.8970575,21.8478738 20.4099459,18.3754453 L20.2293549,27.9277107 C20.1495251,32.1502623 16.7036786,35.5315789 12.4803725,35.5315789 L12.4803725,35.5315789 C8.25706634,35.5315789 4.81121979,32.1502623 4.73139007,27.9277107 L4.55079908,18.3754453 Z" id="Rectangle-Copy-2" fill="#FF7575"></path>
                            <ellipse id="Oval-4" fill="#FF7575" cx="12.5122102" cy="30.8357931" rx="3.91006567" ry="3.91980421"></ellipse>
                            <ellipse id="Oval-3" fill="#FFF0D2" cx="4.38763095" cy="16.977839" rx="1.65754947" ry="1.85716932"></ellipse>
                            <ellipse id="Oval-3-Copy" fill="#FFF0D2" cx="20.573114" cy="16.977839" rx="1.65754947" ry="1.85716932"></ellipse>
                            <g id="Group-2" stroke-width="1" fill="none" transform="translate(7.995239, 15.379995)">
                                <path d="M1.18216776,2.60071235e-05 C1.18216776,2.60071235e-05 1.18216776,2.60071235e-05 1.18216776,2.60071235e-05 C1.18216776,2.60071235e-05 1.18216776,2.60071235e-05 1.18216776,2.60071235e-05 L1.18216776,2.60071235e-05 C1.82165453,2.60071235e-05 2.34006099,0.518432464 2.34006099,1.15791924 L2.34006984,1.23064399 C2.34006984,1.38711399 2.21322584,1.51395799 2.05675583,1.51395799 C2.00143193,1.51395799 1.94731856,1.49776015 1.90109339,1.4673633 C1.66107789,1.3095556 1.41947341,1.23064399 1.17626973,1.23064399 C0.931645199,1.23064399 0.687020665,1.31048034 0.442396131,1.47015305 L0.442421825,1.47019241 C0.310122883,1.55654732 0.132868911,1.51930233 0.0465139985,1.38700339 C0.0161619355,1.3405029 6.8004223e-18,1.28617365 0,1.23064399 L6.31824761e-06,1.18218745 C6.31824761e-06,0.529297714 0.529278025,2.60071235e-05 1.18216776,2.60071235e-05 Z" id="Rectangle-3-Copy" fill="#5B5552"></path>
                                <g id="Oval-2-Copy" transform="translate(1.170035, 7.953313)">
                                    <mask id="mask-18" fill="white">
                                        <use xlink:href="#path-17"></use>
                                    </mask>
                                    <use id="Mask" fill="#372C28" xlink:href="#path-17"></use>
                                    <path d="M3.31509894,5.27827071 C5.14597752,5.27827071 6.63019788,3.79035371 6.63019788,1.95491508 C4.08930064,1.95491508 1.35856029,1.95491508 0,1.95491508 C0,3.79035371 1.48422035,5.27827071 3.31509894,5.27827071 Z" fill="#D96B70" mask="url(#mask-18)" transform="translate(3.315099, 3.616593) scale(1, -1) translate(-3.315099, -3.616593) "></path>
                                    <path d="M3.31509894,0.586474523 C4.49978508,0.586474523 5.46016296,-0.376295299 5.46016296,-1.56393206 C3.81605298,-1.56393206 2.04910334,-1.56393206 1.17003492,-1.56393206 C1.17003492,-0.376295299 2.13041279,0.586474523 3.31509894,0.586474523 Z" id="Oval-2-Copy-2" fill="#FFFFFF" mask="url(#mask-18)" transform="translate(3.315099, -0.488729) scale(1, -1) translate(-3.315099, 0.488729) "></path>
                                </g>
                                <path d="M4.38763095,1.36844055 L4.38763095,1.36844055 C4.66834768,1.36844055 4.90732003,1.57272011 4.9509952,1.85001844 L5.29329362,4.02330785 C5.37207378,4.52349153 5.03045872,4.99283446 4.53027504,5.07161462 C4.48309044,5.07904631 4.43539722,5.0827792 4.38763095,5.0827792 L4.38763095,5.0827792 C3.88128124,5.0827792 3.4708037,4.67230166 3.4708037,4.16595195 C3.4708037,4.11818568 3.47453659,4.07049245 3.48196828,4.02330785 L3.8242667,1.85001844 C3.86794187,1.57272011 4.10691422,1.36844055 4.38763095,1.36844055 Z" id="Rectangle-4" fill="#C08267" opacity="0.419270833"></path>
                                <path d="M7.81236564,2.60071235e-05 C7.81236564,2.60071235e-05 7.81236564,2.60071235e-05 7.81236564,2.60071235e-05 C7.81236564,2.60071235e-05 7.81236564,2.60071235e-05 7.81236564,2.60071235e-05 L7.81236564,2.60071235e-05 C8.45185241,2.60071235e-05 8.97025887,0.518432464 8.97025887,1.15791924 L8.97026771,1.23064399 C8.97026771,1.38711399 8.84342371,1.51395799 8.6869537,1.51395799 C8.6316298,1.51395799 8.57751643,1.49776015 8.53129127,1.4673633 C8.29127577,1.3095556 8.04967128,1.23064399 7.80646761,1.23064399 C7.56184307,1.23064399 7.31721854,1.31048034 7.07259401,1.47015305 L7.0726197,1.47019241 C6.94032076,1.55654732 6.76306679,1.51930233 6.67671187,1.38700339 C6.64635981,1.3405029 6.63019788,1.28617365 6.63019788,1.23064399 L6.63020419,1.18218745 C6.63020419,0.529297714 7.1594759,2.60071235e-05 7.81236564,2.60071235e-05 Z" id="Rectangle-3-Copy-2" fill="#5B5552"></path>
                            </g>
                            <path d="M10.7992483,7.11538821 C10.1089408,6.27566766 10.075135,4.80375091 11.4895558,3.60839385 C12.9039767,2.41303679 12.1402145,0.347416277 10.7992483,0.324404503 C9.45828219,0.301392729 14.4206499,-0.622425398 14.9615438,3.83913919 C15.5024377,8.30070377 11.4895558,7.95510877 10.7992483,7.11538821 Z" id="Path-2" fill="#FF7575"></path>
                            <path d="M12.8132653,21.0308211 C13.5325662,20.4824794 14.7934036,20.455626 15.8173412,21.5791627 C16.8412788,22.7026994 18.6106802,22.0960095 18.630392,21.0308211 C18.6501038,19.9656327 19.4414423,23.9074597 15.6196857,24.3371155 C11.7979292,24.7667713 12.0939643,21.5791627 12.8132653,21.0308211 Z" id="Path-2-Copy" fill="#FF7575"></path>
                            <path d="M12.0132852,21.0308211 C11.2939843,20.4824794 10.0331469,20.455626 9.00920933,21.5791627 C7.98527174,22.7026994 6.21587031,22.0960095 6.19615853,21.0308211 C6.17644674,19.9656327 5.38510821,23.9074597 9.20686476,24.3371155 C13.0286213,24.7667713 12.7325862,21.5791627 12.0132852,21.0308211 Z" id="Path-2-Copy-2" fill="#FF7575"></path>
                        </g>
                    </g>
                </g>
                <g id="mail" transform="translate(7.322034, 48.827586)">
                    <ellipse id="Oval-Copy-2" stroke="#F1F1F1" fill="#FFFFFF" cx="22.3728814" cy="22.3793103" rx="22.3728814" ry="22.3793103"></ellipse>
                    <path d="M28.4345251,16.3897926 L16.6970197,16.3897926 C15.8900662,16.3897926 15.2298315,17.0480664 15.2298315,17.8526232 L15.2298315,26.6296064 C15.2298315,27.4341632 15.8900662,28.092437 16.6970197,28.092437 L28.4345251,28.092437 C29.2414786,28.092437 29.9017133,27.4341632 29.9017133,26.6296064 L29.9017133,17.8526232 C29.9017133,17.0480664 29.2414786,16.3897926 28.4345251,16.3897926 Z M28.4345251,19.3154537 L22.5657724,22.9725301 L16.6970197,19.3154537 L16.6970197,17.8526232 L22.5657724,21.5096995 L28.4345251,17.8526232 L28.4345251,19.3154537 Z" id="Shape" fill="#D0D0D0" fill-rule="nonzero" transform="translate(22.565772, 22.241115) rotate(-20.000000) translate(-22.565772, -22.241115) "></path>
                </g>
                <g id="person" transform="translate(0.000000, 143.227586)">
                    <mask id="mask-20" fill="white">
                        <use xlink:href="#path-19"></use>
                    </mask>
                    <use id="Mask" fill="#FED5F1" xlink:href="#path-19"></use>
                    <g id="Group-Copy-2" mask="url(#mask-20)">
                        <g transform="translate(21.610169, 25.127586) scale(-1, 1) translate(-21.610169, -25.127586) translate(6.610169, 1.627586)">
                            <rect id="Rectangle-20" fill="#323232" x="3.37627119" y="15.1291129" width="21.640678" height="24.2636716"></rect>
                            <path d="M27.9050847,42.0642942 C27.9050847,37.7174759 24.8841897,35.2242757 20.4524986,33.3282092 C19.3826695,32.8704907 19.084862,32.7039427 17.8732527,32.1341389 C16.8865225,31.6700928 19.1522441,35.517716 13.9525424,35.517716 C8.7528406,35.517716 10.2150613,31.9411361 9.12588954,32.4208931 C7.59169542,33.096673 7.58197808,33.1964791 6.2965755,33.8821242 C2.50384312,35.9052011 0,38.106919 0,42.0642942 C0,48.3150322 27.9050847,48.3150322 27.9050847,42.0642942 Z" id="Oval-11" fill="#FEF7D8"></path>
                            <ellipse id="Oval-6" fill="#FEE983" cx="14.3389831" cy="35.8245974" rx="6.1220339" ry="6.13728163"></ellipse>
                            <path d="M14.4465778,23.2722059 L14.4465778,23.2722059 C16.2872989,23.2722059 17.7794981,24.7644051 17.7794981,26.6051262 C17.7794981,26.6299562 17.7792207,26.6547855 17.7786658,26.6796093 L17.6821119,30.9990578 C17.6427978,32.7578189 16.2057783,34.1630753 14.4465778,34.1630753 L14.4465778,34.1630753 C12.6873773,34.1630753 11.2503579,32.7578189 11.2110438,30.9990578 L11.1144899,26.6796093 C11.073354,24.839348 12.5318333,23.3141741 14.3720947,23.2730382 C14.3969185,23.2724834 14.4217478,23.2722059 14.4465778,23.2722059 Z" id="Rectangle-Copy" fill="#F2DDCA"></path>
                            <path d="M14.4326477,7.05635226 L14.4605079,7.05635226 C19.0707547,7.05635226 22.808098,10.7936957 22.808098,15.4039424 C22.808098,15.592333 22.8017206,15.7806696 22.7889766,15.9686287 L22.3300681,22.7370066 C22.2208974,24.3471475 21.5175838,25.8593511 20.3565555,26.9802815 C18.4933274,28.7791603 16.5233348,29.6785996 14.4465778,29.6785996 C12.3698229,29.6785996 10.3998322,28.7791621 8.53660573,26.9802869 L8.53660413,26.9802886 C7.37557399,25.8593576 6.67225924,24.3471526 6.56308846,22.7370101 L6.10417907,15.9686287 C5.79231142,11.3689425 9.26827515,7.38734138 13.8679614,7.07547373 C14.0559204,7.06272974 14.2442571,7.05635226 14.4326477,7.05635226 Z" id="Rectangle" fill="#FFEBD8"></path>
                            <path d="M14.3397847,17.7243561 L14.3397847,17.7243561 C14.5583535,17.7243561 14.7436612,17.8850742 14.7745693,18.1014466 L15.0592998,20.0947069 C15.1160638,20.4920841 14.8399423,20.8602383 14.442565,20.9170023 C14.4085209,20.9218654 14.3741745,20.9243062 14.3397847,20.9243062 L14.3397847,20.9243062 C13.9383737,20.9243062 13.6129658,20.5988982 13.6129658,20.1974872 C13.6129658,20.1630975 13.6154065,20.1287511 13.6202696,20.0947069 L13.9050001,18.1014466 C13.9359082,17.8850742 14.1212159,17.7243561 14.3397847,17.7243561 Z" id="Rectangle-4" fill="#A5725C" opacity="0.200000003"></path>
                            <path d="M18.0811018,14.2313745 C18.0811018,14.2313745 18.0811018,14.2313745 18.0811018,14.2313745 C18.0811018,14.2313745 18.0811018,14.2313745 18.0811018,14.2313745 L18.0811018,14.2313745 C18.7796494,14.2313745 19.3459342,14.7976593 19.3459342,15.496207 L19.3459438,15.5756483 C19.3459438,15.7465694 19.207385,15.8851283 19.0364639,15.8851283 C18.9760305,15.8851283 18.9169194,15.8674345 18.866425,15.8342303 C18.6042424,15.661848 18.3403242,15.5756483 18.074659,15.5756483 C17.8074418,15.5756483 17.5402245,15.6628581 17.2730073,15.8372777 L17.2730353,15.8373207 C17.1285177,15.931651 16.9348931,15.8909662 16.8405628,15.7464486 C16.8074075,15.6956534 16.7897529,15.6363065 16.7897529,15.5756483 L16.7897598,15.5227165 C16.7897598,14.809528 17.3679133,14.2313745 18.0811018,14.2313745 Z" id="Rectangle-3-Copy-2" fill="#81685D"></path>
                            <g id="Group-4" stroke-width="1" fill="none" transform="translate(8.216949, 16.270933)">
                                <path d="M0.733523069,0.774331021 C1.42759015,0.271208287 2.03813246,0.0196469208 2.56515,0.0196469208 C3.09216754,0.0196469208 3.61918508,0.299703962 4.14620261,0.859818043 L4.14620261,0.859818043 C4.14620261,1.11219096 3.94161394,1.31677963 3.68924103,1.31677963 C3.60690455,1.31677963 3.52609769,1.2945334 3.45536263,1.2523926 C3.15776199,1.07501136 2.85832765,0.986351766 2.55709656,0.986351766 C2.29460608,0.986351766 2.01469246,1.08837353 1.71735569,1.29241705 L1.71733306,1.29238408 C1.43122026,1.4887253 1.040114,1.41595105 0.843772775,1.12983825 C0.771959973,1.02519104 0.733523069,0.901248781 0.733523069,0.774331021 Z" id="Rectangle-3-Copy" fill="#81685D"></path>
                                <path d="M0.0848919217,0.132030046 C0.308138448,0.859332108 0.723142399,1.28049363 1.32990378,1.3955146 C1.68884306,1.14394402 1.55139985,0.313529166 1.06690863,0.554123189 C0.817056602,0.678197479 0.4897177,0.537499765 0.0848919217,0.132030046 Z" id="Path-5" fill="#81685D"></path>
                            </g>
                            <g id="Group-4-Copy" stroke-width="1" fill="none" transform="translate(18.040678, 16.984570) scale(-1, 1) translate(-18.040678, -16.984570) translate(15.905085, 16.270933)">
                                <path d="M0.733523069,0.774331021 C1.42759015,0.271208287 2.03813246,0.0196469208 2.56515,0.0196469208 C3.09216754,0.0196469208 3.61918508,0.299703962 4.14620261,0.859818043 L4.14620261,0.859818043 C4.14620261,1.11219096 3.94161394,1.31677963 3.68924103,1.31677963 C3.60690455,1.31677963 3.52609769,1.2945334 3.45536263,1.2523926 C3.15776199,1.07501136 2.85832765,0.986351766 2.55709656,0.986351766 C2.29460608,0.986351766 2.01469246,1.08837353 1.71735569,1.29241705 L1.71733306,1.29238408 C1.43122026,1.4887253 1.040114,1.41595105 0.843772775,1.12983825 C0.771959973,1.02519104 0.733523069,0.901248781 0.733523069,0.774331021 Z" id="Rectangle-3-Copy" fill="#81685D"></path>
                                <path d="M0.0848919217,0.132030046 C0.308138448,0.859332108 0.723142399,1.28049363 1.32990378,1.3955146 C1.68884306,1.14394402 1.55139985,0.313529166 1.06690863,0.554123189 C0.817056602,0.678197479 0.4897177,0.537499765 0.0848919217,0.132030046 Z" id="Path-5" fill="#81685D"></path>
                            </g>
                            <path d="M19.1207946,16.1122057 C23.2882043,16.1122057 27.3233248,14.6095362 27.5199091,13.1337925 C27.7164933,11.6580489 21.1836051,4.45351382 17.0161954,4.45351382 C12.8487857,4.45351382 9.73264035,5.91836725 9.16660649,8.96952333 C8.60057263,12.0206794 14.9533849,16.1122057 19.1207946,16.1122057 Z" id="Oval-5" fill="#323232" transform="translate(18.327736, 10.282860) rotate(35.000000) translate(-18.327736, -10.282860) "></path>
                            <g id="Oval-2-Copy" stroke-width="1" fill="none" transform="translate(11.373397, 22.614637)">
                                <mask id="mask-22" fill="white">
                                    <use xlink:href="#path-21"></use>
                                </mask>
                                <use id="Mask" fill="#372C28" xlink:href="#path-21"></use>
                                <path d="M3.06415199,4.87871524 C4.75643641,4.87871524 6.12830399,3.50343085 6.12830399,1.80693157 C3.77974804,1.80693157 1.25571976,1.80693157 0,1.80693157 C0,3.50343085 1.37186758,4.87871524 3.06415199,4.87871524 Z" fill="#D96B70" mask="url(#mask-22)" transform="translate(3.064152, 3.342823) scale(1, -1) translate(-3.064152, -3.342823) "></path>
                                <path d="M3.06415199,0.542079471 C4.15915956,0.542079471 5.04683858,-0.347810431 5.04683858,-1.44554526 C3.52718473,-1.44554526 1.89398996,-1.44554526 1.08146541,-1.44554526 C1.08146541,-0.347810431 1.96914443,0.542079471 3.06415199,0.542079471 Z" id="Oval-2-Copy-2" fill="#FFFFFF" mask="url(#mask-22)" transform="translate(3.064152, -0.451733) scale(1, -1) translate(-3.064152, 0.451733) "></path>
                            </g>
                            <path d="M22.4989617,15.3477218 L22.4989617,26.2065858 C25.5506435,20.752223 25.9972452,15.1789785 23.838767,9.48685236 C21.1543909,3.38934359 20.7077891,5.34296674 22.4989617,15.3477218 Z" id="Path-3" fill="#323232"></path>
                            <path d="M12.5444256,8.7269212 C8.46222099,12.3422343 6.40044182,14.9948526 6.35908808,16.6847761 C6.31773435,18.3746996 6.33841121,21.2838187 6.42111869,25.4121334 C4.01625684,21.6700295 2.98168543,17.906059 3.31740443,14.1202219 C3.82098294,8.44146624 8.13658578,3.3385669 12.9923905,2.82760755 C16.2295936,2.48696798 16.080272,4.45340587 12.5444256,8.7269212 Z" id="Path-4" fill="#323232"></path>
                        </g>
                    </g>
                </g>
            </g>
        </g>
    </g>
</svg>