<svg xmlns="http://www.w3.org/2000/svg" viewBox="0 0 135 135"><defs><style>.cls-1{fill:#6a61ff;}.cls-2{fill:#f2c83a;}.cls-3{fill:#07ccc0;}.cls-4{fill:#3a3569;}</style></defs><title>Yoobic</title><g id="Translation"><path class="cls-1" d="M42,36.18v69.08H28.45a2,2,0,0,1-2-2V36.18a2,2,0,0,1,2-2H40A2,2,0,0,1,42,36.18Z"/><rect class="cls-2" x="26.45" y="85.1" width="15.5" height="2.75"/><rect class="cls-2" x="26.45" y="92.43" width="15.5" height="2.76"/><path class="cls-2" d="M44.54,19.27H58.37A2.58,2.58,0,0,1,61,21.85v83.42a0,0,0,0,1,0,0H42a0,0,0,0,1,0,0V21.85A2.58,2.58,0,0,1,44.54,19.27Z"/><circle class="cls-1" cx="51.45" cy="89.6" r="7"/><path class="cls-1" d="M80,27.76v77.5H61V27.76a2.59,2.59,0,0,1,2.58-2.58H77.37A2.59,2.59,0,0,1,80,27.76Z"/><rect class="cls-3" x="60.95" y="37.68" width="19" height="5.68"/><path class="cls-3" d="M92.69,27.16h5.67a2.58,2.58,0,0,1,2.58,2.58v75.46a2,2,0,0,1-2,2H92.14a2,2,0,0,1-2-2V29.74a2.58,2.58,0,0,1,2.58-2.58Z" transform="translate(-14.75 28.73) rotate(-15.89)"/><polygon class="cls-4" points="18.88 105.27 116.12 105.27 113.12 115.73 18.88 112.73 18.88 105.27"/></g></svg>