<svg xmlns="http://www.w3.org/2000/svg" xmlns:xlink="http://www.w3.org/1999/xlink" viewBox="0 0 135 135"><defs><style>.cls-1{fill:#ffe0df;}.cls-2{fill:#3a3569;}.cls-3{fill:#ec8480;}.cls-4{fill:#cd5c57;}.cls-5{fill:url(#linear-gradient);}.cls-6{fill:url(#linear-gradient-2);}.cls-7{fill:#fff;}.cls-8{fill:#b4362c;}</style><linearGradient id="linear-gradient" x1="9.33" y1="138.47" x2="39.12" y2="75.48" gradientUnits="userSpaceOnUse"><stop offset="0" stop-color="#3a3569"/><stop offset="1" stop-color="#4334a1"/></linearGradient><linearGradient id="linear-gradient-2" x1="43.39" y1="154.57" x2="73.18" y2="91.58" xlink:href="#linear-gradient"/></defs><title>Yoobic</title><g id="User"><path class="cls-1" d="M125.9,95.72a29.5,29.5,0,0,0-.82-4.42c-2.38-7.75-1.6-11.63-4.9-14a13.42,13.42,0,0,0-4.05-2.15c-6.49-2.4-4.52-2.25-12-4.57-.46-.15-5.38.32-10.35.85a103.66,103.66,0,0,0-10.34-.85C76,72.9,78,72.75,71.48,75.15a13.42,13.42,0,0,0-4,2.15c-3.3,2.37-2.52,6.25-4.9,14a30.46,30.46,0,0,0-.83,4.42,8.55,8.55,0,0,0,.1,3.07l32,.13,32-.13A8.57,8.57,0,0,0,125.9,95.72Z"/><path class="cls-2" d="M87.74,63.33c-1.9.57-1.51,1.82-4.38,3-1.65.7-4.66,2-7.26.45a6.7,6.7,0,0,1-2.77-7.43c.69-2,2.55-2.72,2.24-3.49-.46-1.13-4.44.48-5.82-1.26-1-1.26-.26-3.85.8-5.37s1.92-1.26,2.69-2.68A7.62,7.62,0,0,0,73.78,42c-.33-4,1.43-7.41,2.59-9.67a17.22,17.22,0,0,1,10.75-8.5c7.51-1.91,14.66,2.24,18.17,6.35.53.62-.09,0,4.76,8.69a54.62,54.62,0,0,1,3.74,9c.6,1.87,1,3.62.23,4.39-1,1-3.35-.26-3.81.53-.27.48.5,1,1.08,2.51a9.22,9.22,0,0,1,.35,4.92,8.31,8.31,0,0,1-5.41,6.94,10.36,10.36,0,0,1-5.57.41C93.45,66.56,91.4,62.22,87.74,63.33Z"/><path class="cls-3" d="M105.8,72.62c0,3.93-5.36,7.13-12,7.13s-12-3.2-12-7.13a3.87,3.87,0,0,1,0-.48,2.3,2.3,0,0,1,1-1.61,8.66,8.66,0,0,0,2-1.91,7.53,7.53,0,0,0,.77-1.25,15,15,0,0,0,1.15-5.84c0-.72,0-1.4,0-2a11,11,0,0,0,6.21,2.37,11.82,11.82,0,0,0,7.34-3.29,21.78,21.78,0,0,0,0,2.94,15.61,15.61,0,0,0,1,5.58,7.56,7.56,0,0,0,.89,1.51,8.51,8.51,0,0,0,2.35,2.11,2.27,2.27,0,0,1,1.14,1.87Z"/><path class="cls-3" d="M106.76,45a18.35,18.35,0,0,1-6.35,13.56,11.82,11.82,0,0,1-7.34,3.29,11,11,0,0,1-6.21-2.37A18.47,18.47,0,0,1,79.37,45c0-9.31,6.14-16.85,13.7-16.85S106.76,35.72,106.76,45Z"/><polygon class="cls-4" points="92.31 43.51 92.31 50.65 95.71 48.86 92.31 43.51"/><ellipse class="cls-3" cx="106.76" cy="47.75" rx="4.27" ry="3.02" transform="translate(40.67 144.24) rotate(-79.69)"/><path class="cls-2" d="M110.93,32.88c-1.4-.68-1.91-.2-3.49-.71s-2-1.13-3.76-2.55a13.35,13.35,0,0,0-4.53-2.36,15.29,15.29,0,0,0-11.27-1.48c-5.43,1.49-9.77,6.08-10.79,10.9-.17.84-.91,4.35.76,5.61,1.39,1.05,3.63-.07,3.76-.14A4.61,4.61,0,0,0,84,39.07c.19-1.34-.55-2.49-.13-2.81s.95.51,2.15.84A5.69,5.69,0,0,0,90.61,36a5.87,5.87,0,0,0,2-2.67c.67-1.89-.06-3.27.4-3.5.72-.37,2,3.38,5.32,4.77,2.12.87,3.09,0,4.21,1.12,1.54,1.54.51,4,2,5a2.44,2.44,0,0,0,3-.29v0a1,1,0,0,0,.74.49h.12a7.48,7.48,0,0,0,1.69-.44,5.86,5.86,0,0,0,2.16-1.89,4.14,4.14,0,0,0,1.14-3C113.08,33.93,111.43,33.13,110.93,32.88Z"/><ellipse class="cls-3" cx="79.37" cy="48.2" rx="3.02" ry="4.27" transform="matrix(0.98, -0.18, 0.18, 0.98, -7.35, 14.99)"/><path class="cls-5" d="M41.33,108.41a26.61,26.61,0,0,1-.21,3H9.22a9.48,9.48,0,0,1-.11-3.49,34.65,34.65,0,0,1,.93-5c2.69-8.78,1.82-13.17,5.55-15.85a24.24,24.24,0,0,1,3.68-1.5c6.56-2.43,9.84-3.65,11.08-3.46C39.2,83.47,41.36,107.13,41.33,108.41Z"/><path class="cls-6" d="M50.9,108.41a24.15,24.15,0,0,0,.22,3H83a9.48,9.48,0,0,0,.11-3.49,34.65,34.65,0,0,0-.93-5c-2.69-8.78-1.82-13.17-5.54-15.85A25.15,25.15,0,0,0,73,85.58c-6.56-2.43-9.83-3.65-11.08-3.46C53,83.47,50.88,107.13,50.9,108.41Z"/><path class="cls-7" d="M58.86,81.73c-.15.38-.31.81-.5,1.28-.08.23-.18.47-.27.73-.4,1-.87,2.23-1.37,3.54-.16.42-.33.84-.5,1.29-.25.66-.52,1.33-.79,2-.19.46-.37.94-.56,1.43,0,.07,0,.14-.07.2-.17.42-.34.84-.5,1.28s-.39,1-.59,1.52c-.3.77-.61,1.55-.91,2.34-1.3,3.37-2.67,6.89-4,10.27-.31.79-.62,1.58-.91,2.35-.22.55-.43,1.09-.64,1.63H44.49c-1.06-3.27-2.2-6.76-3.32-10.22-.3-.9-.59-1.8-.88-2.7l-1.81-5.55q-.36-1.09-.69-2.13a.17.17,0,0,0,0,0c-.11-.36-.23-.71-.34-1L36.49,87c-.52-1.62-1-3-1.36-4.21-.13-.4-.25-.76-.35-1.08Z"/><path class="cls-3" d="M60.37,81.78c0,4.45-6.07,8.07-13.57,8.07s-13.58-3.62-13.58-8.07a4.89,4.89,0,0,1,0-.54,2.57,2.57,0,0,1,1.17-1.82,9,9,0,0,0,3.19-3.57,17,17,0,0,0,1.3-6.61,22.3,22.3,0,0,0,0-2.3,12.38,12.38,0,0,0,7,2.69c2.62,0,5.64-1.39,8.31-3.72a24.25,24.25,0,0,0,0,3.33,17.61,17.61,0,0,0,1.16,6.31,9.13,9.13,0,0,0,1,1.71,9.62,9.62,0,0,0,2.66,2.38,2.56,2.56,0,0,1,1.29,2.12Z"/><path class="cls-3" d="M61.46,50.56a20.79,20.79,0,0,1-7.19,15.35c-2.67,2.33-5.69,3.72-8.31,3.72a12.38,12.38,0,0,1-7-2.69,20.87,20.87,0,0,1-8.47-16.38C30.46,40,37.4,31.49,46,31.49S61.46,40,61.46,50.56Z"/><ellipse class="cls-3" cx="30.25" cy="52.56" rx="3.42" ry="4.83" transform="translate(-8.92 6.27) rotate(-10.31)"/><polygon class="cls-4" points="45.11 48.84 45.11 56.92 48.95 54.89 45.11 48.84"/><path class="cls-8" d="M29.38,47.81l4.5,1,1.28-12s10.05,5,19.89,0l3.2,12,4.07,0c1.48,0,5.48-25.05-17.61-23.12C26.19,27.3,27.9,44.09,29.38,47.81Z"/><ellipse class="cls-3" cx="61.46" cy="53.64" rx="4.83" ry="3.42" transform="translate(-2.31 104.5) rotate(-79.69)"/><path class="cls-2" d="M35.83,77.2c.81,1.16,6.42,23.9,6.4,34.05a.15.15,0,0,1-.14.16H36.51a.13.13,0,0,1-.13-.08L25.67,87.83a.14.14,0,0,1,0-.17l2.55-1.91a.14.14,0,0,0-.07-.25L25,85.12a.14.14,0,0,1-.1-.22l2-2.8"/><path class="cls-2" d="M56.91,77.2c-.81,1.16-6.42,23.9-6.4,34.05a.15.15,0,0,0,.14.16h5.58a.13.13,0,0,0,.13-.08l10.71-23.5a.14.14,0,0,0,0-.17l-2.54-1.91a.14.14,0,0,1,.06-.25l3.21-.38a.14.14,0,0,0,.1-.22l-2-2.8"/></g></svg>