<svg xmlns="http://www.w3.org/2000/svg" xmlns:xlink="http://www.w3.org/1999/xlink" viewBox="0 0 135 135"><defs><style>.cls-1{fill:#32d2b6;}.cls-2{fill:url(#linear-gradient);}.cls-3{fill:#ef6e7f;}.cls-4{fill:#8fbcfe;}.cls-5{fill:url(#linear-gradient-2);}.cls-6{fill:#6a61ff;}.cls-7{fill:#3a3569;}</style><linearGradient id="linear-gradient" x1="23.36" y1="77.62" x2="64.04" y2="77.62" gradientUnits="userSpaceOnUse"><stop offset="0" stop-color="#673fef"/><stop offset="0.61" stop-color="#877def"/><stop offset="1" stop-color="#5ab0ff"/></linearGradient><linearGradient id="linear-gradient-2" x1="52.41" y1="118.41" x2="83.98" y2="85.21" xlink:href="#linear-gradient"/></defs><title>Yoobic</title><g id="usertrial"><path class="cls-1" d="M124.88,36.67,95.06,56.9s-15.45-22-15.33-22.52h0L109.9,13.91l.18.26Z"/><path class="cls-2" d="M63.8,72.93c.93,3-1.06,6-2,7.41-3.53,5.28-9.56,6.66-11.63,7.14C48.36,87.89,40.3,89.74,33,85c-8.53-5.61-10.73-16.87-9.22-17.83,1-.64,2.93,4,8.06,4.94,3.53.67,4.87-1.08,14.07-3.43,5.92-1.51,7.71-1.38,8.6-1.28C55.58,67.48,62.4,68.44,63.8,72.93Z"/><path class="cls-3" d="M87.22,50.45a11.09,11.09,0,0,0-1.32-4.27,10.51,10.51,0,0,0-1.25-1.78l1.22-.16c4.85-.6,5.47-.14,5.69.24C92.25,45.68,89.56,47.47,87.22,50.45Z"/><path class="cls-4" d="M82.2,99.67c-8.78,12.32-24.35,13.72-27.75,14-15.71,1.4-31.72-6.08-39.28-18.09-4.44-7-6.38-16.29-4.05-17.78,2-1.27,5.34,4.35,12.78,7,10,3.57,24.51.83,31-7.63,5.41-7,1.27-12.79,8.74-22.14A28.87,28.87,0,0,1,73,47.28c3.51-1.77,6.39-2.23,11.64-2.88a10.51,10.51,0,0,1,1.25,1.78,11.09,11.09,0,0,1,1.32,4.27,14.76,14.76,0,0,0-2.37,4.16c-2.23,6.24,1.85,10.19,3.27,18.55A36.82,36.82,0,0,1,82.2,99.67Z"/><path class="cls-5" d="M80.16,75.18c4.11,1.31,5.89,5.87,6.74,8,3.16,8.09,0,15.94-1.08,18.63-.95,2.34-5.17,12.83-16.23,17.26-13,5.18-27.32-1.16-27.21-3.6.07-1.65,6.72-.19,11.83-5.18,3.52-3.44,2.6-6.31,7.16-18.46,2.93-7.83,4.47-9.73,5.28-10.65C67.61,80.14,74,73.23,80.16,75.18Z"/><path class="cls-6" d="M104.29,20.32s4.86-3.12,4.8-2.94,3,4.79,3,4.79l-4.21,2.74Z"/><path class="cls-7" d="M100.82,42.32a.93.93,0,0,1-.93-.93,1,1,0,0,1,.64-.89c.15-.08.73-.43,2.92-1.93a.94.94,0,1,1,1,1.55C101.28,42.32,101.18,42.32,100.82,42.32Zm7.78-5.25a.92.92,0,0,1-.77-.4.94.94,0,0,1,.23-1.3c3.57-2.49,7.06-5,7.25-5.1a.94.94,0,0,1,1.49.75c0,.52,0,.52-7.66,5.88A.93.93,0,0,1,108.6,37.07Z"/><path class="cls-7" d="M110.2,41.58a1,1,0,0,1-.88-1.19.91.91,0,0,1,.54-.62c.69-.43,5.33-4,8.16-6.15a.93.93,0,1,1,1.14,1.48C111.76,40.81,110.73,41.58,110.2,41.58Z"/><circle class="cls-7" cx="78.22" cy="55.34" r="1.91"/></g></svg>