<svg xmlns="http://www.w3.org/2000/svg" xmlns:xlink="http://www.w3.org/1999/xlink" viewBox="0 0 135 135"><defs><style>.cls-1{fill:#8fbcff;}.cls-2{fill:#6a61ff;}.cls-3{fill:#e1dfff;}.cls-4{fill:url(#linear-gradient);}.cls-5{fill:#3a3569;}</style><linearGradient id="linear-gradient" x1="65.7" y1="70.64" x2="106.95" y2="39.89" gradientUnits="userSpaceOnUse"><stop offset="0" stop-color="#673fef"/><stop offset="0.61" stop-color="#877def"/><stop offset="1" stop-color="#5ab0ff"/></linearGradient></defs><title>Yoobic</title><g id="videocall"><rect class="cls-1" x="18.74" y="12.83" width="62.33" height="109.33" rx="8.33" ry="8.33"/><polygon class="cls-2" points="74.17 105.91 26.01 105.41 26.01 23.45 74.17 23.45 74.17 105.91"/><path class="cls-3" d="M64.26,28.78h40a12,12,0,0,1,12,12V64a12,12,0,0,1-12,12h-52a0,0,0,0,1,0,0V40.78A12,12,0,0,1,64.26,28.78Z"/><polygon class="cls-4" points="106.34 38.09 93.09 50.79 93.09 41.15 66.34 41.15 66.34 66.28 93.09 66.28 93.09 57.65 106.34 69.34 106.34 38.09"/><rect class="cls-5" x="42.78" y="17.28" width="19.87" height="2.13" rx="1.06" ry="1.06"/><circle class="cls-5" cx="38.59" cy="18.34" r="1.06"/><circle class="cls-2" cx="50.09" cy="113.65" r="5.25"/></g></svg>