<?xml version="1.0" encoding="UTF-8"?>
<svg width="239px" height="274px" viewBox="0 0 239 274" version="1.1" xmlns="http://www.w3.org/2000/svg" xmlns:xlink="http://www.w3.org/1999/xlink">
    <!-- Generator: Sketch 49.3 (51167) - http://www.bohemiancoding.com/sketch -->
    <title>Artwork</title>
    <desc>Created with Sketch.</desc>
    <defs>
        <rect id="path-1" x="0" y="0" width="169.521368" height="62.7999992" rx="13.5"></rect>
        <filter x="-14.7%" y="-31.8%" width="129.5%" height="179.6%" filterUnits="objectBoundingBox" id="filter-2">
            <feOffset dx="0" dy="5" in="SourceAlpha" result="shadowOffsetOuter1"></feOffset>
            <feGaussianBlur stdDeviation="7.5" in="shadowOffsetOuter1" result="shadowBlurOuter1"></feGaussianBlur>
            <feColorMatrix values="0 0 0 0 0.156862745   0 0 0 0 0.184313725   0 0 0 0 0.211764706  0 0 0 0.08 0" type="matrix" in="shadowBlurOuter1"></feColorMatrix>
        </filter>
        <rect id="path-3" x="0" y="0" width="169.521368" height="62.7999992" rx="13.5"></rect>
        <filter x="-14.7%" y="-31.8%" width="129.5%" height="179.6%" filterUnits="objectBoundingBox" id="filter-4">
            <feOffset dx="0" dy="5" in="SourceAlpha" result="shadowOffsetOuter1"></feOffset>
            <feGaussianBlur stdDeviation="7.5" in="shadowOffsetOuter1" result="shadowBlurOuter1"></feGaussianBlur>
            <feColorMatrix values="0 0 0 0 0.156862745   0 0 0 0 0.184313725   0 0 0 0 0.211764706  0 0 0 0.08 0" type="matrix" in="shadowBlurOuter1"></feColorMatrix>
        </filter>
        <path d="M14.5,1.08466954 L156.021368,21.1718058 C163.477212,22.3127668 169.521368,27.523162 169.521368,32.8014368 L169.521368,68.0597461 C169.521368,73.3380209 163.477212,78.540779 156.021368,79.6723605 L15.5,94.5889628 C8.04415588,95.5412104 9.13077564e-16,89.283215 0,79.3858475 L0,16.2724946 C8.63279275e-16,6.37512713 7.04415588,0.123958883 14.5,1.08466954 Z" id="path-5"></path>
        <filter x="-36.6%" y="-45.9%" width="173.1%" height="232.3%" filterUnits="objectBoundingBox" id="filter-6">
            <feOffset dx="0" dy="19" in="SourceAlpha" result="shadowOffsetOuter1"></feOffset>
            <feGaussianBlur stdDeviation="17.5" in="shadowOffsetOuter1" result="shadowBlurOuter1"></feGaussianBlur>
            <feColorMatrix values="0 0 0 0 0.462632681   0 0 0 0 0.477180481   0 0 0 0 0.494525935  0 0 0 0.189056839 0" type="matrix" in="shadowBlurOuter1"></feColorMatrix>
        </filter>
        <linearGradient x1="60.881%" y1="74.0327464%" x2="32.4700625%" y2="-13.3084847%" id="linearGradient-7">
            <stop stop-color="#15DABA" offset="0%"></stop>
            <stop stop-color="#13DEB4" offset="20.5%"></stop>
            <stop stop-color="#0DE8A2" offset="49.01%"></stop>
            <stop stop-color="#04F884" offset="82.08%"></stop>
            <stop stop-color="#00FF78" offset="100%"></stop>
        </linearGradient>
    </defs>
    <g id="Page-1" stroke="none" stroke-width="1" fill="none" fill-rule="evenodd">
        <g id="Walkthrough-1" transform="translate(-77.000000, -132.000000)">
            <g id="Artwork" transform="translate(111.000000, 145.000000)">
                <g id="3" transform="translate(0.739316, 178.670013)">
                    <g id="Rectangle-18">
                        <use fill="black" fill-opacity="1" filter="url(#filter-2)" xlink:href="#path-1"></use>
                        <use fill="#FFFFFF" fill-rule="evenodd" xlink:href="#path-1"></use>
                    </g>
                    <rect id="Rectangle" fill="#1B3554" opacity="0.300000012" x="59" y="13" width="94.9499969" height="6.58322046" rx="3.29161023"></rect>
                    <rect id="Rectangle-Copy" fill="#1B3554" opacity="0.300000012" x="59" y="25" width="69.9300003" height="6.58322046" rx="3.29161023"></rect>
                    <rect id="Rectangle-Copy-2" fill="#1B3554" opacity="0.149999991" x="59" y="43" width="27.1527732" height="6.58322046" rx="3.29161023"></rect>
                    <ellipse id="Oval-8" fill="#BAC2CB" cx="30.4110334" cy="23.3608477" rx="15.4110334" ry="15.3608477"></ellipse>
                    <path d="M27.939436,29.060564 C28.2326933,29.3538213 28.6159529,29.500075 28.9999625,29.500075 C29.3839721,29.500075 29.7672317,29.3538213 30.060489,29.060564 L37.5606765,21.5603765 C38.1464412,20.9746119 38.1464412,20.0250881 37.5606765,19.4393235 C36.9749119,18.8535588 36.0253881,18.8535588 35.4396235,19.4393235 L28.9999625,25.8782345 L25.5603765,22.4393985 C24.9746119,21.8536338 24.0250881,21.8536338 23.4393235,22.4393985 C22.8535588,23.0251631 22.8535588,23.9746869 23.4393235,24.5604515 L27.939436,29.060564 Z" id="Shape" fill="#FFFFFF" fill-rule="nonzero"></path>
                </g>
                <g id="2" transform="translate(0.739316, 105.671779)">
                    <g id="Rectangle-18">
                        <use fill="black" fill-opacity="1" filter="url(#filter-4)" xlink:href="#path-3"></use>
                        <use fill="#FFFFFF" fill-rule="evenodd" xlink:href="#path-3"></use>
                    </g>
                    <rect id="Rectangle" fill="#1B3554" opacity="0.300000012" x="59" y="13" width="94.9499969" height="6.58322046" rx="3.29161023"></rect>
                    <rect id="Rectangle-Copy" fill="#1B3554" opacity="0.300000012" x="59" y="25" width="69.9300003" height="6.58322046" rx="3.29161023"></rect>
                    <rect id="Rectangle-Copy-2" fill="#1B3554" opacity="0.149999991" x="59" y="43" width="27.1527732" height="6.58322046" rx="3.29161023"></rect>
                    <ellipse id="Oval-8" fill="#BAC2CB" cx="30.4110334" cy="23.3608477" rx="15.4110334" ry="15.3608477"></ellipse>
                    <path d="M27.939436,29.060564 C28.2326933,29.3538213 28.6159529,29.500075 28.9999625,29.500075 C29.3839721,29.500075 29.7672317,29.3538213 30.060489,29.060564 L37.5606765,21.5603765 C38.1464412,20.9746119 38.1464412,20.0250881 37.5606765,19.4393235 C36.9749119,18.8535588 36.0253881,18.8535588 35.4396235,19.4393235 L28.9999625,25.8782345 L25.5603765,22.4393985 C24.9746119,21.8536338 24.0250881,21.8536338 23.4393235,22.4393985 C22.8535588,23.0251631 22.8535588,23.9746869 23.4393235,24.5604515 L27.939436,29.060564 Z" id="Shape" fill="#FFFFFF" fill-rule="nonzero"></path>
                </g>
                <g id="1" transform="translate(0.739316, 0.669998)">
                    <g id="Rectangle-18">
                        <use fill="black" fill-opacity="1" filter="url(#filter-6)" xlink:href="#path-5"></use>
                        <use fill="#FFFFFF" fill-rule="evenodd" xlink:href="#path-5"></use>
                    </g>
                    <path d="M62.2916102,29.8688071 L150.658387,36.0131183 C152.476293,36.1458703 153.949997,37.388225 153.949997,38.7877636 C153.949997,40.1873021 152.476293,41.2522837 150.658387,41.1666158 L62.2916102,37.2011917 C60.4737041,37.1237039 59,35.4023604 59,33.3563142 C59,31.310268 60.4737041,29.7487541 62.2916102,29.8688071 Z" id="Rectangle" fill="#1B3554" opacity="0.300000012"></path>
                    <path d="M62.2916102,43.2343955 L125.63839,44.7702835 C127.456296,44.8159719 128.93,46.1311273 128.93,47.7076838 C128.93,49.2842404 127.456296,50.5624079 125.63839,50.56255 L62.2916102,50.5667801 C60.4737041,50.5668809 59,48.9083135 59,46.8622673 C59,44.816221 60.4737041,43.1919311 62.2916102,43.2343955 Z" id="Rectangle-Copy" fill="#1B3554" opacity="0.300000012"></path>
                    <path d="M62.2916102,63.2827782 L82.8611629,62.4353077 C84.6790691,62.3594297 86.1527732,63.8122533 86.1527732,65.6804241 C86.1527732,67.548595 84.6790691,69.1601568 82.8611629,69.2797218 L62.2916102,70.6151628 C60.4737041,70.7316464 59,69.1672431 59,67.1211969 C59,65.0751506 60.4737041,63.3566965 62.2916102,63.2827782 Z" id="Rectangle-Copy-2" fill="#1B3554" opacity="0.149999991"></path>
                    <path d="M32.5687502,59.3246747 C42.2717029,59.1202769 50.1375003,50.8756603 50.1375003,40.9120687 C50.1375003,30.9484771 42.2717029,22.3181848 32.5687502,21.6431277 C22.8657974,20.9761963 15,29.2272253 15,40.0649603 C15,50.9026954 22.8657974,59.5265753 32.5687502,59.3246747 Z" id="Oval-8" fill="url(#linearGradient-7)"></path>
                    <path d="M29.7511015,47.4540621 C30.0854181,47.8183518 30.5223383,48.0014621 30.9601136,48.004129 C31.3978888,48.0067973 31.834809,47.8297604 32.1691256,47.4719064 L40.7194231,38.5162882 C41.3872014,37.8328845 41.3872014,36.6929409 40.7194231,35.9656762 C40.0516449,35.2361137 38.9691772,35.1953607 38.301399,35.8788314 L30.9601136,43.54471 L27.0389471,39.205954 C26.3711689,38.4591095 25.2887012,38.4284871 24.620923,39.1416678 C23.9531448,39.8571346 23.9531448,41.0456287 24.620923,41.792424 L29.7511015,47.4540621 Z" id="Shape" fill="#FFFFFF" fill-rule="nonzero"></path>
                </g>
            </g>
        </g>
    </g>
</svg>