<svg xmlns="http://www.w3.org/2000/svg" xmlns:xlink="http://www.w3.org/1999/xlink" viewBox="0 0 135 135"><defs><style>.cls-1{fill:url(#linear-gradient);}.cls-2{fill:#3a3569;}.cls-3{fill:#6a61ff;}.cls-4{fill:url(#linear-gradient-2);}.cls-5{fill:url(#linear-gradient-3);}</style><linearGradient id="linear-gradient" x1="71.53" y1="4.65" x2="66.86" y2="97.98" gradientUnits="userSpaceOnUse"><stop offset="0.61" stop-color="#877def"/><stop offset="1" stop-color="#5ab0ff"/></linearGradient><linearGradient id="linear-gradient-2" x1="85.82" y1="21.62" x2="65.16" y2="89.29" gradientUnits="userSpaceOnUse"><stop offset="0" stop-color="#fbd968"/><stop offset="1" stop-color="#f3c93b"/></linearGradient><linearGradient id="linear-gradient-3" x1="82.04" y1="20.46" x2="61.37" y2="88.13" xlink:href="#linear-gradient-2"/></defs><title>Yoobic</title><g id="Admin"><polygon class="cls-1" points="119.95 105.56 16.8 105.56 16.8 30.05 119.95 31.9 119.95 105.56"/><polygon class="cls-2" points="114.23 101.37 22.52 101.37 22.52 34.23 114.23 35.88 114.23 101.37"/><polygon class="cls-3" points="126.33 111.9 11.33 111.9 11.33 105.07 126.33 102.07 126.33 111.9"/><rect class="cls-4" x="53.28" y="64.86" width="31.09" height="24.8"/><path class="cls-5" d="M72.07,82.38a1.78,1.78,0,1,1,0-3.56,4.34,4.34,0,0,0,4.33-4.33V53.41A7.45,7.45,0,0,0,69,46H68.7a7.45,7.45,0,0,0-7.45,7.44v3.25a1.78,1.78,0,0,1-3.56,0V53.41a11,11,0,0,1,11-11H69a11,11,0,0,1,11,11V74.49A7.9,7.9,0,0,1,72.07,82.38Z"/></g></svg>