<svg id="Archived" xmlns="http://www.w3.org/2000/svg" xmlns:xlink="http://www.w3.org/1999/xlink" viewBox="0 0 135 135"><defs><style>.cls-1{fill:#1c76fc;opacity:0.2;}.cls-2{fill:url(#linear-gradient);}.cls-3{fill:#3a3569;}.cls-4{fill:#d4f0ff;}.cls-5{fill:#cdf5f2;}</style><linearGradient id="linear-gradient" x1="8.45" y1="108.63" x2="110.04" y2="32.87" gradientUnits="userSpaceOnUse"><stop offset="0" stop-color="#673fef"/><stop offset="0.61" stop-color="#877def"/><stop offset="1" stop-color="#5ab0ff"/></linearGradient></defs><title>Yoobic</title><path class="cls-1" d="M20.72,36.76c.25,15.51.76,47.41,1,60a13.45,13.45,0,0,0,3.7,9.07l1.84,1.94A13.52,13.52,0,0,0,37,112H97.3a13.51,13.51,0,0,0,13.48-12.75l3.48-61.91A13.51,13.51,0,0,0,100.77,23H34.23a13.55,13.55,0,0,0-5.74,1.28h0A13.51,13.51,0,0,0,20.72,36.76Z"/><path class="cls-2" d="M104.46,32.8h-73c-.31.68-.09,60.73-.07,68.3a.8.8,0,0,0,.79.79l60.49.55a7.79,7.79,0,0,0,7.85-7.31Z"/><rect class="cls-3" x="27.73" y="41.18" width="7.13" height="13.37" rx="3.57" ry="3.57"/><rect class="cls-3" x="27.73" y="80.14" width="7.13" height="13.37" rx="3.57" ry="3.57"/><rect class="cls-4" x="88.79" y="47.53" width="7.13" height="40.28" rx="3.57" ry="3.57" transform="translate(2.87 -3.75) rotate(2.37)"/><circle class="cls-5" cx="57.3" cy="67.5" r="12.36"/><path class="cls-3" d="M70.34,65.53h-3a10.21,10.21,0,0,0-8-8v-3a2,2,0,0,0-4,0v3a10.19,10.19,0,0,0-8,8h-3a2,2,0,1,0,0,3.94h3a10.19,10.19,0,0,0,8,8v3a2,2,0,0,0,4,0v-3a10.21,10.21,0,0,0,8-8h3a2,2,0,0,0,0-3.94Z"/><circle class="cls-5" cx="57.3" cy="67.5" r="5.51"/></svg>