<svg xmlns="http://www.w3.org/2000/svg" xmlns:xlink="http://www.w3.org/1999/xlink" viewBox="0 0 135 135"><defs><style>.cls-1{fill:#cdf5f2;}.cls-2{fill:url(#linear-gradient);}.cls-3{fill:#ec8480;}.cls-4{fill:#cd5c57;}.cls-5{fill:#b4362c;}.cls-6{fill:#fff;}.cls-7{fill:#ef6e7f;}</style><linearGradient id="linear-gradient" x1="32.77" y1="154.29" x2="70.27" y2="74.97" gradientUnits="userSpaceOnUse"><stop offset="0" stop-color="#3a3569"/><stop offset="1" stop-color="#4334a1"/></linearGradient></defs><title>Yoobic</title><g id="Area_manager" data-name="Area manager"><polygon class="cls-1" points="94.94 114.91 22.51 114.91 22.51 67.7 86.09 62.36 94.94 114.91"/><polygon class="cls-1" points="51.42 21.85 44.09 63.88 22.51 65.68 22.51 22.64 51.42 21.85"/><polygon class="cls-1" points="114.2 58 46.15 63.7 53.45 21.8 113.19 20.17 114.2 58"/><polygon class="cls-1" points="115.72 114.91 96.98 114.91 88.09 62.19 114.25 60 115.72 114.91"/><path class="cls-2" d="M86.82,111.83a29,29,0,0,0-.82-4.41c-2.38-7.77-1.61-11.65-4.91-14a21.68,21.68,0,0,0-3.26-1.33c-2-.74-3.61-1.34-5-1.81L63.51,86l-16.67-.71-10,4.45c-1.58.52-3.71,1.31-6.54,2.36-1.13.42-1.93.72-2.47.94a4.2,4.2,0,0,0-.8.39c-3.3,2.38-2.53,6.26-4.9,14a29,29,0,0,0-.82,4.41,8.24,8.24,0,0,0,.09,3.09H86.72A8,8,0,0,0,86.82,111.83Z"/><path class="cls-3" d="M66.69,88.7c0,3.94-5.37,7.14-12,7.14s-12-3.2-12-7.14c0-.16,0-.32,0-.47a2.27,2.27,0,0,1,1-1.61,8.86,8.86,0,0,0,2.05-1.92,8,8,0,0,0,.77-1.25A15,15,0,0,0,47.7,77.6a17.39,17.39,0,0,0,0-2A11,11,0,0,0,53.94,78c2.32,0,5-1.23,7.36-3.29a21.63,21.63,0,0,0,0,2.94,15.75,15.75,0,0,0,1,5.58,7.89,7.89,0,0,0,.9,1.52,8.51,8.51,0,0,0,2.35,2.11,2.27,2.27,0,0,1,1.14,1.88Z"/><path class="cls-3" d="M67.65,61.08A18.41,18.41,0,0,1,61.3,74.66c-2.37,2.06-5,3.29-7.36,3.29a11,11,0,0,1-6.22-2.38,18.49,18.49,0,0,1-7.49-14.49c0-9.33,6.14-16.88,13.71-16.88S67.65,51.75,67.65,61.08Z"/><ellipse class="cls-3" cx="40.04" cy="62.85" rx="3.03" ry="4.28" transform="translate(-10.6 8.18) rotate(-10.31)"/><polygon class="cls-4" points="53.19 59.55 53.19 66.7 56.59 64.91 53.19 59.55"/><path class="cls-5" d="M39.27,58.64l4,.92L44.38,49s8.9,4.41,17.6,0l2.84,10.59,3.6,0c1.31,0,4.85-22.17-15.58-20.46C36.44,40.49,38,55.35,39.27,58.64Z"/><ellipse class="cls-3" cx="67.66" cy="63.8" rx="4.28" ry="3.03" transform="translate(-7.22 118.94) rotate(-79.69)"/><polygon class="cls-6" points="45.21 84.66 54.31 95.84 42.69 98.37 41.56 86.95 45.21 84.66"/><polygon class="cls-6" points="63.51 84.66 54.41 95.84 66.03 98.37 67.16 86.95 63.51 84.66"/><polygon class="cls-7" points="54.31 96.14 50.54 101.83 54.89 106.26 58.98 102.01 54.31 96.14"/><polygon class="cls-7" points="54.89 106.26 51.23 114.92 58.98 114.92 54.89 106.26"/></g></svg>