<svg xmlns="http://www.w3.org/2000/svg" xmlns:xlink="http://www.w3.org/1999/xlink" viewBox="0 0 135 135"><defs><style>.cls-1{fill:url(#linear-gradient);}.cls-2{fill:#6a61ff;}.cls-3{fill:#e1dfff;}.cls-4{fill:#3a3569;}</style><linearGradient id="linear-gradient" x1="70.83" y1="109.68" x2="142.33" y2="-3.32" gradientUnits="userSpaceOnUse"><stop offset="0" stop-color="#673fef"/><stop offset="0.61" stop-color="#877def"/><stop offset="1" stop-color="#5ab0ff"/></linearGradient></defs><title>Yoobic</title><g id="Feed"><polygon class="cls-1" points="125.35 18.63 122.35 112.79 66.02 107.04 66.02 32.74 125.35 18.63"/><polygon class="cls-2" points="66.02 32.74 10.35 23.38 9.65 116.38 66.02 107.04 66.02 32.74"/><polygon class="cls-3" points="119.17 24.11 116.58 115.69 66.08 107.03 66.08 32.72 119.17 24.11"/><polygon class="cls-3" points="18.77 32.74 18.77 57.75 40.02 57.75 40.33 36.06 18.77 32.74"/><polygon class="cls-3" points="60.35 69.92 60.35 100.63 44.19 103.29 44.19 67.88 60.35 68.08 60.35 69.92"/><path class="cls-4" d="M61.62,42.47h-.1L44.3,40.89a1,1,0,0,1,.19-2l17.22,1.58a1,1,0,0,1-.09,2Z"/><path class="cls-4" d="M61.62,47.59h0l-17.22-.84a1,1,0,0,1-1-1.05,1,1,0,0,1,1.05-.95l17.21.85a1,1,0,0,1,1,1A1,1,0,0,1,61.62,47.59Z"/><path class="cls-4" d="M61.79,52.61h0l-17.57-.3a1,1,0,0,1-1-1,1,1,0,0,1,1-1l17.57.3a1,1,0,0,1,0,2Z"/><path class="cls-4" d="M39.1,71.37h0l-21.16-.45a1,1,0,0,1-1-1,1,1,0,0,1,1-1l21.17.45a1,1,0,0,1,0,2Z"/><path class="cls-4" d="M17.52,79.87a1,1,0,0,1,0-2l21.58-.5a1,1,0,0,1,1,1,1,1,0,0,1-1,1l-21.59.5Z"/><path class="cls-4" d="M17.52,89.46a1,1,0,0,1-.09-2L39,85.55a1,1,0,0,1,1.08.9,1,1,0,0,1-.91,1.09L17.61,89.45Z"/><path class="cls-4" d="M17.52,100a1,1,0,0,1-.15-2L39,94.72a1,1,0,0,1,.31,2L17.67,100Z"/><polygon class="cls-2" points="71.19 36.13 84.35 34.13 84.35 59.56 71.19 59.29 71.19 36.13"/><polygon class="cls-2" points="111.77 107.46 112.6 80.46 86.35 80.46 86.69 103.29 111.77 107.46"/><path class="cls-2" d="M88.71,37.13a1,1,0,0,1-.15-2l23.92-3.5a1,1,0,0,1,.29,2l-23.92,3.5Z"/><path class="cls-2" d="M89.1,43.58a1,1,0,0,1-.1-2l24.19-2.54a1,1,0,1,1,.21,2L89.21,43.57Z"/><path class="cls-2" d="M88.75,49.74a1,1,0,0,1-1-1,1,1,0,0,1,1-1l24.9-1.26a1,1,0,1,1,.1,2L88.8,49.73Z"/><path class="cls-2" d="M82.29,81.46H70.48a1,1,0,0,1,0-2H82.29a1,1,0,0,1,0,2Z"/><path class="cls-2" d="M81.91,87.09H70.09a1,1,0,0,1,0-2H81.91a1,1,0,0,1,0,2Z"/><path class="cls-2" d="M81.86,94.45h-.09l-11.51-1a1,1,0,1,1,.18-2l11.51,1a1,1,0,0,1-.09,2Z"/><path class="cls-2" d="M81.77,101.05l-.16,0L70.24,99.11A1,1,0,0,1,69.43,98a1,1,0,0,1,1.15-.82l11.36,1.92a1,1,0,0,1-.17,2Z"/><path class="cls-2" d="M71.9,66a1,1,0,0,1-.2-2c.13,0,.4-.08,41.26,0a1,1,0,0,1,0,2h0c-13.72,0-39.84,0-41,0Z"/><path class="cls-2" d="M112.61,71.81h0c-3.12-.08-18.71-.51-19.67-.68a1,1,0,0,1,.34-2c.84.12,12,.46,19.38.65a1,1,0,0,1,0,2Z"/></g></svg>