<svg xmlns="http://www.w3.org/2000/svg" viewBox="0 0 135 135"><defs><style>.cls-1{fill:#d4f0ff;}.cls-2{fill:#8fbcff;}.cls-3{fill:#6a61ff;}.cls-4{fill:#3a3569;}.cls-5{fill:#f2c83a;}.cls-6{fill:#fff;}</style></defs><title>Yoobic</title><g id="Field_user" data-name="Field user"><rect class="cls-1" x="20.71" y="19.15" width="93.5" height="98.96" rx="7.39" ry="7.39"/><rect class="cls-2" x="36.3" y="13.96" width="62.33" height="109.33" rx="8.33" ry="8.33"/><polygon class="cls-3" points="91.73 107.04 43.56 106.54 43.56 24.58 91.73 24.58 91.73 107.04"/><rect class="cls-4" x="60.33" y="18.41" width="19.88" height="2.12" rx="1.06" ry="1.06"/><circle class="cls-4" cx="56.15" cy="19.47" r="1.06"/><path class="cls-5" d="M83.56,53.5,79,53.42,79,51a1.45,1.45,0,0,0-1.4-1.52L74,49.37h0L69,49.28l-11.19-.2a1.28,1.28,0,0,0-.55.1,1.5,1.5,0,0,0-.64.53,1.57,1.57,0,0,0-.26.83l0,2.46-5-.09a2,2,0,0,0-1.95,2l-.06,3.22a7.22,7.22,0,0,0,7,7.18A13.37,13.37,0,0,0,56.63,67c.06.19.11.38.18.56s.13.36.2.54a9.74,9.74,0,0,0,.52,1.14h0a11.42,11.42,0,0,0,7.23,5.69l0,2.51,0,.94-4.51-.08a1.44,1.44,0,0,0-1.42,1.43l0,1.09a1.44,1.44,0,0,0,1.38,1.48l13.95.26a1.43,1.43,0,0,0,1.42-1.43V80a1.43,1.43,0,0,0-1.37-1.48l-4.51-.09,0-1.78,0-1.65a11.6,11.6,0,0,0,8.86-9.34,7.2,7.2,0,0,0,7-6.92l0-3A2.18,2.18,0,0,0,83.56,53.5ZM50.68,58.12l0-3.22a.54.54,0,0,1,.54-.53l5,.09-.15,8.78c0,.19,0,.38,0,.58A5.78,5.78,0,0,1,50.68,58.12Zm33.51.62a5.76,5.76,0,0,1-5.44,5.48c0-.19,0-.38,0-.57l.15-8.78,4.62.09a.74.74,0,0,1,.71.76Z"/><path class="cls-6" d="M69.84,52.14,59.36,52c-.44,0-.8-.27-.79-.57V51c0-.3.37-.55.81-.54l10.48.19c.44,0,.79.27.79.57v.35C70.65,51.9,70.28,52.15,69.84,52.14Z"/><circle class="cls-3" cx="68.26" cy="114.24" r="5.25"/></g></svg>