<svg xmlns="http://www.w3.org/2000/svg" viewBox="0 0 135 135"><defs><style>.cls-1{fill:#07ccc0;}.cls-2{fill:#6a61ff;}.cls-3{fill:#e1dfff;}.cls-4{fill:#fff;}.cls-5{fill:#3a3569;}</style></defs><title>Yoobic</title><g id="File"><rect class="cls-1" x="32.34" y="16.4" width="80.5" height="92.62"/><path class="cls-2" d="M107.27,46.76v71.51H106l-10.13-6.59-10.14,6.59H84.62l-9.89-4.33-9.9,4.33h-.46l-10.28-9.06-10.27,9.06h-.88L32.8,111.68l-10.13,6.59h-.51V24.64A2.89,2.89,0,0,1,25,21.77H82.28l.2.2Z"/><path class="cls-3" d="M107.27,46.76v.34H96.66A14.23,14.23,0,0,1,82.48,32.92V22Z"/><polygon class="cls-4" points="85.38 118.6 85.2 118.6 85.27 118.56 85.28 118.56 85.38 118.6"/><polygon class="cls-4" points="85.38 118.6 85.2 118.6 85.27 118.56 85.28 118.56 85.38 118.6"/><path class="cls-5" d="M71.16,41.77H33.54a1,1,0,0,1,0-2H71.16a1,1,0,0,1,0,2Z"/><path class="cls-5" d="M94.88,59.27H34.54a1,1,0,0,1,0-2H94.88a1,1,0,0,1,0,2Z"/><path class="cls-5" d="M94.88,70.44H84.54a1,1,0,0,1,0-2H94.88a1,1,0,0,1,0,2Zm-16.34,0h-4a1,1,0,0,1,0-2h4a1,1,0,1,1,0,2Zm-12,0h-22a1,1,0,1,1,0-2h22a1,1,0,1,1,0,2Zm-28,0h-4a1,1,0,1,1,0-2h4a1,1,0,0,1,0,2Z"/><path class="cls-5" d="M94.88,81.61H34.54a1,1,0,0,1,0-2H94.88a1,1,0,0,1,0,2Z"/><path class="cls-5" d="M94.88,92.78H52.54a1,1,0,1,1,0-2H94.88a1,1,0,0,1,0,2Zm-48.34,0h-12a1,1,0,1,1,0-2h12a1,1,0,0,1,0,2Z"/></g></svg>