<svg xmlns="http://www.w3.org/2000/svg" xmlns:xlink="http://www.w3.org/1999/xlink" viewBox="0 0 135 135"><defs><style>.cls-1{fill:#f2c83a;}.cls-2{fill:url(#linear-gradient);}.cls-3{fill:#f8f7ff;}.cls-4{fill:#3a356a;}</style><linearGradient id="linear-gradient" x1="24.01" y1="69.64" x2="119.01" y2="69.64" gradientUnits="userSpaceOnUse"><stop offset="0" stop-color="#ef6e7f"/><stop offset="1" stop-color="#f89c59"/></linearGradient></defs><title>Yoobic</title><g id="Folder"><polygon class="cls-1" points="56.61 36.43 56.61 29.25 15.98 29.25 15.98 38.25 15.98 53.38 15.98 105.75 110.19 105.75 110.98 34 56.61 36.43"/><polygon class="cls-2" points="118.22 105.75 24.02 105.75 24.02 37.8 119.02 33.52 118.22 105.75"/><polygon class="cls-3" points="49.87 58.96 49.87 84.63 91.54 84.63 92.37 58.96 49.87 58.96"/><path class="cls-4" d="M85.79,68.13H55.87a1,1,0,0,1,0-2H85.79a1,1,0,1,1,0,2Z"/><path class="cls-4" d="M81.43,76.17H56.16a1,1,0,1,1,0-2H81.43a1,1,0,0,1,0,2Z"/></g></svg>