<svg xmlns="http://www.w3.org/2000/svg" viewBox="0 0 135 135"><defs><style>.cls-1{fill:#e1dfff;}.cls-2{fill:#f0efff;}.cls-3{fill:#07ccc0;}.cls-4{fill:#3a356a;}</style></defs><title>Yoobic</title><g id="Geocoding"><path class="cls-1" d="M114.67,72.16A46.83,46.83,0,0,1,67.84,119a46.21,46.21,0,0,1-5-.27A46.79,46.79,0,0,1,21,72.16c0-.64,0-1.28,0-1.91a46.83,46.83,0,0,1,93.63,1.91Z"/><path class="cls-2" d="M98.87,57.32a43.7,43.7,0,0,1-75.29,30.2A46.86,46.86,0,0,1,89.94,30.85,43.52,43.52,0,0,1,98.87,57.32Z"/><path class="cls-3" d="M62.82,118.72A46.79,46.79,0,0,1,21,72.16c0-.64,0-1.28,0-1.91a5.09,5.09,0,0,1,3.38-1.46c2.62,0,5.65,2.61,6.67,5.5s-.37,4.54.83,5.66c1.62,1.52,6.41.48,8.17-2.33,1.18-1.9.14-3.27.16-9.67,0-3.54,0-5.33.84-6.5,2.32-3.4,10-5.11,13.16-1,2.16,2.77.28,8.21-.16,9.5-.81,2.37-1.54,2.76-1.34,4,.54,3.3,6,3,7.17,6.34.78,2.32-1,5-4.33,10-2.7,4-3.87,4.53-3.67,6,.49,3.53,7.68,3.24,9,7.5,1,3.16-2.5,4.9-2.17,8.83C59,115.3,60.85,117.25,62.82,118.72Z"/><path class="cls-3" d="M69.84,94c-1.37.44-2.11,4.91-.25,7.92,2.89,4.69,11.9,5.6,14.67,2,1.67-2.17,1.26-6.24-.5-7.25-2-1.14-4.36,2.45-8,1.67S71.23,93.59,69.84,94Z"/><path class="cls-3" d="M110.26,52.29a7.38,7.38,0,0,0-2.17,1.5c-2.76,2.72-1.73,5.6-4,6.66-3,1.39-8.84-1.66-10.67-6.16-2-5,1.85-9.57-.5-11.67-1.39-1.24-4.28-1-5.67.33-2,2,.6,5.41-1.5,7.67s-4.83,2-9.33,1.83c-5.23-.2-10-.38-12.17-3.83-1.41-2.27-1.61-5.87,0-7.17,2.28-1.83,6.29,2.44,10.34.67,3.29-1.44,4.23-5.84,4.33-6.33.78-3.89-1.06-7.14-2.82-9.74a46.48,46.48,0,0,1,13.84,4.8A47,47,0,0,1,110.26,52.29Z"/><path class="cls-3" d="M105.05,71.62c-2.21-.74-3.51,1.29-6,.5-2.82-.9-2.42-3.87-4.75-4.63-3.15-1-4.86,4.09-11.75,5.75-3,.71-4.79.29-5.5,1.63s.35,4.19,2.25,5.5c2.68,1.84,4.86-.51,9.75.12,5.4.7,5.8,4,10.62,4.13,2.64.09,7.62-.69,9-4.38C109.93,76.91,107.75,72.51,105.05,71.62Z"/><path class="cls-4" d="M59.94,35.32h-3.4A16,16,0,0,0,41.63,20.41V17a1,1,0,1,0-2,0v3.4A16,16,0,0,0,24.72,35.32H21.33a1,1,0,0,0,0,2h3.39A16,16,0,0,0,39.63,52.23v3.4a1,1,0,0,0,2,0v-3.4A16,16,0,0,0,56.54,37.32h3.4a1,1,0,0,0,0-2Zm-5.4,0H50.17a9.6,9.6,0,0,0-8.54-8.53V22.41A14,14,0,0,1,54.54,35.32ZM40.63,43.91a7.59,7.59,0,1,1,7.59-7.59A7.6,7.6,0,0,1,40.63,43.91Zm-1-21.5v4.38a9.59,9.59,0,0,0-8.53,8.53H26.72A14,14,0,0,1,39.63,22.41ZM26.72,37.32H31.1a9.59,9.59,0,0,0,8.53,8.53v4.38A14,14,0,0,1,26.72,37.32ZM41.63,50.23V45.85a9.6,9.6,0,0,0,8.54-8.53h4.37A14,14,0,0,1,41.63,50.23Z"/></g></svg>