<svg xmlns="http://www.w3.org/2000/svg" xmlns:xlink="http://www.w3.org/1999/xlink" viewBox="0 0 135 135"><defs><style>.cls-1{fill:#6a61ff;}.cls-2{fill:url(#linear-gradient);}.cls-3{fill:#3a356a;}.cls-4{fill:#fff;}.cls-5{fill:url(#linear-gradient-2);}.cls-6{fill:#fcf4d8;}</style><linearGradient id="linear-gradient" x1="117.11" y1="42.36" x2="29.44" y2="73.19" gradientUnits="userSpaceOnUse"><stop offset="0" stop-color="#55ebe2"/><stop offset="1" stop-color="#08cdc1"/></linearGradient><linearGradient id="linear-gradient-2" x1="70.43" y1="100.98" x2="69.93" y2="40.85" gradientUnits="userSpaceOnUse"><stop offset="0" stop-color="#ef6e7f"/><stop offset="1" stop-color="#f89c59"/></linearGradient></defs><title>Yoobic</title><g id="Group"><polygon class="cls-1" points="22.76 32.45 24.59 62.42 23.88 93.7 26.51 93.7 119.04 93.7 119.04 62.42 119.04 31.15 22.76 32.45"/><polygon class="cls-2" points="114.91 27.61 114.91 90.16 25.3 90.16 23.45 58.88 21.67 28.91 114.91 27.61"/><circle class="cls-3" cx="21.67" cy="21.09" r="5.71"/><polygon class="cls-4" points="114.91 58.88 114.91 90.16 22.76 90.16 23.45 58.88 114.91 58.88"/><polygon class="cls-3" points="19.41 25.62 20.59 119.62 23.94 119.62 23.55 24.12 19.41 25.62"/><path class="cls-5" d="M93.72,49.37a5.27,5.27,0,0,0-7.26-4.88L85.51,42,70.18,35.49,54.63,41.86l-1,2.65a5.09,5.09,0,0,0-2-.41,5.26,5.26,0,0,0-1.78,10.21l-2.83,7.27L50.63,78.8l22.53,5.62L89.41,78.8l3.43-17.22-2.7-7.24A5.26,5.26,0,0,0,93.72,49.37Z"/><polyline class="cls-6" points="55.81 66.41 60.78 47.79 69.97 44.76 79.27 47.61 83.88 66.15 75.49 77.35 64.2 77.35 55.81 66.54"/><path class="cls-3" d="M65.55,63.6h8.83l-3.9,5.09Z"/><path class="cls-3" d="M57.57,55.45c.11,0,7.56-.15,7.56-.15l-.58,3.27Z"/><path class="cls-3" d="M82.78,55.45c-.11,0-7.55-.15-7.55-.15l.57,3.27Z"/></g></svg>