<svg xmlns="http://www.w3.org/2000/svg" xmlns:xlink="http://www.w3.org/1999/xlink" viewBox="0 0 135 135"><defs><style>.cls-1{fill:url(#linear-gradient);}.cls-2{fill:#3a3569;}.cls-3{fill:#6f6ea9;}.cls-4{fill:#9cb7ca;}.cls-5{fill:#fff0ef;}.cls-6{fill:#f69161;}.cls-7{fill:#ffdfed;}.cls-8{fill:#0bcec2;}.cls-9{fill:#fff;opacity:0.4;}.cls-10{fill:#f37e72;}.cls-11{fill:#ffe0df;}.cls-12{fill:url(#linear-gradient-2);}</style><linearGradient id="linear-gradient" x1="68.83" y1="105.01" x2="66.83" y2="11.51" gradientUnits="userSpaceOnUse"><stop offset="0" stop-color="#673fef"/><stop offset="0.61" stop-color="#877def"/><stop offset="1" stop-color="#5ab0ff"/></linearGradient><linearGradient id="linear-gradient-2" x1="51.45" y1="89.57" x2="52.7" y2="81.73" xlink:href="#linear-gradient"/></defs><title>Yoobic</title><g id="Location"><rect class="cls-1" x="27.96" y="25.67" width="80" height="77.5"/><rect class="cls-2" x="34.96" y="61.17" width="22.25" height="46"/><rect class="cls-2" x="66.46" y="61.17" width="36" height="28.5"/><polygon class="cls-2" points="111.96 33.67 23.96 33.67 20.96 23.83 111.96 25.67 111.96 33.67"/><rect class="cls-3" x="23.96" y="62.67" width="88" height="8"/><polygon class="cls-2" points="114.04 111.17 23.96 111.17 23.96 103.17 111.96 100.83 114.04 111.17"/><polygon class="cls-4" points="111.96 62.67 23.96 62.67 31.96 42.67 103.96 42.67 111.96 62.67"/><polygon class="cls-5" points="42.96 42.67 31.96 42.67 23.96 62.67 38.63 62.67 42.96 42.67"/><polygon class="cls-6" points="54.96 42.67 42.96 42.67 37.96 62.67 53.29 62.67 54.96 42.67"/><polygon class="cls-5" points="67.96 42.67 54.96 42.67 53.29 62.67 67.96 62.67 67.96 42.67"/><polygon class="cls-6" points="92.96 42.67 103.96 42.67 111.96 62.67 97.29 62.67 92.96 42.67"/><polygon class="cls-7" points="67.96 42.67 80.96 42.67 82.63 62.67 67.96 62.67 67.96 42.67"/><rect class="cls-8" x="68.63" y="63.5" width="31.66" height="23.84"/><polygon class="cls-9" points="95.01 63.5 70.24 87.34 68.63 87.34 68.63 63.5 95.01 63.5"/><path class="cls-9" d="M100.29,66.63V77.86l-9.07,9.48H80.35C86.84,80.56,95,72.07,100.29,66.63Z"/><rect class="cls-6" x="67.96" y="42.67" width="14.67" height="20"/><rect class="cls-10" x="67.96" y="62.67" width="14.67" height="8"/><polygon class="cls-5" points="80.96 42.67 92.96 42.67 97.96 62.67 82.63 62.67 80.96 42.67"/><rect class="cls-11" x="53.29" y="62.67" width="14.67" height="8"/><rect class="cls-10" x="37.96" y="62.67" width="15.33" height="8"/><rect class="cls-11" x="23.96" y="62.67" width="14" height="8"/><rect class="cls-11" x="82.62" y="62.67" width="15.33" height="8" transform="translate(180.58 133.33) rotate(-180)"/><rect class="cls-10" x="97.96" y="62.67" width="14" height="8" transform="translate(209.92 133.33) rotate(-180)"/><circle class="cls-12" cx="52.15" cy="85.19" r="1.66"/></g></svg>