<svg xmlns="http://www.w3.org/2000/svg" viewBox="0 0 135 135"><defs><style>.cls-1{fill:#e1dfff;}.cls-2{fill:#07ccc0;}.cls-3{fill:#3a3569;}.cls-4{fill:#6a61ff;}.cls-5{fill:#f89b59;}.cls-6{fill:#ef6e7f;}.cls-7{fill:#1c76fc;opacity:0.2;}</style></defs><title>Yoobic</title><g id="Map"><path class="cls-1" d="M66.49,20.67l-1.12,0c-1.29.06-2.57.17-3.83.33l-1.16.16-1,.16c-.38.06-.75.13-1.13.21A45,45,0,0,0,52.84,23c-.36.11-.71.23-1.06.36s-.7.25-1.05.39-.6.23-.9.36-.48.19-.72.3l-.86.37c-.53.25-1.07.5-1.59.76l-1,.5-1,.53-1,.55c-.32.18-.63.38-.94.57s-.73.47-1.09.7a7.71,7.71,0,0,0-.75.52c-.31.19-.61.4-.9.62s-.59.44-.88.65l-.86.67c-.21.16-.41.33-.61.5l-.56.47c-.51.42-1,.86-1.48,1.31l-.66.62c-.29.28-.57.55-.85.84l-.69.72c-.22.23-.43.45-.64.69l-.75.84c-.51.58-1,1.19-1.47,1.79s-.88,1.15-1.31,1.74a47.18,47.18,0,0,0-4.13,7c-.13.27-.25.53-.37.81-.28.62-.54,1.23-.79,1.85-.14.34-.27.69-.4,1s-.26.7-.38,1.05c-.07.18-.13.37-.19.56s-.19.56-.27.84-.23.74-.33,1.11-.15.52-.22.78-.14.56-.22.85c-.34,1.4-.62,2.83-.83,4.29-.05.3-.09.63-.13.94S21,62,21,62.23s-.07.56-.09.84c-.06.55-.1,1.11-.13,1.67l0,.66a1.34,1.34,0,0,0,0,.2c0,.22,0,.46,0,.69,0,.4,0,.81,0,1.21a46.79,46.79,0,0,0,41.82,46.56c1.32.14,2.65.23,4,.25V20.68h0Z"/><path class="cls-2" d="M62.48,114.07A46.79,46.79,0,0,1,20.66,67.51c0-.64,0-1.28,0-1.91a5.09,5.09,0,0,1,3.38-1.46c2.62,0,5.65,2.61,6.67,5.5s-.37,4.54.83,5.66c1.62,1.52,6.41.48,8.17-2.33,1.18-1.9.14-3.27.16-9.67,0-3.54,0-5.33.84-6.5,2.32-3.4,10-5.11,13.16-1,2.16,2.77.28,8.21-.16,9.5-.81,2.37-1.54,2.76-1.34,4,.54,3.3,6.05,3,7.17,6.34.78,2.32-1,5-4.33,10-2.7,4-3.87,4.53-3.67,6,.49,3.53,7.68,3.24,9,7.5,1,3.16-2.5,4.9-2.17,8.83C58.64,110.65,60.51,112.6,62.48,114.07Z"/><path class="cls-2" d="M57.55,37.28c.56-1.33-2.38-4.78-5.88-5.3-5.45-.82-12,5.47-11,9.91.58,2.68,4,5,5.86,4.3,2.16-.79.94-4.91,3.89-7.19S57,38.62,57.55,37.28Z"/><path class="cls-3" d="M114.34,67.5a46.83,46.83,0,0,1-46.83,46.83c-.34,0-.68,0-1,0V20.68h2.24c.3,0,.59,0,.88,0,.7,0,1.39.08,2.08.14l.74.07c.33,0,.67.07,1,.12s.72.08,1.07.14.87.13,1.31.22,1.09.2,1.62.33a1.17,1.17,0,0,1,.26,0c.58.13,1.15.27,1.72.42s1.14.31,1.7.48l.22.07c.54.16,1.08.34,1.61.52s1,.38,1.56.59c.19.07.37.13.55.21.38.15.75.31,1.12.48a3.2,3.2,0,0,1,.39.16l1,.49c.2.1.41.18.61.29.47.22.93.46,1.39.71A46.81,46.81,0,0,1,114.34,67.5Z"/><path class="cls-4" d="M111.65,67.5a44.42,44.42,0,0,1-44.2,44.64c-.32,0-.64,0-1,0V22.88h1l1.15,0c.28,0,.56,0,.83,0,.66,0,1.31.06,2,.13l.7.07c.31,0,.64.06,1,.1l1,.14q.61.09,1.23.21c.51.09,1,.19,1.53.31l.25.05c.55.12,1.08.25,1.62.4s1.08.29,1.61.45l.2.07c.51.15,1,.32,1.52.5s1,.36,1.48.55c.18.07.35.13.52.21q.52.21,1,.45a2.43,2.43,0,0,1,.37.16c.34.15.66.3,1,.47s.39.17.58.27c.44.21.88.44,1.31.68A44.71,44.71,0,0,1,111.65,67.5Z"/><path class="cls-5" d="M100.84,67.5a33.62,33.62,0,0,1-33.62,33.62h-.73V33.89h1.6l.64,0c.5,0,1,.05,1.49.1l.53.05.72.08.77.11c.31,0,.62.09.94.16s.78.14,1.16.23l.19,0,1.23.31c.41.1.82.22,1.22.34l.16,0,1.16.37,1.12.42.39.16.8.34a1.39,1.39,0,0,1,.28.12l.76.35.44.21q.5.24,1,.51A33.61,33.61,0,0,1,100.84,67.5Z"/><path class="cls-6" d="M87.8,67.5A20.86,20.86,0,0,1,66.94,88.36h-.45V46.65h1.39c.31,0,.62,0,.92.06l.33,0,.45,0,.47.07c.2,0,.39.06.59.1l.72.14.12,0,.76.19c.26.06.51.14.76.21l.1,0,.71.23.7.26.24.1.5.21.18.08.46.21.28.13.62.32a20.83,20.83,0,0,1,11,18.4Z"/><path class="cls-7" d="M67,20.67h0Z"/></g></svg>