<svg xmlns="http://www.w3.org/2000/svg" xmlns:xlink="http://www.w3.org/1999/xlink" viewBox="0 0 135 135"><defs><style>.cls-1{fill:none;}.cls-2{fill:url(#linear-gradient);}.cls-3{fill:#0bcec2;}.cls-4{fill:#3a3569;}.cls-5{fill:#6a61ff;}.cls-6{fill:#ef6e7f;}.cls-7{fill:#e1dfff;}.cls-8{clip-path:url(#clip-path);}.cls-9{font-size:23.39px;font-family:Calibri-Light, Calibri;}.cls-10{letter-spacing:-0.01em;}.cls-11{letter-spacing:0em;}.cls-12{letter-spacing:0em;}</style><linearGradient id="linear-gradient" x1="76.34" y1="9.48" x2="65.59" y2="92.73" gradientUnits="userSpaceOnUse"><stop offset="0" stop-color="#673fef"/><stop offset="0.61" stop-color="#877def"/><stop offset="1" stop-color="#5ab0ff"/></linearGradient><clipPath id="clip-path"><rect class="cls-1" x="959.91" y="104.99" width="143.06" height="31.44"/></clipPath></defs><title>Yoobic</title><g id="note"><rect class="cls-2" x="31.26" y="14.28" width="77.29" height="90"/><rect class="cls-3" x="26.6" y="17.1" width="77.29" height="90"/><rect class="cls-4" x="18.89" y="29.43" width="19.08" height="6.67" rx="3.33" ry="3.33"/><rect class="cls-4" x="18.89" y="57.93" width="19.08" height="6.67" rx="3.33" ry="3.33"/><rect class="cls-4" x="18.89" y="86.43" width="19.08" height="6.67" rx="3.33" ry="3.33"/><rect class="cls-5" x="82.15" y="55.13" width="12.37" height="62.43" transform="translate(210.97 101.19) rotate(142.56)"/><path class="cls-6" d="M110.5,110h0a6.19,6.19,0,0,1,6.19,6.19v4.28a0,0,0,0,1,0,0H104.31a0,0,0,0,1,0,0v-4.28A6.19,6.19,0,0,1,110.5,110Z" transform="translate(268.33 139.64) rotate(142.56)"/><polygon class="cls-7" points="74.28 57.8 64.45 65.32 63.5 58.07 62.85 53.05 67.47 54.97 74.28 57.8"/><rect class="cls-4" x="99.35" y="105.88" width="12.38" height="5.85" transform="translate(255.48 131.03) rotate(142.56)"/><path class="cls-4" d="M67.47,55a4.38,4.38,0,0,1-4,3.1l-.65-5Z"/><path class="cls-4" d="M91.38,41.59h-41a1,1,0,0,1,0-2H91.38a1,1,0,0,1,0,2Z"/><path class="cls-4" d="M62.85,55H50.33a1,1,0,0,1,0-2H62.85a1,1,0,0,1,0,2Z"/></g><g id="usertrial"><g class="cls-8"><text class="cls-9" transform="translate(2.23 76.87)">Lo<tspan class="cls-10" x="22" y="0">r</tspan><tspan x="29.72" y="0">em i</tspan><tspan class="cls-11" x="70.24" y="0">p</tspan><tspan class="cls-12" x="82.28" y="0">sum</tspan></text></g></g></svg>