<svg xmlns="http://www.w3.org/2000/svg" xmlns:xlink="http://www.w3.org/1999/xlink" viewBox="0 0 135 135"><defs><style>.cls-1{fill:url(#linear-gradient);}.cls-2{fill:#3a3569;}.cls-3{fill:#e1dfff;}.cls-4{fill:#07ccc0;}</style><linearGradient id="linear-gradient" x1="21.45" y1="126.01" x2="135.12" y2="-13.99" gradientUnits="userSpaceOnUse"><stop offset="0" stop-color="#673fef"/><stop offset="0.61" stop-color="#877def"/><stop offset="1" stop-color="#5ab0ff"/></linearGradient></defs><title>Yoobic</title><g id="Notemplate"><polygon class="cls-1" points="115.75 26.43 115.75 108.57 23.8 108.57 19.78 39.19 19.25 30.02 115.75 26.43"/><polygon class="cls-2" points="115.75 26.43 115.75 37.03 19.78 39.19 19.25 30.02 115.75 26.43"/><circle class="cls-3" cx="68.75" cy="74.4" r="24.16"/><path class="cls-2" d="M66.72,99.48h-.09a24.55,24.55,0,0,1-4.1-.69A1,1,0,1,1,63,96.85a23.86,23.86,0,0,0,3.78.63,1,1,0,0,1-.08,2Zm7.93-.65a1,1,0,0,1-.24-2A23.28,23.28,0,0,0,90,83.71a1,1,0,0,1,1.83.81A25.3,25.3,0,0,1,74.9,98.8Zm-17.44-2.2a1,1,0,0,1-.48-.12,25.3,25.3,0,0,1-12.81-18,1,1,0,1,1,2-.32,23.31,23.31,0,0,0,11.8,16.6,1,1,0,0,1-.48,1.88ZM92.58,79.38h-.16a1,1,0,0,1-.82-1.15,24.3,24.3,0,0,0,.31-3.82,23,23,0,0,0-8.84-18.2,1,1,0,1,1,1.24-1.57,25.19,25.19,0,0,1,9.26,23.91A1,1,0,0,1,92.58,79.38Zm-47.65-8-.17,0a1,1,0,0,1-.82-1.15,24.08,24.08,0,0,1,1-4,1,1,0,1,1,1.88.66,23.33,23.33,0,0,0-.94,3.7A1,1,0,0,1,44.93,71.35Zm3.64-9.24a1,1,0,0,1-.84-1.55A25,25,0,0,1,66.78,49.32a1,1,0,1,1,.16,2A23,23,0,0,0,49.4,61.66,1,1,0,0,1,48.57,62.11Zm30-8.79a1,1,0,0,1-.41-.09A22.8,22.8,0,0,0,74.54,52,1,1,0,0,1,75,50,25.38,25.38,0,0,1,79,51.4a1,1,0,0,1,.51,1.33A1,1,0,0,1,78.57,53.32Z"/><path class="cls-4" d="M84.31,72.48H70.75V58.91a2,2,0,0,0-4,0V72.48H53.19a2,2,0,0,0,0,4H66.75V90a2,2,0,1,0,4,0V76.48H84.31a2,2,0,0,0,0-4Z"/></g></svg>