<svg xmlns="http://www.w3.org/2000/svg" xmlns:xlink="http://www.w3.org/1999/xlink" viewBox="0 0 135 135"><defs><style>.cls-1{fill:url(#linear-gradient);}.cls-2{fill:url(#linear-gradient-2);}.cls-3{fill:url(#linear-gradient-3);}.cls-4{fill:#6a61ff;}.cls-5{fill:#3a3569;}</style><linearGradient id="linear-gradient" x1="53.91" y1="50.5" x2="111.25" y2="50.5" gradientUnits="userSpaceOnUse"><stop offset="0" stop-color="#3a3569"/><stop offset="1" stop-color="#4334a1"/></linearGradient><linearGradient id="linear-gradient-2" x1="90.32" y1="17.94" x2="83.06" y2="74.22" gradientUnits="userSpaceOnUse"><stop offset="0" stop-color="#673fef"/><stop offset="0.61" stop-color="#877def"/><stop offset="1" stop-color="#5ab0ff"/></linearGradient><linearGradient id="linear-gradient-3" x1="69.59" y1="12.87" x2="64.7" y2="50.73" xlink:href="#linear-gradient-2"/></defs><title>Yoobic</title><g id="paperplane"><path class="cls-1" d="M53.91,56.6c0,.1,2,13.95,2,14.05l1.6,11.08,53.71-54V19.27Z"/><polygon class="cls-2" points="71.75 62.39 57.54 81.73 111.83 29.93 114.41 21.49 71.75 62.39"/><polygon class="cls-3" points="23.25 42.77 104.06 17.62 111.25 19.27 53.91 56.6 23.25 42.77"/><polygon class="cls-4" points="114.41 21.49 71.75 62.39 104.54 82.85 119.61 24.77 114.41 21.49"/><path class="cls-5" d="M25,117.38a25.05,25.05,0,0,1-7.91-1.29,1,1,0,1,1,.62-1.89,22.71,22.71,0,0,0,12.13.64,22.89,22.89,0,0,0,7.48-3.24,1,1,0,1,1,1.11,1.67,25,25,0,0,1-8.14,3.52A24,24,0,0,1,25,117.38Zm17.41-7.85a1,1,0,0,1-.67-.26,1,1,0,0,1-.07-1.41,22.49,22.49,0,0,0,2.29-3,1,1,0,1,1,1.7,1.06,23.61,23.61,0,0,1-2.51,3.33A1,1,0,0,1,42.45,109.53ZM26.8,99.7a.77.77,0,0,1-.25,0,12.68,12.68,0,0,1-2.56-1,13.57,13.57,0,0,1-1.37-.8,1,1,0,1,1,1.1-1.67,12.66,12.66,0,0,0,1.17.68,11.42,11.42,0,0,0,2.16.81,1,1,0,0,1,.72,1.21A1,1,0,0,1,26.8,99.7Zm7.91-.28a1,1,0,0,1-.27-2c4.54-1.24,9.12-4.13,12.78-7.14-.31-3.6-1.56-8.54-5.67-11.76A1,1,0,0,1,42.78,77c4.16,3.25,5.73,8,6.28,11.75,1-.89,1.88-1.78,2.65-2.61l.37-.41a1,1,0,1,1,1.49,1.34l-.4.44a48.68,48.68,0,0,1-3.88,3.7c0,.45,0,.88,0,1.28a28.06,28.06,0,0,1-.57,5.65,1,1,0,0,1-2-.4,26.19,26.19,0,0,0,.53-4.93A37.28,37.28,0,0,1,35,99.39ZM18.94,93.87a1,1,0,0,1-.83-.44,14.55,14.55,0,0,1-2.72-8,9.49,9.49,0,0,1,.43-2.89c1.08-3.44,4.31-6.32,8.86-7.89a1,1,0,1,1,.65,1.89c-3.94,1.36-6.71,3.77-7.6,6.6a7.51,7.51,0,0,0-.34,2.29,12.53,12.53,0,0,0,2.37,6.9,1,1,0,0,1-.26,1.39A1,1,0,0,1,18.94,93.87ZM56.46,82.62a1,1,0,0,1-.54-.16,1,1,0,0,1-.3-1.38C56.31,80,57,78.86,57.55,77.7a1,1,0,0,1,1.34-.45,1,1,0,0,1,.44,1.34,37.81,37.81,0,0,1-2,3.57A1,1,0,0,1,56.46,82.62Zm-19.64-6.5-.26,0a17.51,17.51,0,0,0-3.73-.61,1,1,0,0,1,.11-2,20.1,20.1,0,0,1,4.15.68,1,1,0,0,1-.27,2Z"/></g></svg>