<svg xmlns="http://www.w3.org/2000/svg" xmlns:xlink="http://www.w3.org/1999/xlink" viewBox="0 0 135 135"><defs><style>.cls-1{fill:#3a3569;}.cls-2{fill:url(#linear-gradient);}.cls-3{fill:#d4f0ff;}.cls-4{fill:#6a61ff;}</style><linearGradient id="linear-gradient" x1="76.02" y1="96.96" x2="86.27" y2="27.71" gradientUnits="userSpaceOnUse"><stop offset="0" stop-color="#55ebe2"/><stop offset="1" stop-color="#08cdc1"/></linearGradient></defs><title>Yoobic</title><g id="Payments"><path class="cls-1" d="M30.68,55.35H86.5a5.1,5.1,0,0,1,5.1,5.1V99a5.1,5.1,0,0,1-5.1,5.1H26.69a5.1,5.1,0,0,1-5.1-5.1V64.44A9.08,9.08,0,0,1,30.68,55.35Z"/><path class="cls-1" d="M107.52,39,86.24,82.72s-.43.88-.43.88a5.41,5.41,0,0,1-7.19,2.49L65.77,79.9l-8.72-4.21-3.38-1.63L53,73.74a5.39,5.39,0,0,1-2.47-7.28L73.07,21.92a5.37,5.37,0,0,1,7.2-2.39l4.59,2.28,7.73,3.84,12.49,6.2A5.41,5.41,0,0,1,107.52,39Z"/><path class="cls-1" d="M92.59,25.65,65.77,79.9l-8.72-4.21c3.42-6.8,20.32-39.44,27.81-53.88Z"/><path class="cls-2" d="M112.2,53.82,81.77,91.7s-.61.75-.61.75a5.39,5.39,0,0,1-7.56.84L62.44,84.4l-7.57-6L51.94,76l-.57-.45a5.38,5.38,0,0,1-.8-7.65L82.42,29.49A5.36,5.36,0,0,1,90,28.75l4,3.24,6.68,5.46,10.8,8.82A5.4,5.4,0,0,1,112.2,53.82Z"/><path class="cls-3" d="M100.62,37.45l-38.18,47-7.57-6c4.84-5.88,28.56-34,39.07-46.38Z"/><circle class="cls-3" cx="98.3" cy="62.41" r="1.87"/><circle class="cls-3" cx="102.22" cy="57.2" r="1.87"/><circle class="cls-3" cx="106.42" cy="52.01" r="1.87"/><rect class="cls-4" x="21.59" y="63.1" width="70" height="52.94" rx="5.1" ry="5.1"/><path class="cls-1" d="M76,83.51H90.49a4,4,0,0,1,4,4v4.09a4,4,0,0,1-4,4H76a6.06,6.06,0,0,1-6.06-6.06v0A6.06,6.06,0,0,1,76,83.51Z"/><rect class="cls-4" x="73.22" y="86.19" width="6.75" height="6.75" rx="3.37" ry="3.37"/></g></svg>