<svg xmlns="http://www.w3.org/2000/svg" xmlns:xlink="http://www.w3.org/1999/xlink" viewBox="0 0 135 135"><defs><style>.cls-1{fill:url(#linear-gradient);}.cls-2{fill:#f2c83a;}.cls-3{fill:url(#linear-gradient-2);}.cls-4{fill:#fff;}</style><linearGradient id="linear-gradient" x1="73.67" y1="117.73" x2="51.67" y2="88.23" gradientUnits="userSpaceOnUse"><stop offset="0" stop-color="#ef6e7f"/><stop offset="1" stop-color="#f89c59"/></linearGradient><linearGradient id="linear-gradient-2" x1="134.3" y1="99.4" x2="75.05" y2="56.9" xlink:href="#linear-gradient"/></defs><title>Yoobic</title><g id="score"><path class="cls-1" d="M85,102.33l-12.26-.23.09-4.84h0l.18-10.57h0l0-2.71-13.41-.25-.27,15.55-.05,2.58-12.25-.23a3.87,3.87,0,0,0-3.86,3.89l-.06,3a3.9,3.9,0,0,0,3.73,4l37.92.69a3.89,3.89,0,0,0,3.86-3.88l0-1.49,0-1.48A3.89,3.89,0,0,0,85,102.33Z"/><path class="cls-2" d="M37.15,66.35c-11-.2-19.88-9-19.69-19.58L17.61,38a5.33,5.33,0,0,1,5.31-5.35L37.73,33l-.07,4-14.81-.27A1.45,1.45,0,0,0,21.4,38.1l-.15,8.74c-.15,8.42,7,15.39,16,15.56Z"/><path class="cls-3" d="M110.63,34.29l-12.54-.23.12-6.69a4,4,0,0,0-3.82-4.12l-53.85-1a4,4,0,0,0-3.95,4L36,60.74A33,33,0,0,0,39.89,77,30.61,30.61,0,0,0,66.23,93.43c15.21.28,28-11,30.81-26,10.46-.45,18.91-8.63,19.09-18.81l.14-8.19A5.89,5.89,0,0,0,110.63,34.29Zm1.71,14.22c-.14,7.88-6.63,14.26-14.8,14.91,0-.51,0-1,.06-1.55L98,38l12.54.23a2,2,0,0,1,1.92,2.07Z"/><path class="cls-2" d="M82.72,45.1c-1.89,9.49-4.2,21.18-13.14,28.1S49,79.22,39.89,77A33.09,33.09,0,0,1,36,60.74l.61-34.5a4,4,0,0,1,3.95-4l44.13.81C85.45,31.32,83.68,40.22,82.72,45.1Z"/><path class="cls-4" d="M63.62,30.41l-19.46-.36a1.5,1.5,0,0,1-1.46-1.53l0-.94a1.49,1.49,0,0,1,1.51-1.48l19.46.35A1.51,1.51,0,0,1,65.15,28v.94A1.51,1.51,0,0,1,63.62,30.41Z"/><path class="cls-4" d="M71.2,30.55l-2.38-.05A1.49,1.49,0,0,1,67.36,29V28a1.5,1.5,0,0,1,1.52-1.48l2.39,0a1.52,1.52,0,0,1,1.46,1.54l0,.94A1.5,1.5,0,0,1,71.2,30.55Z"/></g></svg>