<svg xmlns="http://www.w3.org/2000/svg" viewBox="0 0 135 135"><defs><style>.cls-1{fill:#b4362c;}.cls-2{fill:#32d2b6;}.cls-3{fill:#ec8480;}.cls-4{fill:#cd5c57;}.cls-5{fill:#3a3569;}.cls-6{fill:#e1dfff;}</style></defs><title>Yoobic</title><g id="Service"><path class="cls-1" d="M52,27.16c-.35.32-1.13,1.09-1.94,1.88-3.08,3-3.59,3.81-3.75,4.75-.19,1.2.4,1.46.44,2.62.11,2.78-3.13,4.16-6.58,7.69-2.41,2.47-5.69,5.84-5.42,9.92.12,1.81,1,4.79,3.25,6,1.67.91,3.17.32,4.59,1.67a5.56,5.56,0,0,1,1.41,3c1.68,5.67,21.15,5.51,25.63,5.41a85.4,85.4,0,0,0,17.62-2.75c4-1,7.69-2.28,8.13-4.62S93.09,58.39,94,56.85c.72-1.16,2.66-.52,3.5-1.75s-.07-3-.75-4.5c-1.34-3-2.13-6.29-3.46-9.33-4-9.15-4.22-10.15-6-12.71a22.21,22.21,0,0,0-3.71-4.67C74.11,15.63,55.64,24,52,27.16Z"/><path class="cls-2" d="M109.75,108.12a39.32,39.32,0,0,0-1.07-5.71c-3.07-10-2.07-15-6.34-18.11a17.77,17.77,0,0,0-5.23-2.78c-8.39-3.1-5.85-2.9-15.49-5.9-.6-.2-7,.42-13.37,1.1-6.42-.68-12.78-1.3-13.38-1.1-9.64,3-7.1,2.8-15.49,5.9a17.92,17.92,0,0,0-5.23,2.78c-4.27,3.07-3.27,8.08-6.34,18.11a39.32,39.32,0,0,0-1.07,5.71,11,11,0,0,0,.13,4l41.38.17,41.37-.17A11,11,0,0,0,109.75,108.12Z"/><path class="cls-3" d="M83.76,78.25c0,5.09-6.94,9.22-15.51,9.22s-15.51-4.13-15.51-9.22a4.17,4.17,0,0,1,0-.61,2.9,2.9,0,0,1,1.33-2.08,11,11,0,0,0,2.65-2.48,9.44,9.44,0,0,0,1-1.61c1.17-2.35,1.32-4.91,1.49-7.55a25.86,25.86,0,0,0,0-2.62,14.12,14.12,0,0,0,8,3.07c3,0,6.43-1.58,9.49-4.25a26.27,26.27,0,0,0,0,3.8,20.06,20.06,0,0,0,1.33,7.21,9.77,9.77,0,0,0,1.15,2,11.1,11.1,0,0,0,3,2.73,3,3,0,0,1,1.48,2.42Z"/><path class="cls-3" d="M85,42.59a23.75,23.75,0,0,1-8.21,17.53c-3.06,2.67-6.5,4.25-9.49,4.25a14.12,14.12,0,0,1-8-3.07,23.85,23.85,0,0,1-9.68-18.71c0-12,7.93-21.79,17.71-21.79S85,30.55,85,42.59Z"/><polygon class="cls-4" points="66.32 40.63 66.32 49.85 70.71 47.53 66.32 40.63"/><ellipse class="cls-3" cx="85" cy="46.1" rx="5.52" ry="3.91" transform="translate(24.42 121.47) rotate(-79.69)"/><ellipse class="cls-3" cx="49.59" cy="46.68" rx="3.91" ry="5.52" transform="translate(-7.56 9.63) rotate(-10.31)"/><rect class="cls-5" x="71.83" y="54.4" width="6.33" height="4.42" rx="2.21" ry="2.21"/><path class="cls-5" d="M79.42,57.11H78v-1h1.38A4.58,4.58,0,0,0,84,51.53h1A5.58,5.58,0,0,1,79.42,57.11Z"/><path class="cls-1" d="M72.6,20.8h0c-18.33-3.12-23.95,5.61-23,20.45,9.35-2.14,16.21-8.54,21.47-17.65C75.84,31.37,79.67,37.52,85,40.67,87.55,32.25,84.55,24,72.6,20.8Z"/><path class="cls-6" d="M53.51,76.05c-.91,6.41,2.56,10.19,15,11.42-9.39,4-16.76,3.58-20.94-3.9C45.9,77.88,47.94,76.06,53.51,76.05Z"/><path class="cls-6" d="M82.43,75.86c.91,6.5-2.55,10.33-15,11.58,9.4,4.09,16.76,3.63,20.95-4C90,77.71,88,75.87,82.43,75.86Z"/></g></svg>