<svg xmlns="http://www.w3.org/2000/svg" xmlns:xlink="http://www.w3.org/1999/xlink" viewBox="0 0 135 135"><defs><style>.cls-1{fill:#e1dfff;}.cls-2{fill:#fff;opacity:0.4;}.cls-3{fill:url(#linear-gradient);}.cls-4{fill:url(#linear-gradient-2);}.cls-5{fill:url(#linear-gradient-3);}.cls-6{fill:#3a3569;}</style><linearGradient id="linear-gradient" x1="67.5" y1="12.93" x2="67.5" y2="122.23" gradientUnits="userSpaceOnUse"><stop offset="0" stop-color="#ef6e7f"/><stop offset="1" stop-color="#f89c59"/></linearGradient><linearGradient id="linear-gradient-2" x1="86.83" y1="12.82" x2="86.83" y2="36.2" xlink:href="#linear-gradient"/><linearGradient id="linear-gradient-3" x1="110.81" y1="30.5" x2="110.81" y2="64.43" xlink:href="#linear-gradient"/></defs><title>Yoobic</title><g id="Speedometer"><path class="cls-1" d="M123.06,67.21a54.62,54.62,0,0,1-54.82,54.43,55.41,55.41,0,0,1-15.56-2.22A54.91,54.91,0,0,1,18.46,90a49.51,49.51,0,0,1-2.13-5.29A54.39,54.39,0,0,1,63.25,13c1.64-.15,3.31-.23,5-.23H69A55.21,55.21,0,0,1,82.8,14.71a54.88,54.88,0,0,1,34.09,27.4,51.8,51.8,0,0,1,2.32,5A54.06,54.06,0,0,1,123.06,67.21Z"/><path class="cls-2" d="M69,12.78,18.46,90a49.51,49.51,0,0,1-2.13-5.29L63.25,13c1.64-.15,3.31-.23,5-.23Z"/><path class="cls-2" d="M119.21,47.12,89.68,92.26a2.34,2.34,0,0,1-3.92-2.57l31.13-47.58A51.8,51.8,0,0,1,119.21,47.12Z"/><path class="cls-2" d="M97,50.23a4.63,4.63,0,0,1-.76,2.56L52.68,119.42a54.82,54.82,0,0,1-8.9-3.49L88.44,47.67A4.67,4.67,0,0,1,97,50.23Z"/><path class="cls-2" d="M94.12,19.21,51.83,83.85a6,6,0,0,1-10-6.53l41-62.61A54.32,54.32,0,0,1,94.12,19.21Z"/><path class="cls-3" d="M123.06,70.58c-1.62,28.79-25.85,51.65-55.52,51.65-30.71,0-55.6-24.5-55.6-54.72,0-28.88,22.71-52.52,51.51-54.58v14c-21,2-37.36,19.43-37.36,40.61,0,22.53,18.56,40.79,41.45,40.79,21.84,0,39.74-16.63,41.34-37.72Z"/><path class="cls-4" d="M104.07,26.24l-10,10a41.51,41.51,0,0,0-24.52-9.44V12.82A55.82,55.82,0,0,1,104.07,26.24Z"/><path class="cls-5" d="M123.06,64.43H108.88a40.26,40.26,0,0,0-10.32-24h0l9.94-9.94A54.06,54.06,0,0,1,123.06,64.43Z"/><path class="cls-6" d="M78,76.94A11.3,11.3,0,1,1,56.94,68.8c2.25-5.82,29.89-46,29.89-46S80.27,71.12,78,76.94Z"/><circle class="cls-1" cx="67.5" cy="72.02" r="6.96"/></g></svg>