<svg xmlns="http://www.w3.org/2000/svg" xmlns:xlink="http://www.w3.org/1999/xlink" viewBox="0 0 135 135"><defs><style>.cls-1{fill:url(#linear-gradient);}.cls-2{fill:#3a3569;}.cls-3{fill:#6f6ea9;}.cls-4{fill:#9cb7ca;}.cls-5{fill:#fff0ef;}.cls-6{fill:#f69161;}.cls-7{fill:#ffdfed;}.cls-8{fill:#0bcec2;}.cls-9{fill:#fff;opacity:0.4;}.cls-10{fill:#f37e72;}.cls-11{fill:#ffe0df;}.cls-12{fill:url(#linear-gradient-2);}.cls-13{fill:#d4f0ff;}.cls-14{fill:#6a61ff;}.cls-15{fill:#ec8480;}.cls-16{fill:#cd5c57;}</style><linearGradient id="linear-gradient" x1="68.83" y1="101.43" x2="66.83" y2="7.93" gradientUnits="userSpaceOnUse"><stop offset="0" stop-color="#673fef"/><stop offset="0.61" stop-color="#877def"/><stop offset="1" stop-color="#5ab0ff"/></linearGradient><linearGradient id="linear-gradient-2" x1="51.45" y1="85.98" x2="52.7" y2="78.15" xlink:href="#linear-gradient"/></defs><title>Yoobic</title><g id="Store_manager" data-name="Store manager"><rect class="cls-1" x="27.96" y="22.08" width="80" height="77.5"/><rect class="cls-2" x="34.96" y="57.58" width="22.25" height="46"/><rect class="cls-2" x="66.46" y="57.58" width="36" height="28.5"/><polygon class="cls-2" points="111.96 30.08 23.96 30.08 20.96 20.25 111.96 22.08 111.96 30.08"/><rect class="cls-3" x="23.96" y="59.08" width="88" height="8"/><polygon class="cls-2" points="114.04 107.58 23.96 107.58 23.96 99.58 111.96 97.25 114.04 107.58"/><polygon class="cls-4" points="111.96 59.08 23.96 59.08 31.96 39.08 103.96 39.08 111.96 59.08"/><polygon class="cls-5" points="42.96 39.08 31.96 39.08 23.96 59.08 38.63 59.08 42.96 39.08"/><polygon class="cls-6" points="54.96 39.08 42.96 39.08 37.96 59.08 53.29 59.08 54.96 39.08"/><polygon class="cls-5" points="67.96 39.08 54.96 39.08 53.29 59.08 67.96 59.08 67.96 39.08"/><polygon class="cls-6" points="92.96 39.08 103.96 39.08 111.96 59.08 97.29 59.08 92.96 39.08"/><polygon class="cls-7" points="67.96 39.08 80.96 39.08 82.63 59.08 67.96 59.08 67.96 39.08"/><rect class="cls-8" x="68.63" y="59.91" width="31.66" height="23.84"/><polygon class="cls-9" points="95.01 59.91 70.24 83.75 68.63 83.75 68.63 59.91 95.01 59.91"/><path class="cls-9" d="M100.29,63V74.27l-9.07,9.48H80.35C86.84,77,95,68.48,100.29,63Z"/><rect class="cls-6" x="67.96" y="39.08" width="14.67" height="20"/><rect class="cls-10" x="67.96" y="59.08" width="14.67" height="8"/><polygon class="cls-5" points="80.96 39.08 92.96 39.08 97.96 59.08 82.63 59.08 80.96 39.08"/><rect class="cls-11" x="53.29" y="59.08" width="14.67" height="8"/><rect class="cls-10" x="37.96" y="59.08" width="15.33" height="8"/><rect class="cls-11" x="23.96" y="59.08" width="14" height="8"/><rect class="cls-11" x="82.62" y="59.08" width="15.33" height="8"/><rect class="cls-10" x="97.96" y="59.08" width="14" height="8"/><circle class="cls-12" cx="52.15" cy="81.6" r="1.66"/><path class="cls-13" d="M125.62,90A32.66,32.66,0,1,1,93,57.32,32.45,32.45,0,0,1,125.62,90Z"/><path class="cls-14" d="M115.27,113.84a32.6,32.6,0,0,1-44.62,0c.81-3.68.86-5.78,2.8-7.17a10,10,0,0,1,3-1.59c4.57-1.69,3.48-1.66,8.11-3.14h0l.75-.23a73.36,73.36,0,0,1,7.66.62,73.36,73.36,0,0,1,7.66-.62l.41.13c5,1.58,3.78,1.52,8.45,3.24a10.25,10.25,0,0,1,3,1.59C114.41,108.06,114.45,110.16,115.27,113.84Z"/><path class="cls-2" d="M88.47,96.3c-1.4.42-1.12,1.35-3.24,2.25-1.22.52-3.45,1.46-5.37.33a5,5,0,0,1-2-5.5c.51-1.47,1.88-2,1.65-2.58-.34-.84-3.28.36-4.3-.93-.75-.94-.2-2.85.59-4s1.42-.94,2-2a5.71,5.71,0,0,0,.4-3.38,13.17,13.17,0,0,1,1.92-7.15,12.72,12.72,0,0,1,8-6.3c5.56-1.41,10.85,1.66,13.45,4.71.39.45-.07,0,3.52,6.42a40.84,40.84,0,0,1,2.77,6.69c.44,1.39.77,2.68.17,3.25-.76.71-2.48-.19-2.82.4-.2.35.37.76.8,1.85a6.85,6.85,0,0,1,.26,3.64,6.2,6.2,0,0,1-4,5.14,7.61,7.61,0,0,1-4.12.3C92.69,98.69,91.18,95.48,88.47,96.3Z"/><path class="cls-15" d="M101.84,103.17c0,2.91-4,5.28-8.88,5.28s-8.88-2.37-8.88-5.28c0-.12,0-.23,0-.35a1.7,1.7,0,0,1,.77-1.19,6.2,6.2,0,0,0,1.51-1.42,5.34,5.34,0,0,0,.57-.92A10.88,10.88,0,0,0,87.8,95a12.72,12.72,0,0,0,0-1.5,8.14,8.14,0,0,0,4.59,1.76,8.77,8.77,0,0,0,5.44-2.44,15.5,15.5,0,0,0,0,2.18,11.59,11.59,0,0,0,.76,4.12,6.09,6.09,0,0,0,.66,1.12,6.21,6.21,0,0,0,1.74,1.56,1.73,1.73,0,0,1,.85,1.39Z"/><path class="cls-15" d="M102.55,82.76a13.58,13.58,0,0,1-4.7,10,8.77,8.77,0,0,1-5.44,2.44,8.14,8.14,0,0,1-4.59-1.76,13.66,13.66,0,0,1-5.54-10.71c0-6.89,4.54-12.48,10.13-12.48S102.55,75.87,102.55,82.76Z"/><polygon class="cls-16" points="91.86 81.63 91.86 86.92 94.37 85.59 91.86 81.63"/><ellipse class="cls-15" cx="102.55" cy="84.77" rx="3.16" ry="2.24" transform="translate(0.79 170.48) rotate(-79.69)"/><path class="cls-2" d="M105.63,73.76c-1-.5-1.41-.14-2.58-.52s-1.51-.84-2.79-1.89a9.72,9.72,0,0,0-3.35-1.74,11.13,11.13,0,0,0-16.32,7c-.13.62-.68,3.21.56,4.15,1,.78,2.69,0,2.79-.1a3.47,3.47,0,0,0,1.79-2.29c.14-1-.41-1.83-.1-2.07s.7.37,1.59.62a4.22,4.22,0,0,0,3.37-.83,4.39,4.39,0,0,0,1.5-2c.49-1.4,0-2.43.29-2.6.53-.27,1.45,2.5,4,3.53,1.56.65,2.28,0,3.11.83,1.13,1.14.37,3,1.46,3.67a1.78,1.78,0,0,0,2.18-.21s0,0,0,0a.75.75,0,0,0,.55.36h.09a5,5,0,0,0,1.25-.32,4.28,4.28,0,0,0,1.6-1.4,3,3,0,0,0,.84-2.24C107.22,74.54,106,74,105.63,73.76Z"/><ellipse class="cls-15" cx="82.28" cy="85.1" rx="2.24" ry="3.16" transform="translate(-13.91 16.11) rotate(-10.31)"/></g></svg>