<svg xmlns="http://www.w3.org/2000/svg" xmlns:xlink="http://www.w3.org/1999/xlink" viewBox="0 0 135 135"><defs><style>.cls-1{fill:url(#linear-gradient);}.cls-2{fill:#07ccc0;}.cls-3{fill:#e1dfff;}.cls-4{fill:url(#linear-gradient-2);}.cls-5{fill:none;stroke:#3a3569;stroke-linecap:round;stroke-linejoin:round;stroke-width:2px;}.cls-6{fill:#3a3569;}</style><linearGradient id="linear-gradient" x1="19.88" y1="36.33" x2="115.13" y2="36.33" gradientUnits="userSpaceOnUse"><stop offset="0" stop-color="#55ebe2"/><stop offset="1" stop-color="#08cdc1"/></linearGradient><linearGradient id="linear-gradient-2" x1="44.89" y1="109.87" x2="108.14" y2="39.99" xlink:href="#linear-gradient"/></defs><title>Yoobic</title><g id="Subscription"><polygon class="cls-1" points="69.13 18.95 19.88 53.71 115.13 53.71 69.13 18.95"/><polygon class="cls-2" points="115.13 53.72 69.13 88.48 19.88 53.72 115.13 53.72"/><polygon class="cls-3" points="102.38 32.8 102.38 101.31 35.38 101.31 35.38 32.8 35.59 32.8 40.7 37.38 45.8 32.8 51.7 38.05 58.95 32.8 63.3 38.05 70.38 32.8 78.3 39.55 84.38 32.8 91.8 37.8 96.13 32.8 99.95 35.73 102.36 32.8 102.38 32.8"/><polygon class="cls-4" points="115.13 53.72 115.13 116.06 19.88 116.06 19.88 53.72 69.13 88.48 115.13 53.72"/><polygon class="cls-2" points="70.25 89.18 115.13 116.06 115.13 114.93 70.25 89.18"/><polygon class="cls-2" points="19.88 116.06 67.5 89.18 19.88 115.92 19.88 116.06"/><line class="cls-5" x1="44.21" y1="47.26" x2="71.71" y2="47.26"/><line class="cls-5" x1="44.21" y1="55.35" x2="71.71" y2="55.35"/><line class="cls-5" x1="44.21" y1="63.43" x2="71.71" y2="63.43"/><path class="cls-6" d="M95.41,56.05a4.48,4.48,0,0,0-1-1.37,6.76,6.76,0,0,0-1.38-1c-.51-.28-1-.55-1.56-.8l-.14-.07-1.43-.68c-.2-.1-.39-.2-.57-.31a5.84,5.84,0,0,1-.8-.53,3.78,3.78,0,0,1-1-1.07,2.67,2.67,0,0,1-.37-1.45,3,3,0,0,1,.21-1.1,2.44,2.44,0,0,1,.61-.91,2.82,2.82,0,0,1,1-.61l.29-.09a4.55,4.55,0,0,1,1.16-.14,5.53,5.53,0,0,1,.84.06,3.45,3.45,0,0,1,.67.15,6.14,6.14,0,0,1,1.14.46L94,47a1,1,0,0,0,.47.21.24.24,0,0,0,.15-.06.4.4,0,0,0,.1-.16.83.83,0,0,0,.06-.25,1.69,1.69,0,0,0,0-.33,3,3,0,0,0,0-.34,1.09,1.09,0,0,0-.1-.39,1.64,1.64,0,0,0-.17-.2,3,3,0,0,0-.55-.35,5.53,5.53,0,0,0-1-.39,7.33,7.33,0,0,0-1.12-.29,4.5,4.5,0,0,0-.51-.08V41.5a1,1,0,0,0-2,0v3a4.92,4.92,0,0,0-.78.18,4.86,4.86,0,0,0-1.65.9A4,4,0,0,0,85.85,47a4.6,4.6,0,0,0-.38,1.9,4.45,4.45,0,0,0,.37,1.87,4.53,4.53,0,0,0,1,1.38,6.36,6.36,0,0,0,1.36,1c.39.22.78.44,1.19.63l.36.18,1.56.75.08,0a7.3,7.3,0,0,1,1.28.79,3.9,3.9,0,0,1,1,1.06A2.81,2.81,0,0,1,94,58.05a3.37,3.37,0,0,1-.29,1.46,2.91,2.91,0,0,1-.81,1.08,3.69,3.69,0,0,1-1.24.67l-.27.07a5,5,0,0,1-1.31.16q-.36,0-.69,0a5.58,5.58,0,0,1-1.16-.21,9.79,9.79,0,0,1-1.37-.54,7.22,7.22,0,0,1-.93-.54,1.14,1.14,0,0,0-.55-.24.51.51,0,0,0-.17,0,.28.28,0,0,0-.12.14.73.73,0,0,0-.08.25,2.17,2.17,0,0,0,0,.4,2.08,2.08,0,0,0,.07.54,1,1,0,0,0,.23.38,2.25,2.25,0,0,0,.57.39,7.12,7.12,0,0,0,1,.46,10.43,10.43,0,0,0,1.38.39,7.1,7.1,0,0,0,1.14.14v2.53a1,1,0,0,0,2,0V62.93a6.27,6.27,0,0,0,.88-.21,5.62,5.62,0,0,0,1.87-1,4.6,4.6,0,0,0,1.23-1.63,5.19,5.19,0,0,0,.44-2.17A4.36,4.36,0,0,0,95.41,56.05Z"/></g></svg>