<svg xmlns="http://www.w3.org/2000/svg" xmlns:xlink="http://www.w3.org/1999/xlink" viewBox="0 0 135 135"><defs><style>.cls-1{fill:url(#linear-gradient);}.cls-2{fill:#3a3569;}.cls-3{fill:#8fbcfe;}.cls-4{fill:#fbae17;}</style><linearGradient id="linear-gradient" x1="21.45" y1="126.01" x2="135.12" y2="-13.99" gradientUnits="userSpaceOnUse"><stop offset="0" stop-color="#673fef"/><stop offset="0.61" stop-color="#877def"/><stop offset="1" stop-color="#5ab0ff"/></linearGradient></defs><title>Yoobic</title><g id="template"><polygon class="cls-1" points="115.75 26.43 115.75 108.57 23.8 108.57 19.78 39.19 19.25 30.02 115.75 26.43"/><polygon class="cls-2" points="115.75 26.43 115.75 37.03 19.78 39.19 19.25 30.02 115.75 26.43"/><polygon class="cls-3" points="29.5 46.75 32.75 100.34 64.25 100.34 64.25 45.25 29.5 46.75"/><path class="cls-2" d="M63.06,101.34h-4a1,1,0,0,1,0-2h4a1,1,0,0,1,0,2Zm-12,0H32.75a1,1,0,0,1-1-.94l-.22-3.68a1,1,0,1,1,2-.12l.17,2.74H51.06a1,1,0,0,1,0,2Zm13.19-4.82a1,1,0,0,1-1-1v-22a1,1,0,1,1,2,0v22A1,1,0,0,1,64.25,96.52ZM32.16,91.67a1,1,0,0,1-1-.94l-.25-4a1,1,0,0,1,2-.12l.24,4a1,1,0,0,1-.94,1.06Zm-.72-12a1,1,0,0,1-1-.94l-1.33-22A1,1,0,0,1,30,55.73a1,1,0,0,1,1.06.94l1.34,22a1,1,0,0,1-.94,1.06ZM64.25,66.52a1,1,0,0,1-1-1v-4a1,1,0,0,1,2,0v4A1,1,0,0,1,64.25,66.52Zm0-10a1,1,0,0,1-1-1V46.29l-10.67.46a1,1,0,1,1-.09-2l11.72-.51a.94.94,0,0,1,.73.28,1,1,0,0,1,.31.72V55.52A1,1,0,0,1,64.25,56.52ZM29.74,51.74a1,1,0,0,1-1-.94l-.24-4a1,1,0,0,1,.26-.73,1,1,0,0,1,.7-.33l5-.22a1,1,0,1,1,.08,2l-4,.17.18,3a1,1,0,0,1-.94,1.06Zm10.8-4.47a1,1,0,0,1,0-2l4-.17a1,1,0,0,1,.09,2l-4,.17Z"/><polyline class="cls-4" points="71.13 44.38 71.13 68.88 110.75 68.88 110.75 42.5 71.13 43.88"/><path class="cls-2" d="M110.75,69.87H96.63a1,1,0,0,1,0-2h13.12V61a1,1,0,0,1,2,0v7.87A1,1,0,0,1,110.75,69.87Zm-20.12,0h-4a1,1,0,0,1,0-2h4a1,1,0,0,1,0,2Zm-12,0h-7.5a1,1,0,0,1-1-1V54.37a1,1,0,0,1,2,0v13.5h6.5a1,1,0,0,1,0,2ZM110.75,54a1,1,0,0,1-1-1V49a1,1,0,0,1,2,0v4A1,1,0,0,1,110.75,54ZM71.13,49.37a1,1,0,0,1-1-1v-4a1.07,1.07,0,0,1,0-.25.71.71,0,0,1,0-.21,1,1,0,0,1,1-1h.15a1,1,0,0,1,1,1,1,1,0,0,1-.14.55v4A1,1,0,0,1,71.13,49.37Zm6.14-4.71a1,1,0,0,1,0-2l4-.14a1,1,0,0,1,1,1,1,1,0,0,1-1,1l-4,.14Zm12-.41a1,1,0,0,1,0-2l21.48-.75a.9.9,0,0,1,.73.28,1,1,0,0,1,.31.72V43a1,1,0,0,1-1.85.53l-20.6.71Z"/><polygon class="cls-3" points="71.13 75.64 71.13 100.48 110.75 101.13 110.75 75 71.13 75.64"/><path class="cls-2" d="M110.75,102.12h0l-14.46-.23a1,1,0,0,1,0-2h0l13.45.22V93.59a1,1,0,0,1,2,0v7.53a1,1,0,0,1-1,1Zm-20.47-.33h0l-4-.06a1,1,0,0,1-1-1,1,1,0,0,1,1-1h0l4,.06a1,1,0,0,1,1,1A1,1,0,0,1,90.28,101.79Zm-12-.19h0l-7.16-.12a1,1,0,0,1-1-1V85.64a1,1,0,1,1,2,0V99.5l6.17.1a1,1,0,0,1,0,2Zm32.46-15a1,1,0,0,1-1-1v-4a1,1,0,0,1,2,0v4A1,1,0,0,1,110.75,86.59Zm-39.62-6a1,1,0,0,1-1-1v-4a1,1,0,0,1,1-1h.24a1,1,0,0,1,1,1,1,1,0,0,1-.22.65v3.37A1,1,0,0,1,71.13,80.64Zm39.62-4a1,1,0,0,1-.91-.58l-20.48.34h0a1,1,0,0,1,0-2l21.4-.35a.94.94,0,0,1,.72.29,1,1,0,0,1,.3.71v.59A1,1,0,0,1,110.75,76.59Zm-33.4,0a1,1,0,0,1-1-1,1,1,0,0,1,1-1l4-.06h0a1,1,0,0,1,0,2l-4,.06Z"/></g></svg>