<svg xmlns="http://www.w3.org/2000/svg" xmlns:xlink="http://www.w3.org/1999/xlink" viewBox="0 0 135 135"><defs><style>.cls-1{fill:#f2c83a;}.cls-2{fill:#6a61ff;}.cls-3{fill:#ef6e7f;}.cls-4{fill:#e1dfff;}.cls-5{fill:#3a3569;}.cls-6{fill:url(#linear-gradient);}</style><linearGradient id="linear-gradient" x1="64.72" y1="1.05" x2="25.97" y2="54.3" gradientUnits="userSpaceOnUse"><stop offset="0" stop-color="#673fef"/><stop offset="0.61" stop-color="#877def"/><stop offset="1" stop-color="#5ab0ff"/></linearGradient></defs><title>Yoobic</title><g id="Todo"><path class="cls-1" d="M76.05,26.51v82.66c0,6.6-5.64,12-12.53,12H28c-6.9,0-12.54-5.4-12.54-12V26.51c0-6.6,5.64-12,12.54-12H63.52C70.41,14.51,76.05,19.91,76.05,26.51Z"/><rect class="cls-2" x="85.57" y="50.28" width="12.37" height="62.43" transform="translate(214.15 90.41) rotate(142.56)"/><path class="cls-3" d="M113.92,105.2h0a6.19,6.19,0,0,1,6.19,6.19v4.28a0,0,0,0,1,0,0H107.73a0,0,0,0,1,0,0v-4.28A6.19,6.19,0,0,1,113.92,105.2Z" transform="translate(271.5 128.86) rotate(142.56)"/><polygon class="cls-4" points="77.69 52.95 67.86 60.47 66.91 53.22 66.26 48.2 70.88 50.12 77.69 52.95"/><rect class="cls-5" x="102.77" y="101.03" width="12.38" height="5.85" transform="translate(258.66 120.25) rotate(142.56)"/><path class="cls-5" d="M70.88,50.12a4.38,4.38,0,0,1-4,3.1l-.65-5Z"/><path class="cls-6" d="M76.05,25.83v6.31H15.47V25.83c0-6.6,5.64-12,12.54-12H63.52C70.41,13.83,76.05,19.23,76.05,25.83Z"/><circle class="cls-2" cx="26.14" cy="65.24" r="3.33"/><circle class="cls-2" cx="26.14" cy="85.36" r="3.33"/><circle class="cls-2" cx="26.14" cy="105.49" r="3.33"/><path class="cls-2" d="M66.26,46.11H37.6a1,1,0,0,1,0-2H66.26a1,1,0,0,1,0,2Z"/><path class="cls-2" d="M66.26,66.24H37.6a1,1,0,0,1,0-2H66.26a1,1,0,0,1,0,2Z"/><path class="cls-2" d="M66.26,86.36H37.6a1,1,0,0,1,0-2H66.26a1,1,0,0,1,0,2Z"/><path class="cls-2" d="M66.26,106.49H37.6a1,1,0,0,1,0-2H66.26a1,1,0,0,1,0,2Z"/><path class="cls-2" d="M25.73,48.08a1,1,0,0,1-.56-.17l-5-3.33a1,1,0,0,1-.28-1.38,1,1,0,0,1,1.39-.28l4.29,2.86,7.25-7.4a1,1,0,1,1,1.43,1.39l-7.83,8A1,1,0,0,1,25.73,48.08Z"/></g></svg>