<?xml version="1.0" encoding="UTF-8"?>
<svg width="234px" height="233px" viewBox="0 0 234 233" version="1.1" xmlns="http://www.w3.org/2000/svg" xmlns:xlink="http://www.w3.org/1999/xlink">
    <!-- Generator: Sketch 49.3 (51167) - http://www.bohemiancoding.com/sketch -->
    <title>Artwork</title>
    <desc>Created with Sketch.</desc>
    <defs>
        <path d="M175.005137,30.1201855 C155.662666,10.7777148 129.945977,0.125322266 102.591689,0.125322266 C75.2374023,0.125322266 49.5207129,10.7777148 30.1782422,30.1201855 C10.8357715,49.4622559 0.183779297,75.1793457 0.183779297,102.533232 C0.183779297,129.887119 10.8361719,155.604209 30.1782422,174.94668 C49.5203125,194.28915 75.2374023,204.941143 102.591689,204.941143 C129.945977,204.941143 155.662666,194.28875 175.005137,174.94668 C194.347607,155.604609 205,129.88752 205,102.533232 C205,75.1789453 194.347607,49.4626563 175.005137,30.1201855 Z" id="path-1"></path>
        <filter x="-12.2%" y="-9.8%" width="124.4%" height="124.4%" filterUnits="objectBoundingBox" id="filter-2">
            <feOffset dx="0" dy="5" in="SourceAlpha" result="shadowOffsetOuter1"></feOffset>
            <feGaussianBlur stdDeviation="7.5" in="shadowOffsetOuter1" result="shadowBlurOuter1"></feGaussianBlur>
            <feColorMatrix values="0 0 0 0 0.156862745   0 0 0 0 0.184313725   0 0 0 0 0.211764706  0 0 0 0.08 0" type="matrix" in="shadowBlurOuter1"></feColorMatrix>
        </filter>
        <linearGradient x1="60.881%" y1="74.0327464%" x2="32.4700625%" y2="-13.3084847%" id="linearGradient-3">
            <stop stop-color="#15DABA" offset="0%"></stop>
            <stop stop-color="#13DEB4" offset="20.5%"></stop>
            <stop stop-color="#0DE8A2" offset="49.01%"></stop>
            <stop stop-color="#04F884" offset="82.08%"></stop>
            <stop stop-color="#00FF78" offset="100%"></stop>
        </linearGradient>
    </defs>
    <g id="Page-1" stroke="none" stroke-width="1" fill="none" fill-rule="evenodd">
        <g id="Walkthrough-4" transform="translate(-71.000000, -131.000000)" fill-rule="nonzero">
            <g id="Artwork" transform="translate(85.000000, 140.000000)">
                <g id="Shape">
                    <use fill="black" fill-opacity="1" filter="url(#filter-2)" xlink:href="#path-1"></use>
                    <use fill="#9FF4FF" fill-rule="evenodd" xlink:href="#path-1"></use>
                </g>
                <path d="M175.005137,30.1201855 C155.662666,10.7777148 129.945977,0.125322266 102.591689,0.125322266 C99.68125,0.125322266 96.7916309,0.253447266 93.9240332,0.491679688 C118.009131,2.49723633 140.384961,12.8353223 157.669824,30.1197852 C177.012295,49.4622559 187.664688,75.1789453 187.664688,102.533232 C187.664688,129.88752 177.012295,155.604209 157.669824,174.94668 C140.385361,192.231143 118.009131,202.568828 93.9240332,204.574385 C96.7916309,204.813418 99.68125,204.941143 102.591689,204.941143 C129.945977,204.941143 155.662666,194.28875 175.005137,174.94668 C194.347607,155.604609 205,129.88792 205,102.533633 C205,75.1793457 194.347607,49.4626563 175.005137,30.1201855 Z" id="Shape" fill="#7EE5F2"></path>
                <path d="M202.913965,82.7899707 C199.371709,64.5942187 190.900244,47.6701074 178.414863,33.8466211 C166.007158,20.1092187 150.148486,9.98694336 132.554121,4.57366211 C131.729316,4.31981445 130.833643,4.43352539 130.098125,4.88676758 C124.425391,8.38057617 120.656514,10.9775098 118.576885,12.8261133 C116.821572,14.3864355 115.963135,16.409209 116.094463,18.6754199 C116.293457,22.1095703 118.870371,25.5833594 121.556992,28.308418 C112.210273,29.1476367 96.5305762,31.5595898 87.4268945,38.4767383 C81.4438574,43.0219727 79.2180859,47.0763281 80.8112402,50.5264941 C83.2235938,55.7511914 93.2409668,56.014248 114.307119,51.405752 C131.304502,47.6873242 140.66123,51.9178516 142.567891,55.4585059 C143.193301,56.6200391 142.796514,57.2446484 142.326055,57.7030957 C139.074082,60.8697852 126.141064,62.1430273 109.373105,60.9450586 C101.153887,60.3572852 97.9195313,63.9800195 93.4511719,68.9945117 C91.6285938,71.039707 89.5625781,73.3575684 86.6849707,76.0433887 C80.480918,81.8338379 80.4304688,86.8243066 81.4806934,89.9909961 C83.5286914,96.1658203 91.3158887,100.305059 103.408887,101.646768 C116.48084,103.096982 122.982783,109.145684 123.870449,120.682539 C124.234805,125.425166 122.814619,127.928408 121.016465,131.098301 C119.928203,133.016973 118.6946,135.191895 117.859785,137.974209 C115.503086,145.830273 116.981729,159.108027 127.647334,164.03083 C129.215664,164.754736 130.814424,165.071445 132.415186,165.071445 C141.030791,165.071445 149.688037,155.891689 153.749199,151.585088 C154.163203,151.145859 154.520352,150.76709 154.811035,150.4696 C157.29626,147.934326 158.145488,142.673594 159.248965,134.309834 C159.724229,130.705918 160.262754,126.621133 160.941016,125.039189 C162.144189,122.232051 170.42627,114.778779 175.922432,110.383691 C176.59749,109.843965 177.006689,109.03918 177.046328,108.175537 C177.085566,107.311895 176.750439,106.473877 176.126631,105.874492 C176.062568,105.812832 169.64791,99.6324023 163.998398,92.5827246 C155.893691,82.4676562 155.102119,77.7122168 155.91251,76.4970312 C157.525283,74.0786719 158.848574,73.6858887 159.703008,73.6014062 C163.986387,73.1789941 171.335557,79.9744238 176.486582,85.1250488 C181.702471,90.3417383 189.984951,90.6836719 201.101396,86.1416406 C202.429492,85.5995117 203.187832,84.196543 202.913965,82.7899707 Z" id="Shape" fill="url(#linearGradient-3)"></path>
                <path d="M202.913965,82.7899707 C199.371709,64.5942187 190.900244,47.6701074 178.414863,33.8466211 C166.007158,20.1092187 150.148486,9.98694336 132.554121,4.57366211 C131.729316,4.31981445 130.833643,4.43352539 130.098125,4.88676758 C128.187061,6.06391602 126.496611,7.13696289 125.009961,8.11591797 C136.99165,13.189668 148.002793,20.574873 157.48084,30.0533203 C173.683047,46.2555273 183.7825,66.9308984 186.636885,89.293916 C190.737686,89.4528711 195.569199,88.4026465 201.103398,86.142041 C202.429492,85.5995117 203.187832,84.196543 202.913965,82.7899707 Z" id="Shape" fill="#10C99F"></path>
                <path d="M94.8245117,199.909434 C92.515459,195.574004 80.266709,173.87123 65.4502539,171.730742 C64.8993164,171.651064 64.379209,171.575791 63.9475879,170.00666 C63.4511035,168.199297 63.4002539,165.447012 63.3413965,162.260703 C63.2180762,155.587793 63.0647266,147.283291 58.9146777,139.279883 C54.0038867,129.809443 45.9844629,129.601641 40.6780859,129.463906 C35.3588965,129.326172 34.9865332,129.09875 34.9865332,125.989316 C34.9865332,113.479512 21.4020801,102.279785 3.38810547,99.9375 C2.53046875,99.825791 1.66482422,100.090449 1.01579102,100.663008 C0.366357422,101.235967 -0.003203125,102.061172 0.000400390625,102.926816 C0.112509766,128.352021 9.60537109,152.692568 26.7308789,171.465684 C43.7430762,190.115078 66.8840527,201.790469 91.8900488,204.341758 C91.9925488,204.352168 92.0946484,204.357373 92.1959473,204.357373 C93.333457,204.357373 94.3856836,203.710742 94.8921777,202.67293 C95.3262012,201.780859 95.2865625,200.750654 94.8245117,199.909434 Z" id="Shape" fill="url(#linearGradient-3)"></path>
                <path d="M73.834834,58.3989746 C72.730957,55.8216602 71.034502,54.0787598 68.7943164,53.2195215 C64.1609961,51.4429883 58.6071777,54.0134961 53.2371387,56.4991211 C52.1172461,57.0172266 50.958916,57.5533496 49.8614453,58.0238086 C40.4642773,62.0497363 34.1120801,77.9516504 38.1428125,87.3600293 C39.2446875,89.9325391 40.9691699,91.6946582 43.2678125,92.5979395 C44.4689844,93.07 45.7342188,93.2733984 47.0462988,93.2733984 C51.2219727,93.272998 55.8669043,91.2141895 60.3941211,89.2066309 C61.1985059,88.8502832 61.9944824,88.4971387 62.7732422,88.1636133 C67.2295898,86.2545508 71.0877539,81.5239355 73.3583691,75.1849512 C75.5449023,69.0817969 75.7226758,62.806875 73.834834,58.3989746 Z" id="Shape" fill="url(#linearGradient-3)"></path>
                <circle id="Oval" fill="#FFFFFF" cx="141.648994" cy="42.0398145" r="15.5475684"></circle>
                <path d="M141.650195,0.0584570312 C118.501211,0.0584570312 99.6680371,18.8916309 99.6680371,42.0406152 C99.6680371,56.3601855 106.461465,71.7343848 119.858936,87.7351953 C129.698936,99.4874609 139.405605,107.046035 139.813604,107.362344 C140.354531,107.780352 141.002363,107.989756 141.650195,107.989756 C142.298027,107.989756 142.945859,107.780352 143.486787,107.362344 C143.894785,107.046035 153.601455,99.4878613 163.441455,87.7351953 C176.838525,71.7339844 183.631953,56.3601855 183.631953,42.0406152 C183.631953,18.8916309 164.79918,0.0584570312 141.650195,0.0584570312 Z M157.197764,42.0406152 C157.197764,50.6269922 150.236572,57.5881836 141.650195,57.5881836 C133.063818,57.5881836 126.102627,50.6269922 126.102627,42.0406152 C126.102627,33.4542383 133.063418,26.4930469 141.650195,26.4930469 C150.236572,26.4930469 157.197764,33.4538379 157.197764,42.0406152 Z" id="Shape" fill="#FF625F"></path>
                <path d="M141.650195,0.0584570312 C139.290293,0.0584570312 136.976035,0.257451172 134.720635,0.633417969 C154.583613,3.94665039 169.772832,21.2515332 169.772832,42.0406152 C169.772832,56.3601855 162.979404,71.7343848 149.582334,87.7351953 C144.039727,94.3548535 138.540361,99.6436133 134.720234,103.057344 C137.682324,105.704326 139.634629,107.224609 139.812803,107.362744 C140.35373,107.780752 141.001562,107.990156 141.649395,107.990156 C142.297227,107.990156 142.945059,107.780752 143.485986,107.362744 C143.893984,107.046436 153.600654,99.4882617 163.440654,87.7355957 C176.837725,71.7343848 183.631152,56.3605859 183.631152,42.0410156 C183.631953,18.8916309 164.79918,0.0584570312 141.650195,0.0584570312 Z" id="Shape" fill="#000000" opacity="0.05"></path>
            </g>
        </g>
    </g>
</svg>